<?xml version="1.0" encoding="UTF-8"?><svg xmlns="http://www.w3.org/2000/svg" viewBox="0 0 741.28 723.5"><defs><style>.d{fill:#dcc9e8;}</style></defs><g id="a"/><g id="b"><g id="c"><g><path class="d" d="M639.92,614.69c-6.98-36.45-39.46-50.19-58.29-43-13.88,5.32-23.59,15.53-31.27,27.69-17.09,27.17-22.94,56.98-19.85,88.72,.21,2.12,.4,4.26,.52,6.38,.04,.37-.21,.75-.65,2.09-3.05,1.46-6.72,3.23-10.42,5.01,.21,.77,.4,1.55,.56,2.36,10.76-1.31,21.53-2.55,32.33-3.83,28.41-3.39,56.66-3.7,83.92,6.38,9.56,3.52,19.08,8,27.42,13.79,1.52,1.04,2.98,2.12,4.39,3.22h26.09c-1.46-1.58-3-3.15-4.62-4.69-2.55-23.15,.9-46.42,3.82-69.79,4.49-35.38,14.6-69.43,24.93-103.44,7.31-24.24,11.33-49.35,11.58-74.65,.43-37.03-9.25-71.91-26.64-104.65-1.18-2.27-2.46-4.48-3.64-6.6,24.74-37.59,43.28-76.98,40.98-124.41,0-3.67,.12-39.02,.12-39.02-2.11-33.45-14.87-63.51-31.74-91.42-26.35-43.41-64.22-73.81-111.49-93.05-44.79-20.45-97.53-8.24-99.92-7.4-22.09,7.81-38.65,21.75-48.79,44.87,0,0-4.05,3.21-4.02,18.89,2.68,34.91,22.97,57.01,55.83,66.65,21.81,6.48,43.81,4.27,65.19-8.83-6.13-4.64-11.58-2.96-16.8-2.49-12.95,1.21-24.77-1.5-34.76-10.21-9.9-8.65-11.05-19.26-2.46-31.93,0,0,8.77-8.03,22.93-11.91,.56-.13,1.12-.25,1.68-.35l.56-.09c17.18-3.49,28.88,1.03,37.97,13.88,0,0,7.22,9.74,5.72,24.89-1.02,11.89-6.78,19.54-13.81,25.55-19.2,16.27-41.64,25.24-67.06,25.52-12.45,.18-25.02,.62-37.22-1.28-11.67-1.77-23.46-5.16-34.23-10.05-27.48-12.39-55.48-23.15-85.45-27.07-53.27-6.97-100.6,6.1-138.72,45.21-15.13,15.5-25.15,34.57-29.81,57.07-6.57,3.8-13.29,8.43-20.6,11.76-17.49,7.91-31.93,20.11-46.31,32.34-47.05,39.92-81.03,88.46-94.72,149.33-5.63,24.96-8.4,50.38-4.92,76.49,2.99,22,3.11,44.4,10.21,65.72,5.54,16.65,11.76,33.02,17.46,49.63,2.21,6.38,3.73,13.07,5.54,19.58-1.37,1.15-2.21,2.36-3.3,2.61-25.71,6.29-36.66,32.42-38,53.74-.8,13.39,1.36,26.87,5.93,39.6H27.99c-4.29-11.59-5.62-24.18-3.43-37.76,5.57-35.1,35.35-47.89,62.73-33.14,3.27,1.77,6.76,3.11,10.18,4.66,.5-.65,1.02-1.33,1.58-1.99-4.82-4.23-9.77-8.21-14.37-12.6-3.33-3.21-7.69-6.32-9.06-10.36-12.97-37.16-29.71-73.07-36.19-112.43-15.06-91.86,10.77-170.4,76.12-236.28,31.96-32.21,70.29-54.61,111.8-72.1,5.14-2.15,10.02-4.73,15-7.28,.47-.25,.47-1.5,.91-3.18-17.93,2.03-33.98,9.25-51.88,14.75,2.58-12.26,9.4-21.47,17.02-29.71,33.42-36.23,75.03-49.61,123.48-42.51,24.52,3.58,46.99,13.07,68.96,23.99,49.79,24.8,100.23,22.44,150.73,2.8,15.34-5.97,28.57-15.74,39.33-28.38,10.93-12.79,18.18-27.07,18.08-45.87,2.8,3.36,5.85,6.57,8.31,10.18,39.58,57.07,25.71,132.69-31.61,172.86-34.02,23.84-72.04,31.02-112.71,26.42-23.93-2.77-47.3-8.28-69.52-17.96-1.8-.84-3.86-1.12-6.72-.21,1.99,1.8,3.76,3.85,5.88,5.38,62.7,44.19,151.23,39.92,209.39-9.99,59.31-50.97,63.05-138.72,8.44-194.67-11.49-11.8-24-22.1-39.03-29.01-20.78-9.58-42.1-11.6-63.6-2.83-15.65,6.38-23.81,18.95-26.61,35.26-2.18,12.45,4.45,21.19,12.48,29.31,.03,0,.13,.03,.16,.03l.53,.35-.6-.31q-.06-.04-.09-.07c-18.92-3.98-35.47-21.28-38.37-40.11-3.42-22.19,5.6-41.7,24.06-52.74,19.66-11.77,41.04-12.61,62.42-8.25,72.04,14.69,122.17,57.04,148.96,125.03,39.15,99.33-3.7,210.7-98.46,255.33-72.28,34.04-140.99,23.83-204.69-23.31-10.64-7.88-20.54-16.9-30.84-25.3-3.83-3.08-7.84-5.98-12.57-7.66,35.01,59.84,87.07,93.76,156,100.48,69.17,6.73,127.05-17.52,175.16-68.89,1.93,3.61,3.73,6.22,4.91,9.15,20.88,52.52,23.62,106.08,7.53,160.13-11.94,40.05-20.16,80.63-22.15,122.42-.59,12.69-1.53,25.39-2.4,39.27-4.35-2.15-8.03-3.95-12.85-6.35,1.74-5.94,3.3-11.58,5.04-17.11,9.43-30,12.17-60.53,6.6-91.49-4.05-22.41-12.7-42.76-29.03-59.19-20.35-20.53-49.26-24.55-74.38-10.08-24.55,14.19-39.61,36.28-49.6,62.11-13.41,34.45-15.77,69.96-7.19,106.49,.75-4.79,2.03-9.59,2.18-14.35,1.09-31.58,5.91-62.23,20.32-90.89,7.28-14.38,16.43-27.2,28.69-37.59,4.89-4.14,10.43-7.66,16.22-10.43,17.42-8.4,35.91-5.29,50.13,7.84,8.65,8.06,14.93,17.83,18.79,28.91,14,39.83,9.62,79.2-3.14,119.21-3.36-.77-5.98-1.33-9.52-2.17,7.47-25.24,10.7-50.04,4.42-76.62m-290.24-14.9c1.11-3.2-18.68-33.7-24.46-35.79-30.84-27.16-74.47-22.31-99.33,11.55-20.07,27.26-24.64,57.85-17.27,90.49,.78,3.33,1.59,6.63,2.71,11.45-4.05,.87-7.84,1.68-12.14,2.58-8.03-20.69-9.99-41.1-8.8-61.74,1.99-34.26,14.12-64.1,39.55-88.18,32.98-31.25,79.16-34.14,114.98-6.23,27.32,21.26,42.38,50.23,50.32,83.21,5.13,21.41,6.75,43.16,3.7,65.1-.19,1.46,.43,3.08,.78,5.54,1.71-1.43,3.11-1.96,3.39-2.86,17.11-51.69,7.16-117.29-39.8-157.8-54.05-46.68-141.56-37.34-181.26,35.19-20.76,37.9-20.98,77.95-10.21,118.75,1.09,4.11,2.61,8.12,3.92,12.23,.09,.28-.19,.71-.44,1.74-27.82,8.9-54.64,19.34-74.44,38.48h29.94s.05-.03,.07-.05c26.36-19.17,56.79-27.91,88.5-32.55,47.86-7.06,94.97-1.77,141.77,8.87,11.64,2.61,23.4,4.64,35.35,6.04-13.85-10.21-31.12-11.89-47.45-19.26,10.48-28.23,12.19-56.51,.62-86.76"/><path class="d" d="M418.13,457.98c-.68,.59-1.37,1.15-2.05,1.71-2.3-3.49-4.58-6.97-6.81-10.52-14.84-23.15-33.73-42.16-58.53-54.58-48.17-24.27-97.37-12.07-132.78,18.76-12.66,11.08-23.56,23.74-32.08,38.34-1.49,2.52-3.27,4.92-6.44,6.85,.72-2.99,1.18-6.07,2.24-8.93,17.05-46.24,48.48-77.08,96.75-89.37,14.75-3.73,30-3.77,44.56,.65,49.33,15.13,80.3,48.36,95.14,97.09Z"/><path class="d" d="M685.62,528.34c-19.88-53.09-57.19-76.71-112.55-72.47,19.01-14.16,55.2-14.59,77.76-1.65,22.75,13.07,38.49,45.24,34.79,74.12Z"/><path class="d" d="M98.58,704.94c-2.02,.37-3.33,.99-4.48,.77-14.31-2.91-22.54,4.01-21.58,17.79h-6.08c-3.95-11.92,3.21-23.79,20.04-31.07-9.62-22.47-27.2-21.94-48.58,2.05-.99-13.66,5.64-22.53,16.19-28.35,10.64-5.91,21.75-5.16,31.39,2.46,11.77,9.24,15.84,21.63,13.1,36.35Z"/></g></g></g></svg>