<?xml version="1.0" encoding="utf-8"?>
<!-- Generator: Adobe Illustrator 26.1.0, SVG Export Plug-In . SVG Version: 6.00 Build 0)  -->
<svg version="1.1" id="Layer_1" xmlns="http://www.w3.org/2000/svg" xmlns:xlink="http://www.w3.org/1999/xlink" x="0px" y="0px"
	 viewBox="0 0 1920 1080" style="enable-background:new 0 0 1920 1080;" xml:space="preserve">
<style type="text/css">
	.st0{fill:#DCC9E8;}
</style>
<g>
	<g>
		<path class="st0" d="M1289.47,716.59c24.74-37.59,43.28-76.98,40.98-124.41c0-3.67,0.12-39.02,0.12-39.02
			c-2.11-33.45-14.87-63.51-31.74-91.42c-26.35-43.41-64.22-73.81-111.49-93.05c-44.79-20.45-97.53-8.24-99.92-7.4
			c-22.09,7.81-38.65,21.75-48.79,44.87c0,0-4.05,3.21-4.02,18.89c2.68,34.91,22.97,57.01,55.83,66.65
			c21.81,6.48,43.81,4.27,65.19-8.83c-6.13-4.64-11.58-2.96-16.8-2.49c-12.95,1.21-24.77-1.5-34.76-10.21
			c-9.9-8.65-11.05-19.26-2.46-31.93c0,0,8.77-8.03,22.93-11.91c0.56-0.13,1.12-0.25,1.68-0.35l0.56-0.09
			c17.18-3.49,28.88,1.03,37.97,13.88c0,0,7.22,9.74,5.72,24.89c-1.02,11.89-6.78,19.54-13.81,25.55
			c-19.2,16.27-41.64,25.24-67.06,25.52c-12.45,0.18-25.02,0.62-37.22-1.28c-11.67-1.77-23.46-5.16-34.23-10.05
			c-27.48-12.39-55.48-23.15-85.45-27.07c-53.27-6.97-100.6,6.1-138.72,45.21c-15.13,15.5-25.15,34.57-29.81,57.07
			c-6.57,3.8-13.29,8.43-20.6,11.76c-17.49,7.91-31.93,20.11-46.31,32.34c-47.05,39.92-81.03,88.46-94.72,149.33
			c-5.63,24.96-8.4,50.38-4.92,76.49c2.99,22,3.11,44.4,10.21,65.72c5.54,16.65,11.76,33.02,17.46,49.63
			c2.21,6.38,3.73,13.07,5.54,19.58c-1.37,1.15-2.21,2.36-3.3,2.61c-25.71,6.29-36.66,32.42-38,53.74
			c-0.8,13.39,1.36,26.87,5.93,39.6h21.9c-4.29-11.59-5.62-24.18-3.43-37.76c5.57-35.1,35.35-47.89,62.73-33.14
			c3.27,1.77,6.76,3.11,10.18,4.66c0.5-0.65,1.02-1.33,1.58-1.99c-4.82-4.23-9.77-8.21-14.37-12.6c-3.33-3.21-7.69-6.32-9.06-10.36
			c-12.97-37.16-29.71-73.07-36.19-112.43c-15.06-91.86,10.77-170.4,76.12-236.28c31.96-32.21,70.29-54.61,111.8-72.1
			c5.14-2.15,10.02-4.73,15-7.28c0.47-0.25,0.47-1.5,0.91-3.18c-17.93,2.03-33.98,9.25-51.88,14.75
			c2.58-12.26,9.4-21.47,17.02-29.71c33.42-36.23,75.03-49.61,123.48-42.51c24.52,3.58,46.99,13.07,68.96,23.99
			c49.79,24.8,100.23,22.44,150.73,2.8c15.34-5.97,28.57-15.74,39.33-28.38c10.93-12.79,18.18-27.07,18.08-45.87
			c2.8,3.36,5.85,6.57,8.31,10.18c39.58,57.07,25.71,132.69-31.61,172.86c-34.02,23.84-72.04,31.02-112.71,26.42
			c-23.93-2.77-47.3-8.28-69.52-17.96c-1.8-0.84-3.86-1.12-6.72-0.21c1.99,1.8,3.76,3.85,5.88,5.38
			c62.7,44.19,151.23,39.92,209.39-9.99c59.31-50.97,63.05-138.72,8.44-194.67c-11.49-11.8-24-22.1-39.03-29.01
			c-20.78-9.58-42.1-11.6-63.6-2.83c-15.65,6.38-23.81,18.95-26.61,35.26c-2.18,12.45,4.45,21.19,12.48,29.31
			c0.03,0,0.13,0.03,0.16,0.03l0.53,0.35l-0.6-0.31c-0.06-0.04-0.06-0.04-0.09-0.07c-18.92-3.98-35.47-21.28-38.37-40.11
			c-3.42-22.19,5.6-41.7,24.06-52.74c19.66-11.77,41.04-12.61,62.42-8.25c72.04,14.69,122.17,57.04,148.96,125.03
			c39.15,99.33-3.7,210.7-98.46,255.33c-72.28,34.04-140.99,23.83-204.69-23.31c-10.64-7.88-20.54-16.9-30.84-25.3
			c-3.83-3.08-7.84-5.98-12.57-7.66c35.01,59.84,87.07,93.76,156,100.48c69.17,6.73,127.05-17.52,175.16-68.89
			c1.93,3.61,3.73,6.22,4.91,9.15c20.88,52.52,23.62,106.08,7.53,160.13c-11.94,40.05-20.16,80.63-22.15,122.42
			c-0.59,12.69-1.53,25.39-2.4,39.27c-4.35-2.15-8.03-3.95-12.85-6.35c1.74-5.94,3.3-11.58,5.04-17.11
			c9.43-30,12.17-60.53,6.6-91.49c-4.05-22.41-12.7-42.76-29.03-59.19c-20.35-20.53-49.26-24.55-74.38-10.08
			c-24.55,14.19-39.61,36.28-49.6,62.11c-13.41,34.45-15.77,69.96-7.19,106.49c0.75-4.79,2.03-9.59,2.18-14.35
			c1.09-31.58,5.91-62.23,20.32-90.89c7.28-14.38,16.43-27.2,28.69-37.59c4.89-4.14,10.43-7.66,16.22-10.43
			c17.42-8.4,35.91-5.29,50.13,7.84c8.65,8.06,14.93,17.83,18.79,28.91c14,39.83,9.62,79.2-3.14,119.21
			c-3.36-0.77-5.98-1.33-9.52-2.17c7.47-25.24,10.7-50.04,4.42-76.62c-8.72,7.01-17.12,13.45-27.64,5.33
			c-5.88-4.58-6.69-10.86-5.16-17.46c2.64-11.08,12.32-11.55,21.38-12.57c-10.52-18.83-28.04-25.49-46.87-18.3
			c-13.88,5.32-23.59,15.53-31.27,27.69c-17.09,27.17-22.94,56.98-19.85,88.72c0.21,2.12,0.4,4.26,0.52,6.38
			c0.04,0.37-0.21,0.75-0.65,2.09c-3.05,1.46-6.72,3.23-10.42,5.01c0.21,0.77,0.4,1.55,0.56,2.36c10.76-1.31,21.53-2.55,32.33-3.83
			c28.41-3.39,56.66-3.7,83.92,6.38c9.56,3.52,19.08,8,27.42,13.79c1.52,1.04,2.98,2.12,4.39,3.22h26.09
			c-1.46-1.58-3-3.15-4.62-4.69c-2.55-23.15,0.9-46.42,3.82-69.79c4.49-35.38,14.6-69.43,24.93-103.44
			c7.31-24.24,11.33-49.35,11.58-74.65c0.43-37.03-9.25-71.91-26.64-104.65C1291.93,720.92,1290.65,718.71,1289.47,716.59z
			 M952.68,874.02c-54.05-46.68-141.56-37.34-181.26,35.19c-20.76,37.9-20.98,77.95-10.21,118.75c1.09,4.11,2.61,8.12,3.92,12.23
			c0.09,0.28-0.19,0.71-0.44,1.74c-27.82,8.9-54.64,19.34-74.44,38.48h29.94c0.02-0.02,0.05-0.03,0.07-0.05
			c26.36-19.17,56.79-27.91,88.5-32.55c47.86-7.06,94.97-1.77,141.77,8.87c11.64,2.61,23.4,4.64,35.35,6.04
			c-13.85-10.21-31.12-11.89-47.45-19.26c10.48-28.23,12.19-56.51,0.62-86.76c-8.59,10.36-17.61,17.33-30.12,10.3
			c-6.88-3.86-10.21-10.21-9.74-18.27c0.71-12.79,9.95-16.96,22.03-19.76c-2.68-3.26-4.33-6.03-6.63-8.06
			c-30.84-27.16-74.47-22.31-99.33,11.55c-20.07,27.26-24.64,57.85-17.27,90.49c0.78,3.33,1.59,6.63,2.71,11.45
			c-4.05,0.87-7.84,1.68-12.14,2.58c-8.03-20.69-9.99-41.1-8.8-61.74c1.99-34.26,14.12-64.1,39.55-88.18
			c32.98-31.25,79.16-34.14,114.98-6.23c27.32,21.26,42.38,50.23,50.32,83.21c5.13,21.41,6.75,43.16,3.7,65.1
			c-0.19,1.46,0.43,3.08,0.78,5.54c1.71-1.43,3.11-1.96,3.39-2.86C1009.59,980.13,999.64,914.53,952.68,874.02z"/>
		<path class="st0" d="M1007.5,814.89c-0.68,0.59-1.37,1.15-2.05,1.71c-2.3-3.49-4.58-6.97-6.81-10.52
			c-14.84-23.15-33.73-42.16-58.53-54.58c-48.17-24.27-97.37-12.07-132.78,18.76c-12.66,11.08-23.56,23.74-32.08,38.34
			c-1.49,2.52-3.27,4.92-6.44,6.85c0.72-2.99,1.18-6.07,2.24-8.93c17.05-46.24,48.48-77.08,96.75-89.37
			c14.75-3.73,30-3.77,44.56,0.65C961.69,732.93,992.66,766.16,1007.5,814.89z"/>
		<path class="st0" d="M1274.99,885.25c-19.88-53.09-57.19-76.71-112.55-72.47c19.01-14.16,55.2-14.59,77.76-1.65
			C1262.95,824.2,1278.69,856.37,1274.99,885.25z"/>
		<path class="st0" d="M687.95,1061.85c-2.02,0.37-3.33,0.99-4.48,0.77c-14.31-2.91-22.54,4.01-21.58,17.79h-6.08
			c-3.95-11.92,3.21-23.79,20.04-31.07c-9.62-22.47-27.2-21.94-48.58,2.05c-0.99-13.66,5.64-22.53,16.19-28.35
			c10.64-5.91,21.75-5.16,31.39,2.46C686.62,1034.74,690.69,1047.13,687.95,1061.85z"/>
	</g>
</g>
</svg>
