<?xml version="1.0" encoding="utf-8"?>
<!-- Generator: Adobe Illustrator 26.1.0, SVG Export Plug-In . SVG Version: 6.00 Build 0)  -->
<svg version="1.1" id="Layer_1" xmlns="http://www.w3.org/2000/svg" xmlns:xlink="http://www.w3.org/1999/xlink" x="0px" y="0px"
	 viewBox="0 0 463.56 156.25" style="enable-background:new 0 0 463.56 156.25;" xml:space="preserve">
<style type="text/css">
	.st0{fill:#D9BCE2;}
</style>
<g>
	<path class="st0" d="M142.88,60.8c0.29-0.29,0.63-0.57,1.02-0.81v-0.01C143.51,60.23,143.17,60.5,142.88,60.8z M179.57,56.23
		c-0.67,0.16-1.34,0.32-2.02,0.48c0.68-0.15,1.35-0.31,2.02-0.47c0.08-0.02,0.16-0.07,0.24-0.14
		C179.73,56.17,179.65,56.21,179.57,56.23z M186.26,40.94c0.74,0.45,1.46,0.96,2.15,1.52C187.72,41.89,187,41.38,186.26,40.94z
		 M188.41,42.46c0.35,0.29,0.69,0.59,1.02,0.9v-0.01C189.1,43.04,188.76,42.74,188.41,42.46z M199.06,106.68
		c-0.02,0.11-0.04,0.21-0.05,0.32c0.01-0.11,0.03-0.21,0.06-0.32c0.11-0.51,0.22-1.02,0.34-1.54
		C199.29,105.66,199.17,106.17,199.06,106.68z M243.28,66.34c0.56,0.31,1.11,0.65,1.64,1.02C244.39,66.99,243.84,66.64,243.28,66.34
		z M266.22,64.78c-0.24-0.08-0.48-0.15-0.72-0.21C265.74,64.64,265.98,64.71,266.22,64.78c1.22,0.42,2.25,1,3.09,1.72
		C268.47,65.77,267.44,65.19,266.22,64.78z M294.45,88.69c0.25,0.88,0.56,1.76,0.93,2.62C295.02,90.45,294.71,89.57,294.45,88.69z
		 M303.17,11.08c-0.13,0.09-0.25,0.17-0.36,0.25c0.11-0.08,0.23-0.16,0.36-0.24c0.03-0.02,0.06-0.04,0.09-0.06
		C303.23,11.05,303.2,11.07,303.17,11.08z M303.95,101.11c-0.13-0.06-0.25-0.12-0.37-0.19c0.12,0.07,0.24,0.13,0.37,0.2
		c0.18,0.1,0.37,0.2,0.57,0.29C304.32,101.32,304.13,101.22,303.95,101.11z M304.28,10.44c-0.01,0.02-0.04,0.02-0.06,0.04
		c0.02-0.01,0.05-0.01,0.06-0.03c0.09-0.05,0.17-0.09,0.25-0.13C304.45,10.35,304.37,10.39,304.28,10.44z M306.27,102.12
		c-0.01-0.01-0.01-0.01-0.02-0.01c0.01,0,0.01,0.01,0.02,0.02c0.22,0.06,0.43,0.13,0.65,0.19
		C306.7,102.26,306.49,102.18,306.27,102.12z M308.59,8.87c0.33-0.08,0.65-0.15,0.99-0.2C309.24,8.71,308.92,8.79,308.59,8.87z
		 M313.11,26.94c0.08,0.59,0.09,1.16,0.08,1.76C313.21,28.1,313.19,27.53,313.11,26.94z M310.89,103.01
		c0.86,0.06,1.74,0.06,2.64,0.01C312.63,103.07,311.74,103.06,310.89,103.01z M317.82,8.69c-0.04-0.01-0.08-0.02-0.11-0.03
		c0.03,0.01,0.07,0.03,0.11,0.04c0.17,0.04,0.34,0.09,0.51,0.13C318.16,8.78,317.99,8.73,317.82,8.69z M330.72,51.2
		c-0.08,0.03-0.15,0.07-0.23,0.11c0.08-0.04,0.15-0.07,0.23-0.1c0.31-0.16,0.62-0.31,0.93-0.47
		C331.34,50.89,331.03,51.05,330.72,51.2z M332.07,50.52c-0.07,0.04-0.14,0.08-0.21,0.12c0.07-0.04,0.14-0.07,0.21-0.11
		c0.07-0.04,0.13-0.08,0.21-0.12C332.2,50.44,332.14,50.48,332.07,50.52z M335.52,94.64c-0.15,0.14-0.31,0.27-0.46,0.39
		c0.15-0.12,0.31-0.25,0.46-0.38c0.13-0.13,0.27-0.25,0.4-0.38C335.79,94.4,335.65,94.52,335.52,94.64z M338.47,46.3
		c0.53-0.44,1.08-0.9,1.59-1.37C339.55,45.39,339,45.86,338.47,46.3z M339.13,14.5v0.01c0.05-0.05,0.11-0.1,0.15-0.14
		C339.24,14.41,339.18,14.45,339.13,14.5z M347.87,59.77c0-0.02-0.01-0.03-0.02-0.04c0.01,0.02,0.01,0.03,0.01,0.04
		c0.03,0.03,0.05,0.06,0.06,0.1C347.91,59.83,347.89,59.8,347.87,59.77z M348.15,74.4c-0.03,0.11-0.06,0.23-0.09,0.35
		C348.09,74.63,348.12,74.52,348.15,74.4c0.05-0.18,0.1-0.37,0.15-0.57C348.25,74.03,348.2,74.22,348.15,74.4z M348.93,8.84
		c0.36-0.08,0.71-0.13,1.07-0.16C349.64,8.72,349.29,8.76,348.93,8.84z M354.06,9.02c-0.06-0.01-0.12-0.03-0.18-0.04
		c0.06,0.01,0.12,0.03,0.18,0.05c0.06,0.02,0.12,0.04,0.19,0.06C354.18,9.07,354.12,9.05,354.06,9.02z M357.76,10.77
		c-0.02-0.02-0.03-0.02-0.05-0.02c-0.02-0.02-0.04-0.04-0.07-0.05c0.03,0.01,0.05,0.03,0.07,0.06c0.02,0,0.03,0,0.05,0.02
		c0.04,0.03,0.08,0.06,0.13,0.09C357.84,10.84,357.8,10.81,357.76,10.77z M380.08,91.2c-0.01-0.04-0.02-0.07-0.04-0.11
		c0.01,0.04,0.02,0.07,0.03,0.11c0.45,1.21,1.18,2.32,2.16,3.27C381.26,93.52,380.52,92.41,380.08,91.2z M382.23,94.47
		c0.36,0.36,0.76,0.69,1.19,0.99C382.99,95.15,382.59,94.82,382.23,94.47z M384.48,80.72c0.41-0.34,0.83-0.66,1.26-0.96
		C385.31,80.05,384.89,80.38,384.48,80.72z M385.82,96.74c-0.88-0.34-1.68-0.78-2.4-1.28c0.72,0.51,1.52,0.95,2.4,1.29
		c0.1,0.04,0.2,0.08,0.3,0.12C386.02,96.83,385.92,96.79,385.82,96.74z M401.2,46.39c0,0.01,0,0.01,0,0.02
		c0.74-0.55,1.47-1.08,2.18-1.62C402.67,45.32,401.94,45.85,401.2,46.39z M410.74,19.82c-0.04-0.05-0.07-0.1-0.11-0.16
		c0.03,0.06,0.07,0.11,0.1,0.16c0.32,0.49,0.61,1,0.87,1.51C411.35,20.82,411.06,20.31,410.74,19.82z M418.53,67.68
		c0.38-0.22,0.74-0.47,1.09-0.76C419.27,67.2,418.91,67.46,418.53,67.68z M423.94,56.48c-0.31,0.37-0.63,0.74-0.96,1.1
		c0.33-0.36,0.66-0.73,0.97-1.1c1.93-2.27,3.67-4.64,5.24-7.09C427.61,51.84,425.86,54.21,423.94,56.48z"/>
	<path class="st0" d="M463.43,63.92c-0.23-1.86-0.63-3.69-1.24-5.42c-0.91-2.65-2.27-5.09-4.24-7.28c-0.13-0.14-0.25-0.26-0.35-0.37
		c-1.15-1.25-1.34-1.15-3.23,0.11c0.25-0.79,0.4-1.34,0.59-1.86c2.08-6.26,4.2-12.49,6.2-18.75c1.31-4.16,1.9-8.38-0.08-12.5
		c-1.38-2.87-3.28-5.05-5.58-6.64c-2.38-1.67-5.2-2.72-8.36-3.2c-2.61-0.4-5.25-0.52-7.85-0.38c-2.31,0.11-4.59,0.42-6.84,0.9
		c-1.62,0.34-3.23,0.77-4.82,1.28c-1.92,0.61-2.04,0.95-1.11,2.74c0.26,0.51,0.54,1.01,0.78,1.5c0.16,0.33,0.32,0.66,0.52,1.1
		c-0.2-0.04-0.37-0.03-0.44-0.09c-1.05-0.97-2.17-1.75-3.33-2.35c-3.76-1.97-8-2.16-12.31-1.75c-3.52,0.32-7,1.14-10.46,1.89
		c-2.55,0.56-2.55,0.71-1.85,3.16c-1.61-0.27-3.18-0.58-4.74-0.76c-4.63-0.56-9.24-0.36-13.83,0.6c-2.69,0.59-4.95,1.93-6.93,4.12
		l-0.97,0.11l-0.78,0.09c-0.02-0.06-0.04-0.14-0.05-0.22c-0.52-2.48-1.33-4.91-2.43-7.29c-4.18-9.04-13-13.34-22.78-11.46
		c-5.02,0.96-9.19,3.19-12.86,6.59c-0.44,0.43-0.95,0.78-1.44,1.17c-0.11,0.09-0.26,0.15-0.54,0.33c-0.39-0.44-0.77-0.89-1.19-1.3
		c-6.63-6.9-14.66-9.37-23.94-7.25c-9.35,2.16-15.55,7.93-18.09,17.28c-0.49,1.86-0.54,3.88-0.47,5.82c0.09,2.33,1,2.8,3.26,2.7
		c3.11-0.14,6.26-0.27,9.37-0.02c3.1,0.25,3.84,1.52,2.89,4.51c-2,6.38-4.08,12.73-6.18,19.08c-0.8,2.44-1.74,4.83-2.53,7.28
		c-0.34,1.05-0.95,1.56-1.96,1.9c-5.32,1.81-9.87,4.63-13.4,8.73c-0.18-0.54-0.39-1.08-0.61-1.63c-2.21-5.04-5.55-9.21-11.34-10.22
		c-6-1.03-11.61,0.05-16.1,4.62c-0.22,0.22-0.45,0.42-0.73,0.65c-1.78-0.9-2.74-2.07-2.83-4.27c-0.11-2.9-0.34-5.96-1.4-8.61
		c-2-5.1-6.61-7.23-11.6-8.55c-4.62-1.23-9.29-0.96-13.96-0.19c-6.49,1.08-12.99,2.13-19.5,3.23c-0.87,0.15-1.28-0.15-1.7-0.87
		c-5.42-9.17-17.04-13.74-27.29-10.78c-0.05,0-0.11,0.02-0.15,0.03c-3.3,0.99-3.98,2.55-2.31,5.76c-0.43-0.2-0.72-0.28-0.97-0.43
		c-5.78-3.19-11.85-4.37-18.34-2.79c-0.65,0.15-1.28,0.39-1.9,0.63c-2.47,1.03-3.06,2.7-1.48,4.88c3.01,4.2,3.71,8.72,2.34,13.63
		c-0.2,0.71-0.24,1.58-1.37,1.52c-1.01-0.03-1.77-0.17-2.14-1.34c-0.14-0.46-0.93-1.11-1.36-1.06c-7.48,0.91-13.46,7.54-11.5,15.53
		c0.22,0.93,0.66,1.83,0.98,2.68c-2.53-0.15-5.06-0.64-7.53-0.4c-4.13,0.4-8.23,1.19-12.33,1.96c-1.94,0.39-2.1,0.99-1.15,2.78
		c0.27,0.52,0.52,1.06,0.69,1.4c-2.2-1.03-4.4-2.4-6.79-3.08c-2.37-0.69-4.95-0.71-7.58-1.04c0.11-1.33,0.24-2.9,0.32-4.47
		c0.36-6.12-0.57-12-3.15-17.59c-4.18-9.05-13-13.35-22.78-11.48c-5.02,0.98-9.18,3.21-12.85,6.6c-0.45,0.42-0.97,0.79-1.44,1.18
		c-0.11,0.09-0.27,0.15-0.55,0.31c-0.38-0.42-0.77-0.87-1.19-1.3c-6.63-6.88-14.66-9.37-23.94-7.23
		C24.96,40.24,18.76,46,16.22,55.35c-0.49,1.86-0.54,3.89-0.46,5.83c0.07,2.31,0.99,2.8,3.25,2.69c3.11-0.13,6.26-0.26,9.37-0.03
		c3.09,0.27,3.84,1.54,2.9,4.52c-2,6.38-4.1,12.72-6.18,19.08c-0.81,2.43-1.75,4.84-2.54,7.28c-0.34,1.04-0.95,1.56-1.95,1.9
		c-6.82,2.31-12.38,6.29-16.15,12.5c-8.5,13.97-4.54,30.92,9.24,39.78c8.97,5.77,18.89,7.71,29.36,7.3
		c9.23-0.37,17.99-2.71,26.24-6.88l0.02-0.01c0.16-0.06,2.64-1.17,6.62-3.75c3.96-2.6,9.43-6.69,15.54-12.76
		c1.38,1.89,4.22,4.01,10.05,4.01c2.47,0,4.46-0.28,6.1-0.7c0.33-0.07,0.62-0.17,0.92-0.26c0.29-0.1,0.57-0.19,0.85-0.3
		c0.13-0.04,0.25-0.11,0.37-0.15c0.04-0.01,0.07-0.03,0.11-0.04c0.15-0.07,0.3-0.13,0.44-0.2h0.01c0.17-0.08,0.34-0.16,0.5-0.24
		c0.1-0.06,0.21-0.12,0.31-0.19c0.2-0.11,0.4-0.21,0.57-0.33c0.11-0.07,0.2-0.15,0.31-0.21c0.19-0.12,0.37-0.26,0.54-0.4
		c0.08-0.06,0.17-0.12,0.23-0.2c0.12-0.1,0.25-0.21,0.34-0.31c0.07-0.05,0.11-0.1,0.16-0.14c0.07-0.08,0.13-0.14,0.19-0.22
		c0.04-0.03,0.07-0.06,0.09-0.09c0.06-0.07,0.1-0.13,0.15-0.19c0.19-0.21,0.31-0.4,0.4-0.54c0.03-0.04,0.05-0.09,0.08-0.12
		c0.02-0.04,0.02-0.05,0.03-0.06c0.02-0.04,0.03-0.05,0.03-0.06c0,0,6.95,3.89,12.95,3.61h0.02c5.99-0.3,12.14-3.38,12.14-3.38
		c1.13-0.85,1.88-0.76,3.09-0.1c4.97,2.77,10.13,2.39,15.21,0.33c1.92-0.79,3.65-2.09,5.51-3.07c0.39-0.22,1.08-0.31,1.44-0.11
		c6.8,4.02,13.15,2.45,19.3-1.53c1.36-0.88,2.6-1.99,3.96-3.07c6.01,5.1,12.96,3.92,19.87,2.83c6.4-1.04,12.26-3.48,17.5-7.27
		c7,4.6,14.46,3.92,22.02,2.34c1.17-0.25,1.5-0.92,1.21-2.17c-0.66-2.79-1.23-5.62-1.63-8.46c-0.45-3.12,0.25-6.12,1.63-9.1
		c3.7,1.14,7.44,1.24,11.19,0.82c6.01-0.68,10.64-3.51,14.31-7.73c2,6.21,6.19,11.8,12.36,15.77c8.96,5.77,18.89,7.72,29.36,7.31
		c9.23-0.37,17.99-2.73,26.25-6.89h0.01v-0.02c0.31-0.12,9.93-4.39,22.16-16.49l5.7-5.84c-0.09,3.67,1.33,7.12,4.01,9.94
		c0.95,0.98,2.03,1.88,3.28,2.68c6.18,4,13.08,5.04,20.27,4.74c8.83-0.36,16.63-3.87,24.42-7.65c1.9-0.91,3.69-1.9,5.42-3
		c4.52-2.87,8.41-6.43,11.56-10.96c0.44-0.58,1.38-1.06,2.15-1.15c0.36-0.05,0.7-0.1,1.05-0.16c5.55-0.82,10.67-2.69,15.04-6.36
		C461.28,74.14,464.21,69.79,463.43,63.92z M91.53,66.33c-0.31,5.66-1.97,10.83-5.47,15.24c-2.07,2.65-4.61,4.94-6.95,7.39
		c0.35,0.12,0.97,0.33,1.59,0.54c1.51,0.53,2.84,1.19,4,1.99c0.57,0.4,1.11,0.83,1.6,1.3c2.45,2.35,3.83,5.6,4.22,9.77
		c1.02,10.71-3.2,19.51-10.4,27.13c-0.13,0.13-0.25,0.27-0.39,0.43c-0.12,0.14-0.28,0.3-0.42,0.43c-0.06,0.08-0.12,0.14-0.18,0.2
		c-4.63,4.62-14.85,10.36-15.53,10.75c-0.04,0.02-0.05,0.02-0.05,0.02c-6.82,3.36-14.08,5.2-21.67,5.91
		c-7.55,0.7-14.74-0.31-21.41-4.09c-6.83-3.84-10.27-9.85-11.32-17.5c-0.98-7.09,1-13.1,6.06-18.08c2.27-2.22,5.03-3.47,8.34-3.8
		c-0.75,2.9-1.64,5.6-2.12,8.38c-1.24,7.25-0.72,14.28,3.67,20.51c3.82,5.38,9.09,7.86,15.79,7.5c6.82-0.35,13.24-1.85,18.81-5.88
		c9.22-6.66,14.89-15.58,16.67-26.87c0.46-2.94,0.4-5.83-0.39-8.7c-1.07-3.92-4.33-5.37-8.04-3.64c-0.6,0.28-1.2,0.58-1.8,0.89
		c-1.19,0.61-2.38,1.23-3.6,1.73c-0.61,0.26-1.23,0.48-1.86,0.66c-4.87,1.44-10.84-1.02-12.65-5.48c0.59-0.27,1.18-0.56,1.78-0.84
		c0.59-0.29,1.18-0.57,1.78-0.85c1.19-0.56,2.39-1.11,3.6-1.59c7.66-2.99,13.84-7.88,18.34-14.71c3.52-5.34,4.76-11.31,3.71-17.66
		c-0.37-2.3-1.44-2.83-3.73-2.32c-2.73,0.61-4.84,2.2-6.8,4.05c-6.72,6.31-11.77,13.68-15.29,22.29
		c-4.91,12.04-9.07,24.34-13.24,36.64c-1.36,4.03-1.33,8.18-1.06,12.42c-6.71,1.83-12.77-2.44-13.44-9.15
		c-0.29-2.79,0.21-5.37,1.12-7.98c4.97-14.29,9.96-28.59,14.87-42.91c1.69-4.9,1.13-9.43-2.99-13.05c-1.92-1.72-4.28-2.4-6.78-2.53
		c-1.69-0.09-3.4-0.01-5.25-0.01c0.14-0.34,0.2-0.75,0.4-1.04c3.14-4.55,7.34-7.32,12.93-7.97c0.3-0.04,0.6-0.07,0.89-0.1
		c0.22-0.02,0.45-0.04,0.67-0.06c0.31-0.02,0.63-0.04,0.94-0.06h0.06c0.29-0.02,0.59-0.03,0.88-0.03c0.62,0,1.24,0.03,1.86,0.09
		c0.01,0,0.01,0,0.02,0c0.39,0.04,0.78,0.1,1.16,0.17c0.39,0.07,0.78,0.17,1.16,0.28c0.19,0.05,0.39,0.11,0.58,0.18
		c5.7,1.96,8.62,6.2,9.68,11.91c0.3,1.59,0.37,3.21,0.57,5.07c1.99-2.41,3.77-4.71,5.67-6.91c2.76-3.21,5.78-6.16,9.42-8.39
		c6.71-4.09,14.31-1.87,17.79,5.14C91.41,57.32,91.79,61.75,91.53,66.33z M262.45,93.7c-4.05,2.66-10.52,2.1-13.71-0.89
		c-0.26-0.23-0.47-0.52-0.69-0.77c6.21-1.54,8.06-6.52,9.79-11.56c0.11-0.34,0.22-0.67,0.34-1.01c0.12-0.32,0.21-0.65,0.3-0.99
		c0.25-1,0.39-2.05,0.54-3.06c0.06-0.54-0.2-1.11-0.37-2.06c-0.98,0.86-1.72,1.34-2.23,2c-4.91,6.38-10.02,12.65-13.81,19.82
		c-1.92,3.65-3.77,7.38-4.21,11.48c-0.29,2.63,0.18,5.36,0.32,8.12c-4.6,0.99-9.53-1.37-12.7-6.43c-1.9,1.64-3.75,3.34-5.74,4.86
		c-6.52,4.95-14.02,6.88-22.12,6.58c-4.44-0.15-8.14-3.41-9.4-8.3c-0.82,0.98-1.54,1.84-2.29,2.69c-2.41,2.87-5.13,5.41-8.65,6.8
		c-4.39,1.74-10.78,2.02-13.74-4.1c-1.92,1.66-3.76,3.47-5.84,4.96c-3.33,2.36-7.06,3.23-11.12,2.3c-2.09-0.49-3.71-1.67-4.83-3.55
		c-0.28-0.48-0.54-0.94-0.85-1.5c-1.69,1.5-3.16,3.02-4.85,4.28c-4.01,3.02-8.47,4.46-13.56,3.56c-1.03-0.18-1.96-0.48-2.77-0.89
		c-0.61-0.31-1.16-0.69-1.64-1.12c-1.43-1.31-2.26-3.17-2.37-5.52c-0.04-0.71,0-1.42,0-2.49c-1.46,1.94-2.74,3.66-4.08,5.35
		c-1.2,1.52-2.37,3.12-3.71,4.51c-0.84,0.87-1.67,1.56-2.49,2.06c-0.21,0.13-0.42,0.25-0.62,0.35c-0.26,0.13-0.52,0.25-0.77,0.35
		c-0.17,0.07-0.35,0.13-0.52,0.18c-0.15,0.04-0.3,0.07-0.44,0.1c-0.1,0.03-0.2,0.05-0.3,0.06c-0.69,0.12-1.37,0.11-2.04-0.02
		c-0.12-0.01-0.24-0.04-0.36-0.08c-0.12-0.02-0.25-0.05-0.37-0.1c-0.04-0.01-0.09-0.02-0.13-0.04c-0.17-0.05-0.33-0.11-0.49-0.19
		c-0.61-0.24-1.21-0.59-1.8-1.02c-0.82-0.6-1.63-1.36-2.43-2.27c-3.98-4.55-4.82-10.01-3.09-15.6c1.75-5.67,4.04-11.15,6.21-16.67
		c1.23-3.08,1.99-6.19,1.29-9.46c-0.31-1.41-0.99-2.76-1.53-4.22c4.55-0.21,8.84,0.75,12.26,4.13c2.4,2.37,2.67,5.54,1.76,8.52
		c-1.37,4.51-3.25,8.9-4.97,13.33c-1.27,3.3-2.72,6.51-3.83,9.86c-0.45,1.37-0.38,2.96-0.23,4.42c0.24,2.1,1.59,2.68,3.38,1.55
		c3.44-2.17,5.67-5.48,8.02-8.68c4.68-6.36,7.21-13.76,9.89-21.08c2.07-5.63,1.96-6.37-0.89-14.15c4.71-0.42,9.12,0.06,12.88,3.3
		c2.67,2.31,3.66,5.23,2.66,8.46c-1.86,5.99-4.08,11.87-6.14,17.82c-1.22,3.58-2.47,7.14-3.58,10.76c-0.21,0.67-0.07,1.76,0.38,2.23
		c0.35,0.39,1.45,0.39,2.1,0.19c3.52-1.02,5.51-3.96,7.88-6.44c0.17-0.2,0.22-0.59,0.19-0.88c-0.23-3.89,1.1-7.47,2.3-11.07
		c3.66-10.74,7.32-21.49,10.97-32.23c0.2-0.62,0.33-1.27,0.53-2.06c-1.5,0.09-2.84,0.26-4.15,0.25c-1.55,0-3.1-0.08-4.63-0.31
		c-2.02-0.3-3.47-1.63-3.75-3.17c-0.28-1.61,0.16-3.04,1.27-4.15c0.29-0.3,0.63-0.57,1.02-0.82v0.01c0.33,0.58,0.68,1.05,1.07,1.41
		c0.26,0.24,0.55,0.43,0.85,0.57c0.16,0.07,0.31,0.13,0.48,0.18c0.33,0.09,0.69,0.14,1.08,0.14c0.25,0,0.52-0.02,0.8-0.06
		c2.55-0.34,5.08-0.76,7.61-1.21c0.05-0.01,0.1-0.02,0.15-0.03c0.15-0.05,0.31-0.12,0.46-0.21c0.09-0.06,0.18-0.13,0.25-0.2
		c0.07-0.08,0.13-0.15,0.15-0.23c0.87-2.57,1.79-5.12,2.4-7.75c0.84-3.75,0.05-7.33-1.87-10.65c-0.1-0.18-0.16-0.36-0.3-0.67
		c4.34,0.45,7.84,2.29,10.73,5.34c3.01,3.16,3.58,7.14,3.6,11.43c2.11-0.45,4.16-0.88,6.19-1.34c0.68-0.16,1.35-0.32,2.02-0.48
		c0.08-0.02,0.16-0.06,0.24-0.13c0.24-0.21,0.44-0.59,0.56-0.88c2.08-5.22,2.54-10.42-0.29-15.57c-0.07-0.12-0.05-0.27-0.11-0.6
		c2.37,0.11,4.43,0.79,6.29,1.89c0.74,0.44,1.46,0.95,2.15,1.52c0.35,0.28,0.69,0.58,1.02,0.89v0.01c0.17,0.15,0.34,0.32,0.5,0.49
		c2.39,2.49,3.51,5.5,3.93,9.02c3.7-0.72,7.25-1.39,10.79-2.13c7.5-1.56,15.01-2.83,22.66-3.39c2.88-0.22,5.51,0.03,8.04,1.36
		c4.11,2.15,5.28,4.82,5.17,9.81c-0.02,0.6-0.2,1.2-0.24,1.39c-3.87-0.45-7.65-1.1-11.47-1.31c-8.54-0.43-16.93,0.56-25.25,2.13
		c-2.55,0.48-5.08,1.01-7.62,1.57c-0.63,0.14-1.27,0.29-1.9,0.43c-0.07,0.02-0.14,0.04-0.22,0.06c-0.22,0.09-0.45,0.23-0.66,0.39
		c-0.07,0.05-0.14,0.12-0.19,0.18c-0.19,0.18-0.33,0.38-0.4,0.58c-4.28,12.15-8.55,24.31-12.73,36.51c-1.36,3.96-2.47,8-3.65,12.03
		c-0.18,0.62-0.25,1.32-0.22,1.97c0.06,1.25,0.79,2.15,2.08,1.89c0.46-0.1,0.94-0.23,1.41-0.39c0.31-0.11,0.62-0.23,0.92-0.37
		c0.45-0.21,0.88-0.46,1.25-0.76c3.31-2.6,5-6.23,5.42-10.35c0.69-6.82,2.63-13.06,5.8-18.69c0.17-0.3,0.34-0.59,0.51-0.89
		c0.35-0.58,0.71-1.16,1.09-1.73c0.19-0.28,0.38-0.57,0.57-0.85c0.39-0.56,0.79-1.12,1.21-1.67c0-0.01,0-0.01,0-0.01
		c0.41-0.55,0.84-1.09,1.29-1.63c0.23-0.27,0.45-0.53,0.68-0.8c0.22-0.27,0.45-0.53,0.7-0.79c0.47-0.52,0.95-1.04,1.45-1.55
		c0.25-0.26,0.5-0.51,0.75-0.76h0.01c5.45-5.33,12.06-6.8,19.34-4.04c4.25,1.62,5.75,4.75,4.54,9.26
		c-1.77,6.5-6.03,11.1-11.54,14.66c-3.55,2.28-7.48,3.55-11.57,4.43c-0.49,0.12-1.11,0.7-1.25,1.18c-0.47,1.5-0.86,3.02-1.22,4.55
		c-0.12,0.52-0.23,1.03-0.34,1.54c-0.03,0.11-0.05,0.21-0.06,0.32c-0.04,0.21-0.06,0.43-0.07,0.63c-0.04,0.71,0.05,1.39,0.25,2.04
		c0.27,0.91,0.77,1.74,1.42,2.42c0.26,0.27,0.55,0.52,0.86,0.74c0.2,0.15,0.42,0.28,0.64,0.4c0.28,0.15,0.57,0.27,0.88,0.37
		c0.69,0.23,1.44,0.33,2.22,0.26c5.16-0.43,10.25-1.36,14.42-4.73c1.93-1.55,3.44-3.62,5.11-5.49c0.29-0.32,0.56-0.81,0.58-1.24
		c0.39-4.92,3.05-9.09,4.57-13.63c1.74-5.14,3.36-10.3,4.91-15.48c0.7-2.31-0.03-4.85-1.84-7.95c3.25-0.94,6.43-0.85,9.46,0.56
		c0.29,0.13,0.58,0.28,0.86,0.44c0.56,0.3,1.11,0.65,1.64,1.02c0.26,0.18,0.52,0.37,0.78,0.56c2.59,1.91,3.23,4.56,2.47,7.55
		c-0.67,2.67-1.54,5.28-2.03,8.11c0.65-0.85,1.33-1.65,1.93-2.54c2.99-4.35,5.89-8.78,8.97-13.06c0.11-0.15,0.21-0.29,0.32-0.43
		c0.22-0.27,0.44-0.53,0.68-0.77c1.99-2.09,4.5-2.98,7.46-2.21c0.24,0.06,0.48,0.13,0.72,0.21c1.22,0.41,2.25,0.99,3.09,1.72
		c1.87,1.59,2.86,3.87,3.09,6.54C273.19,81.85,269.8,88.82,262.45,93.7z M364.17,29c-0.31,5.65-1.97,10.82-5.47,15.24
		c-0.17,0.21-0.34,0.43-0.53,0.65c-0.13,0.18-0.27,0.35-0.43,0.52c-0.19,0.21-0.37,0.42-0.57,0.64c-0.09,0.12-0.22,0.23-0.31,0.35
		c-0.05,0.05-0.11,0.11-0.16,0.17c-0.01,0.02-0.03,0.04-0.04,0.05l-0.02,0.01c-0.28,0.3-0.55,0.58-0.82,0.87
		c-0.28,0.28-0.56,0.56-0.83,0.86l-0.56,0.56c-0.3,0.31-0.61,0.59-0.9,0.89c-0.29,0.31-0.6,0.61-0.9,0.92
		c-0.29,0.29-0.58,0.6-0.88,0.89c0.19,0.06,0.42,0.16,0.69,0.25h0.02c0.28,0.1,0.59,0.18,0.89,0.3c0.18,0.07,0.37,0.13,0.55,0.21
		c0.19,0.06,0.38,0.14,0.54,0.22c0.17,0.06,0.36,0.14,0.53,0.23c0.15,0.04,0.29,0.13,0.44,0.2c0.02,0.02,0.06,0.02,0.09,0.05
		c0.01,0,0.03,0.02,0.04,0.02c0.14,0.07,0.3,0.13,0.42,0.21c0.33,0.17,0.64,0.36,0.93,0.56c0.13,0.07,0.27,0.16,0.37,0.24
		c0.02,0,0.03,0.02,0.05,0.02c0.03,0.03,0.06,0.05,0.11,0.08c0.2,0.14,0.38,0.28,0.56,0.44c0.11,0.06,0.19,0.13,0.29,0.22
		c0.08,0.05,0.17,0.13,0.25,0.21c0.14,0.12,0.28,0.25,0.41,0.38c0.13,0.11,0.25,0.24,0.37,0.36c0.14,0.15,0.3,0.31,0.44,0.48
		c0.06,0.08,0.12,0.16,0.18,0.23c0.15,0.18,0.29,0.34,0.41,0.51c0.08,0.11,0.15,0.2,0.23,0.33c0.18,0.28,0.37,0.57,0.54,0.86
		c0.06,0.1,0.13,0.19,0.18,0.3c0.02,0.06,0.07,0.12,0.08,0.19c0.1,0.15,0.18,0.31,0.25,0.46c0.08,0.15,0.16,0.33,0.22,0.48
		c0.05,0.12,0.11,0.25,0.15,0.38c0,0.02,0.02,0.04,0.02,0.05c0.03,0.05,0.03,0.08,0.05,0.13c0.06,0.14,0.12,0.28,0.17,0.44
		c0.07,0.25,0.17,0.5,0.23,0.75c0.02,0.02,0.02,0.05,0.03,0.08c0.06,0.21,0.12,0.45,0.17,0.68c0.02,0.03,0.03,0.06,0.03,0.11
		c0.05,0.17,0.1,0.35,0.13,0.55c0.02,0.02,0.02,0.04,0.02,0.07c0.02,0.09,0.04,0.17,0.05,0.25c0.02,0.09,0.02,0.17,0.03,0.25
		c0.05,0.19,0.08,0.38,0.1,0.56c0.06,0.41,0.13,0.82,0.15,1.26c1.03,10.73-3.2,19.51-10.41,27.13c-0.04,0.05-0.07,0.09-0.1,0.13
		c0,0,0,0.01-0.02,0.01c0,0.01-0.01,0.03-0.05,0.06c-0.12,0.14-0.24,0.28-0.4,0.44c-0.06,0.07-0.13,0.15-0.23,0.24
		c-0.06,0.07-0.13,0.13-0.19,0.19s-0.1,0.11-0.15,0.17c-0.41,0.37-0.82,0.77-1.29,1.16c-0.33,0.29-0.69,0.59-1.08,0.9
		c-0.49,0.4-1,0.79-1.53,1.18c-0.51,0.38-1.04,0.77-1.58,1.14c-0.14,0.11-0.3,0.22-0.45,0.31c-0.05,0.03-0.09,0.06-0.14,0.09
		c-0.17,0.13-0.35,0.27-0.54,0.37c-0.21,0.15-0.39,0.29-0.59,0.41c-0.15,0.09-0.3,0.19-0.44,0.27c-0.2,0.16-0.41,0.29-0.62,0.42
		c-0.08,0.07-0.16,0.12-0.26,0.18c-0.26,0.17-0.54,0.33-0.8,0.51c-0.27,0.17-0.52,0.33-0.77,0.49c-0.25,0.16-0.5,0.31-0.75,0.47
		c-0.18,0.1-0.37,0.23-0.54,0.34c-0.36,0.21-0.7,0.42-1.02,0.62c-0.12,0.06-0.25,0.14-0.36,0.2c-0.23,0.13-0.46,0.28-0.67,0.4
		c-0.09,0.04-0.2,0.11-0.29,0.17c-0.11,0.06-0.23,0.14-0.33,0.18c-0.18,0.12-0.35,0.21-0.49,0.3c-0.03,0.01-0.04,0.01-0.06,0.03
		c-0.07,0.03-0.11,0.06-0.16,0.08c-0.03,0.03-0.05,0.04-0.07,0.06c-0.04,0.02-0.06,0.03-0.11,0.05c0,0.02-0.02,0.02-0.04,0.03
		c-0.2,0.12-0.33,0.2-0.4,0.23c-0.01,0-0.03,0.02-0.03,0.02h-0.02c-0.63,0.32-1.26,0.62-1.91,0.89c-0.16,0.06-0.32,0.14-0.45,0.21
		c-0.13,0.06-0.27,0.1-0.39,0.16c-0.01,0-0.02,0.01-0.03,0.02c-0.01,0-0.02,0.01-0.03,0.02c-0.03,0-0.05,0.01-0.08,0.01
		c-0.31,0.14-0.65,0.28-0.98,0.42c-0.17,0.07-0.33,0.13-0.49,0.2c-0.2,0.06-0.39,0.14-0.57,0.22c-0.18,0.04-0.33,0.12-0.5,0.17
		c-0.32,0.12-0.65,0.25-0.98,0.36c-0.07,0.01-0.15,0.04-0.22,0.07c-0.15,0.06-0.31,0.11-0.48,0.16c-0.16,0.06-0.33,0.12-0.49,0.17
		c-0.1,0.03-0.2,0.06-0.29,0.09c-0.09,0.03-0.19,0.06-0.28,0.09c-0.04,0.01-0.08,0.02-0.11,0.03c-0.02,0.01-0.04,0.02-0.06,0.02
		c-0.02,0.01-0.04,0.02-0.05,0.02c-0.15,0.04-0.29,0.09-0.44,0.13c-0.15,0.04-0.29,0.09-0.44,0.13c-0.72,0.22-1.47,0.41-2.2,0.59
		c-0.37,0.09-0.74,0.18-1.12,0.28c-0.46,0.09-0.93,0.2-1.39,0.29c-1.05,0.22-2.1,0.42-3.17,0.59c-0.31,0.04-0.65,0.09-0.98,0.14
		c-0.03,0.01-0.04,0.01-0.09,0.01h-0.06c-0.54,0.1-1.1,0.16-1.65,0.22c-0.57,0.08-1.14,0.14-1.73,0.19
		c-7.56,0.71-14.74-0.3-21.41-4.08c-0.14-0.07-0.29-0.17-0.44-0.25c-0.13-0.08-0.28-0.18-0.43-0.26c-0.26-0.17-0.55-0.36-0.82-0.54
		c-0.41-0.26-0.79-0.54-1.17-0.83c-0.15-0.13-0.31-0.25-0.46-0.38c-0.03-0.01-0.06-0.05-0.09-0.06c-0.19-0.16-0.36-0.31-0.53-0.46
		c-0.23-0.21-0.47-0.41-0.68-0.62c-0.12-0.11-0.23-0.21-0.34-0.33l-0.31-0.31c-0.02-0.01-0.02-0.03-0.03-0.04
		c-0.2-0.21-0.38-0.42-0.59-0.62v-0.02c-0.28-0.33-0.56-0.65-0.82-1.01c-0.28-0.35-0.54-0.72-0.81-1.09
		c-0.06-0.11-0.14-0.22-0.21-0.35c-0.1-0.15-0.2-0.31-0.3-0.48c-0.11-0.16-0.2-0.32-0.29-0.51c-0.02,0-0.02-0.01-0.02-0.03
		c-0.11-0.17-0.2-0.35-0.31-0.54c-0.09-0.19-0.18-0.39-0.27-0.57c-0.1-0.19-0.19-0.37-0.29-0.57c-0.08-0.19-0.16-0.37-0.24-0.58
		c-0.02-0.02-0.02-0.03-0.02-0.04c-0.09-0.22-0.18-0.44-0.26-0.64c-0.06-0.16-0.11-0.31-0.17-0.47c-0.06-0.15-0.11-0.29-0.15-0.44
		c-0.02-0.02-0.02-0.02-0.02-0.04c-0.11-0.29-0.2-0.6-0.29-0.89c-0.02-0.05-0.04-0.1-0.04-0.14c-0.09-0.31-0.18-0.62-0.26-0.93
		c-0.03-0.14-0.06-0.3-0.11-0.43c-0.02-0.16-0.06-0.31-0.09-0.47c-0.05-0.15-0.08-0.29-0.11-0.45c-0.03-0.19-0.07-0.39-0.11-0.57
		c-0.04-0.26-0.09-0.51-0.12-0.77c-0.03-0.13-0.05-0.25-0.06-0.4c-0.03-0.12-0.05-0.24-0.07-0.37v-0.01
		c-0.97-7.08,1.01-13.09,6.08-18.07c0.77-0.76,1.61-1.41,2.51-1.95c0.23-0.13,0.44-0.26,0.68-0.37c0.69-0.38,1.42-0.67,2.19-0.9
		c0.38-0.11,0.75-0.22,1.13-0.29c0.3-0.07,0.6-0.13,0.91-0.18c0.21-0.03,0.44-0.06,0.68-0.09c0.07,0,0.15-0.02,0.22-0.02
		c-0.74,2.9-1.63,5.59-2.12,8.36c-0.64,3.76-0.81,7.45-0.21,11.01c0.15,0.9,0.35,1.8,0.6,2.68c0.26,0.88,0.57,1.76,0.93,2.62
		c0.13,0.29,0.26,0.57,0.39,0.86c0.54,1.13,1.19,2.25,1.96,3.34v0.02c0.09,0.12,0.18,0.23,0.27,0.34c0.04,0.06,0.08,0.12,0.13,0.17
		c0.05,0.06,0.09,0.11,0.14,0.17c0.08,0.12,0.16,0.23,0.25,0.34c0.08,0.1,0.18,0.21,0.27,0.31v0.01c0.07,0.11,0.17,0.21,0.26,0.31
		c0.1,0.11,0.19,0.22,0.28,0.31c0.17,0.2,0.36,0.41,0.56,0.59c0.13,0.14,0.25,0.26,0.39,0.39c0.09,0.07,0.18,0.17,0.27,0.26
		c0.21,0.17,0.41,0.36,0.61,0.53c0.22,0.18,0.44,0.35,0.67,0.52c0.01,0.02,0.04,0.02,0.06,0.05c0.09,0.06,0.2,0.14,0.31,0.21
		c0.1,0.08,0.2,0.15,0.31,0.23c0.21,0.13,0.43,0.27,0.66,0.41c0.02,0,0.03,0.02,0.05,0.03c0.12,0.07,0.24,0.14,0.36,0.21
		s0.24,0.13,0.37,0.19c0.18,0.11,0.37,0.21,0.57,0.3c0.06,0.03,0.12,0.06,0.2,0.1c0,0,0.03,0.01,0.05,0.01
		c0.21,0.11,0.46,0.2,0.69,0.31c0.24,0.09,0.48,0.17,0.73,0.26c0.01,0,0.03,0.01,0.04,0.01c0.01,0.01,0.01,0.01,0.02,0.01
		s0.01,0,0.02,0.01c0.22,0.06,0.43,0.14,0.65,0.2c0.04,0.02,0.08,0.02,0.12,0.03c0.28,0.08,0.54,0.16,0.83,0.22
		c0.24,0.06,0.51,0.13,0.77,0.17h0.06c0.26,0.04,0.54,0.09,0.8,0.13c0.04,0,0.05,0,0.07,0.01c0.43,0.06,0.87,0.1,1.32,0.13
		c0.85,0.05,1.74,0.06,2.64,0.01c0.77-0.05,1.53-0.09,2.29-0.17c0.74-0.07,1.47-0.15,2.22-0.25c0.74-0.1,1.47-0.23,2.19-0.37
		c0.02,0,0.05-0.02,0.09-0.02c0.35-0.07,0.69-0.13,1.03-0.23c0.37-0.08,0.73-0.17,1.09-0.26c0.57-0.14,1.14-0.31,1.7-0.48
		c0.42-0.14,0.83-0.28,1.25-0.43c0.42-0.16,0.84-0.31,1.24-0.48c0.28-0.13,0.56-0.24,0.82-0.36c0.37-0.17,0.76-0.36,1.12-0.53
		c0.37-0.2,0.74-0.39,1.11-0.59c0.9-0.52,1.8-1.08,2.67-1.71c0.23-0.17,0.46-0.33,0.68-0.5c0.28-0.2,0.54-0.4,0.8-0.62
		c0.16-0.12,0.31-0.24,0.48-0.37c0.05-0.05,0.08-0.08,0.13-0.11c0.2-0.17,0.4-0.34,0.62-0.51c0.15-0.12,0.31-0.25,0.46-0.39
		c0.13-0.12,0.27-0.24,0.4-0.37c0.24-0.18,0.45-0.4,0.69-0.59c0.21-0.21,0.43-0.42,0.64-0.62c0.22-0.2,0.42-0.4,0.64-0.62
		c0.23-0.23,0.48-0.48,0.7-0.71v-0.01c0.29-0.3,0.58-0.61,0.85-0.92c0.04-0.05,0.06-0.07,0.09-0.11c0.22-0.25,0.44-0.48,0.64-0.74
		l0.09-0.09c0.1-0.13,0.22-0.27,0.33-0.41c0.2-0.25,0.41-0.49,0.62-0.76c0.2-0.26,0.39-0.52,0.58-0.79
		c0.22-0.27,0.42-0.57,0.62-0.84c0.17-0.27,0.36-0.52,0.51-0.78c0.16-0.22,0.3-0.45,0.43-0.66c0.07-0.1,0.11-0.18,0.18-0.27
		l0.37-0.62c0.26-0.43,0.51-0.86,0.74-1.32c0.09-0.18,0.2-0.35,0.3-0.53c0.46-0.91,0.89-1.82,1.28-2.75
		c0.12-0.26,0.22-0.53,0.34-0.8c0.03-0.08,0.07-0.17,0.09-0.27c0.1-0.21,0.19-0.45,0.27-0.66c0-0.04,0.02-0.06,0.03-0.1
		c0.06-0.18,0.12-0.37,0.19-0.55c0.07-0.19,0.13-0.38,0.18-0.54c0.03-0.06,0.05-0.13,0.06-0.19c0.08-0.2,0.14-0.42,0.22-0.63
		c0.04-0.19,0.11-0.36,0.16-0.55c0.06-0.23,0.13-0.46,0.19-0.69c0-0.02,0-0.04,0.02-0.05c0.03-0.12,0.06-0.24,0.09-0.35
		c0.03-0.12,0.06-0.24,0.09-0.35c0.05-0.18,0.1-0.37,0.15-0.57c0.08-0.31,0.14-0.62,0.21-0.95c0.06-0.22,0.11-0.47,0.16-0.71
		c0.04-0.28,0.1-0.54,0.15-0.82c0.06-0.36,0.13-0.71,0.19-1.08c0.46-2.93,0.4-5.84-0.39-8.7c-0.05-0.18-0.09-0.35-0.16-0.5
		c-0.01-0.02-0.01-0.03-0.01-0.05c-0.06-0.15-0.11-0.29-0.17-0.43c-0.06-0.15-0.13-0.3-0.2-0.44c0-0.01-0.01-0.04-0.03-0.06
		c-0.04-0.07-0.08-0.15-0.13-0.22c-0.01-0.04-0.03-0.07-0.06-0.1c0-0.01,0-0.02-0.01-0.04c-0.01-0.02-0.02-0.04-0.03-0.06
		c-0.06-0.1-0.14-0.21-0.22-0.32c0-0.02-0.02-0.03-0.03-0.05c-0.08-0.12-0.17-0.23-0.26-0.34c-0.1-0.12-0.21-0.21-0.3-0.32
		c-0.11-0.11-0.22-0.2-0.31-0.3c-0.09-0.06-0.17-0.12-0.25-0.18l-0.01-0.02c-0.02-0.01-0.05-0.05-0.08-0.06
		c-0.02,0-0.03-0.01-0.04-0.03c-0.1-0.05-0.18-0.11-0.29-0.17c0-0.02-0.01-0.02-0.02-0.02l-0.02-0.01
		c-0.09-0.05-0.18-0.09-0.27-0.14c-0.01,0-0.02-0.01-0.04-0.01c-0.05-0.04-0.08-0.05-0.11-0.05c-0.08-0.05-0.14-0.06-0.2-0.1
		c-0.09-0.04-0.2-0.07-0.31-0.1c-0.03-0.02-0.06-0.04-0.11-0.04c-0.12-0.04-0.23-0.07-0.36-0.09c-0.01-0.01-0.03-0.01-0.04-0.01
		h-0.04c-0.03,0-0.05-0.01-0.06-0.01c-0.02-0.01-0.04-0.01-0.06-0.01c-0.03-0.01-0.07-0.01-0.11-0.01
		c-0.08-0.02-0.18-0.04-0.29-0.04c-0.59-0.06-1.22,0-1.88,0.16c-0.12,0.03-0.25,0.06-0.37,0.09c-0.13,0.04-0.26,0.08-0.38,0.13
		c-0.06,0.02-0.11,0.04-0.17,0.06c-0.07,0.03-0.15,0.06-0.22,0.09c-0.13,0.05-0.26,0.11-0.38,0.17c-0.92,0.42-1.8,0.89-2.7,1.35
		c-0.29,0.16-0.6,0.29-0.9,0.43v0.02c-0.15,0.08-0.29,0.14-0.45,0.22c-0.06,0.02-0.12,0.06-0.18,0.07
		c-0.06,0.03-0.13,0.05-0.18,0.08c-0.01,0.02-0.01,0.02-0.02,0.02c-0.33,0.15-0.66,0.29-0.98,0.43c-0.61,0.26-1.23,0.48-1.86,0.66
		c-0.25,0.06-0.5,0.13-0.74,0.19c-0.19,0.05-0.38,0.08-0.54,0.1c-0.06,0.01-0.11,0.02-0.16,0.02h-0.06
		c-0.05,0.02-0.09,0.02-0.15,0.02c-0.04,0.02-0.06,0.03-0.1,0.02c-0.04,0-0.09,0.01-0.14,0.01c-0.11,0.01-0.21,0.01-0.32,0.03
		c-0.2,0.02-0.42,0.03-0.64,0.03c-0.39,0-0.77-0.01-1.16-0.06c-0.26-0.03-0.53-0.06-0.79-0.11c-0.26-0.04-0.52-0.09-0.77-0.15
		c-0.04-0.02-0.06-0.02-0.08-0.02c-0.27-0.08-0.54-0.15-0.8-0.23c-0.13-0.05-0.27-0.1-0.39-0.14c-0.14-0.04-0.27-0.09-0.39-0.14
		c-0.17-0.08-0.34-0.14-0.51-0.21c0,0,0-0.02-0.01-0.02c-0.18-0.06-0.33-0.16-0.49-0.23c-0.08-0.04-0.15-0.08-0.23-0.13
		c-0.08-0.05-0.17-0.09-0.25-0.13c-0.15-0.1-0.31-0.19-0.45-0.29c-0.15-0.09-0.31-0.2-0.44-0.31c-0.16-0.11-0.3-0.21-0.44-0.32
		c-0.14-0.12-0.28-0.24-0.42-0.36c-0.12-0.12-0.25-0.23-0.37-0.35c-0.09-0.1-0.19-0.21-0.28-0.31c-0.09-0.1-0.18-0.21-0.28-0.31
		c0-0.02-0.01-0.02-0.03-0.04c-0.06-0.08-0.13-0.18-0.22-0.27c-0.07-0.11-0.15-0.22-0.22-0.34c-0.09-0.11-0.15-0.24-0.22-0.34
		c-0.08-0.12-0.14-0.24-0.2-0.36c-0.08-0.12-0.13-0.25-0.19-0.36c-0.06-0.12-0.12-0.26-0.17-0.38c1.19-0.55,2.37-1.12,3.56-1.69
		c0.59-0.28,1.18-0.56,1.78-0.82c0.31-0.12,0.61-0.26,0.9-0.39c0.31-0.14,0.62-0.25,0.91-0.37c0.11-0.05,0.2-0.08,0.3-0.12
		c0.11-0.05,0.2-0.08,0.29-0.13c0.33-0.12,0.67-0.26,0.99-0.4c0.21-0.09,0.42-0.19,0.62-0.28c0.05-0.03,0.1-0.05,0.14-0.08
		c0.05,0,0.07-0.03,0.1-0.04c0.08-0.03,0.15-0.06,0.23-0.1s0.15-0.08,0.23-0.11c0.31-0.15,0.62-0.31,0.93-0.46
		c0.07-0.03,0.14-0.07,0.21-0.1c0.07-0.04,0.14-0.08,0.21-0.12c0.07-0.04,0.13-0.08,0.21-0.11c0.07-0.04,0.14-0.08,0.21-0.12
		c0.06-0.03,0.12-0.06,0.18-0.1c0.02-0.01,0.03-0.01,0.03-0.02c0.27-0.13,0.51-0.26,0.76-0.42c0.29-0.17,0.59-0.34,0.87-0.51
		c0.23-0.14,0.45-0.28,0.66-0.42c0.07-0.03,0.11-0.06,0.16-0.09c0.03-0.04,0.08-0.05,0.1-0.08c0,0,0-0.02,0.03-0.02
		c0.12-0.07,0.26-0.17,0.4-0.26c0.12-0.07,0.24-0.15,0.37-0.25c0.26-0.2,0.54-0.38,0.82-0.58c0.16-0.1,0.29-0.22,0.45-0.33
		c0.03-0.03,0.06-0.05,0.09-0.08c0.15-0.11,0.3-0.21,0.44-0.34c0.21-0.16,0.41-0.33,0.62-0.49c0.53-0.44,1.08-0.91,1.59-1.37
		c0.01-0.03,0.04-0.04,0.06-0.06c0.03-0.01,0.05-0.05,0.08-0.06c0.16-0.17,0.35-0.34,0.54-0.53c0.24-0.23,0.48-0.46,0.73-0.71
		c0.25-0.26,0.51-0.53,0.75-0.79c0.16-0.17,0.31-0.34,0.45-0.51c0.22-0.24,0.44-0.5,0.66-0.75c0.21-0.24,0.43-0.49,0.63-0.75
		c0.19-0.24,0.37-0.47,0.56-0.71c0.2-0.27,0.4-0.53,0.6-0.81c0.14-0.17,0.27-0.36,0.39-0.54l0.01-0.01
		c0.22-0.31,0.44-0.64,0.66-0.97c3.51-5.32,4.75-11.3,3.7-17.64c-0.02-0.12-0.04-0.25-0.07-0.33c-0.01-0.1-0.03-0.19-0.06-0.29
		c-0.01-0.09-0.06-0.18-0.07-0.27c-0.06-0.18-0.13-0.33-0.21-0.47c-0.03-0.09-0.08-0.17-0.12-0.25c-0.03-0.04-0.06-0.08-0.09-0.12
		c-0.05-0.06-0.11-0.13-0.16-0.19c-0.04-0.06-0.09-0.1-0.15-0.14c-0.05-0.04-0.11-0.09-0.16-0.12c-0.1-0.06-0.23-0.14-0.37-0.19
		c-0.4-0.13-0.91-0.17-1.52-0.09c-0.07,0.02-0.15,0.03-0.25,0.03c-0.01,0.02-0.04,0.02-0.07,0.02c-0.03,0-0.08,0.02-0.11,0.03h-0.05
		c-0.09,0.01-0.18,0.05-0.28,0.06c-0.07,0.01-0.15,0.03-0.23,0.06c-0.09,0.02-0.19,0.03-0.26,0.07c-0.03,0-0.05,0-0.07,0.01
		c-0.02,0-0.04,0.01-0.06,0.02c-0.06,0.02-0.12,0.04-0.18,0.05c-0.06,0.02-0.12,0.04-0.19,0.05c-0.32,0.11-0.63,0.24-0.94,0.36
		c-0.31,0.14-0.61,0.28-0.9,0.44c-0.17,0.08-0.35,0.19-0.53,0.31c-0.09,0.04-0.18,0.08-0.26,0.15c-0.09,0.06-0.18,0.11-0.26,0.17
		c-0.02,0.01-0.04,0.03-0.06,0.04c-0.02,0.01-0.04,0.03-0.05,0.04c-0.31,0.2-0.61,0.41-0.9,0.63c-0.27,0.21-0.53,0.42-0.77,0.64
		c-0.1,0.08-0.19,0.16-0.29,0.24c-0.09,0.08-0.19,0.17-0.29,0.26c-0.18,0.16-0.37,0.33-0.55,0.5c-0.2,0.2-0.41,0.4-0.62,0.59
		c-0.22,0.2-0.41,0.41-0.62,0.61c-0.4,0.4-0.81,0.8-1.19,1.22c-0.8,0.82-1.55,1.65-2.3,2.51c-2.94,3.44-5.48,7.13-7.63,11.13
		c-1.07,2-2.04,4.08-2.93,6.23c-0.31,0.76-0.6,1.52-0.9,2.27c-0.62,1.5-1.2,3.01-1.77,4.52c-0.6,1.52-1.17,3.05-1.74,4.57
		c-0.53,1.47-1.07,2.93-1.6,4.4c-0.31,0.82-0.6,1.65-0.89,2.46c-2.17,6.12-4.25,12.27-6.34,18.43c-1.36,4.01-1.33,8.18-1.07,12.41
		c-0.17,0.04-0.34,0.09-0.49,0.12c-0.18,0.04-0.33,0.08-0.5,0.11c-0.17,0.03-0.32,0.04-0.48,0.08c-0.17,0.02-0.33,0.04-0.48,0.06
		c-0.41,0.04-0.8,0.06-1.19,0.06c-0.11,0-0.23,0-0.34-0.01h-0.17c-0.03-0.01-0.06-0.01-0.09-0.01h-0.05
		c-0.05-0.01-0.1-0.01-0.15-0.01c-0.18-0.02-0.35-0.05-0.52-0.07c-0.2-0.02-0.4-0.06-0.6-0.08c-0.22-0.05-0.42-0.09-0.62-0.15
		c-0.32-0.08-0.65-0.18-0.98-0.29c-0.13-0.05-0.27-0.11-0.42-0.17c-0.02,0-0.06-0.01-0.09-0.03c0,0-0.01,0-0.03-0.02
		c-0.12-0.04-0.25-0.1-0.37-0.17c-0.15-0.06-0.31-0.14-0.45-0.21c-0.15-0.08-0.29-0.16-0.44-0.25c-0.13-0.08-0.27-0.18-0.41-0.26
		c-0.14-0.1-0.28-0.19-0.4-0.3c-0.11-0.06-0.2-0.14-0.3-0.21c-0.01-0.02-0.04-0.04-0.06-0.05c-0.08-0.07-0.15-0.13-0.23-0.2
		c-0.04-0.03-0.08-0.07-0.11-0.1c-0.04-0.03-0.08-0.06-0.12-0.1c-0.02-0.03-0.05-0.05-0.07-0.07c-0.03-0.02-0.05-0.04-0.07-0.06
		l-0.17-0.19c-0.07-0.06-0.14-0.12-0.2-0.18c-0.05-0.08-0.13-0.14-0.18-0.22c-0.12-0.14-0.24-0.28-0.35-0.42
		c-0.09-0.12-0.2-0.23-0.29-0.37l-0.02-0.01c-0.13-0.18-0.23-0.34-0.34-0.51c-0.08-0.13-0.16-0.26-0.25-0.39
		c-0.14-0.27-0.28-0.54-0.4-0.8c-0.08-0.15-0.13-0.29-0.19-0.44c-0.04-0.1-0.08-0.18-0.12-0.28c-0.03-0.09-0.06-0.19-0.09-0.28
		c-0.04-0.09-0.08-0.2-0.12-0.31c-0.06-0.2-0.12-0.38-0.16-0.6c-0.03-0.09-0.07-0.2-0.08-0.31c-0.05-0.23-0.09-0.45-0.13-0.69
		c-0.01-0.01-0.01-0.04-0.01-0.06c-0.03-0.23-0.08-0.46-0.09-0.69c-0.06-0.54-0.08-1.08-0.08-1.63c0-2.18,0.47-4.27,1.19-6.36
		c4.97-14.3,9.96-28.59,14.87-42.91c0.07-0.27,0.17-0.53,0.25-0.79c0.15-0.52,0.27-1.03,0.37-1.53c0.03-0.12,0.05-0.22,0.07-0.35
		c0.02-0.12,0.05-0.27,0.06-0.41c0.02-0.16,0.04-0.3,0.05-0.45c0.03-0.16,0.03-0.3,0.05-0.46c0.02-0.13,0.02-0.27,0.03-0.43
		c0.01-0.6,0-1.17-0.08-1.76c-0.01-0.2-0.06-0.42-0.09-0.63c-0.04-0.23-0.09-0.44-0.14-0.64c-0.03-0.11-0.06-0.22-0.09-0.34
		c0-0.02-0.02-0.05-0.02-0.08c-0.02-0.05-0.03-0.09-0.04-0.14c-0.05-0.14-0.1-0.26-0.14-0.4c0-0.02,0-0.03-0.02-0.05
		c-0.04-0.12-0.09-0.25-0.14-0.35c0-0.02,0-0.04-0.01-0.05v-0.01c-0.05-0.12-0.11-0.24-0.16-0.35c-0.06-0.12-0.13-0.25-0.19-0.37
		c-0.02-0.06-0.06-0.12-0.09-0.2c-0.04-0.05-0.07-0.12-0.11-0.19c-0.01-0.01-0.01-0.01-0.01-0.02c-0.05-0.07-0.08-0.11-0.11-0.19
		c-0.03-0.05-0.08-0.11-0.11-0.17c-0.04-0.06-0.09-0.14-0.14-0.22c-0.05-0.06-0.09-0.12-0.14-0.2c0-0.02-0.01-0.02-0.01-0.03
		c-0.43-0.62-0.95-1.21-1.54-1.78c-0.07-0.08-0.15-0.15-0.23-0.24c-0.09-0.07-0.17-0.14-0.26-0.21c-0.11-0.11-0.24-0.2-0.34-0.31
		h-0.02c-0.12-0.11-0.25-0.2-0.37-0.3c-0.26-0.18-0.52-0.35-0.79-0.51c-0.26-0.15-0.54-0.29-0.82-0.42
		c-0.14-0.06-0.27-0.12-0.4-0.16c-0.14-0.06-0.28-0.11-0.44-0.16c-0.27-0.11-0.57-0.2-0.86-0.26c-0.14-0.05-0.3-0.08-0.44-0.11
		c-0.15-0.03-0.29-0.07-0.45-0.09h-0.04c-0.14-0.04-0.28-0.05-0.42-0.08c-0.16-0.02-0.31-0.03-0.47-0.06
		c-0.15-0.02-0.31-0.03-0.46-0.03c-0.16-0.02-0.31-0.03-0.47-0.03c-0.13-0.01-0.27-0.02-0.41-0.03c-0.14,0-0.28-0.01-0.43-0.01
		c-0.28-0.01-0.58-0.01-0.86-0.01c-1.12,0-2.3,0.03-3.54,0.03c0.06-0.15,0.11-0.33,0.15-0.48c0.02-0.02,0.02-0.03,0.02-0.06
		c0.03-0.08,0.06-0.17,0.1-0.27c0.04-0.07,0.09-0.15,0.13-0.23c0.2-0.29,0.4-0.57,0.6-0.84c0.22-0.26,0.42-0.54,0.64-0.79
		c0.18-0.22,0.39-0.46,0.59-0.68l0.01-0.01c0.02-0.03,0.05-0.07,0.08-0.08c0.22-0.23,0.43-0.45,0.65-0.67
		c0.19-0.2,0.39-0.38,0.59-0.55c0.07-0.08,0.16-0.16,0.25-0.22c0.03-0.03,0.06-0.06,0.09-0.09c0.17-0.16,0.33-0.29,0.5-0.42
		c0.24-0.2,0.51-0.39,0.76-0.57c0.12-0.09,0.24-0.17,0.36-0.25c0.11-0.08,0.23-0.16,0.36-0.25c0.03-0.01,0.06-0.03,0.09-0.05
		c0.04-0.02,0.08-0.04,0.12-0.06c0.18-0.12,0.37-0.23,0.55-0.34h0.03c0.05-0.04,0.1-0.08,0.16-0.09c0.03-0.01,0.08-0.05,0.1-0.06
		c0.02-0.02,0.05-0.02,0.06-0.04c0.09-0.05,0.17-0.09,0.25-0.12c0.09-0.04,0.17-0.08,0.25-0.12c0.04-0.03,0.08-0.04,0.12-0.06
		c0.08-0.05,0.16-0.08,0.25-0.13c0.11-0.06,0.24-0.1,0.37-0.15c0.08-0.03,0.18-0.08,0.25-0.11c0.06-0.03,0.14-0.06,0.2-0.09
		c0.17-0.06,0.33-0.12,0.5-0.19c0.06-0.01,0.14-0.05,0.22-0.06c0.06-0.03,0.12-0.05,0.18-0.08c0.25-0.08,0.5-0.15,0.75-0.22
		c0.32-0.09,0.64-0.18,0.97-0.24c0.33-0.08,0.65-0.16,0.99-0.2c0.17-0.04,0.36-0.06,0.54-0.08c0.03,0,0.07-0.02,0.1-0.02
		c0.12-0.03,0.26-0.04,0.4-0.06c0.88-0.11,1.75-0.19,2.63-0.21c0.48-0.02,0.98-0.04,1.46,0c0.25,0,0.51,0.01,0.76,0.04h0.01
		c0.34,0.02,0.68,0.04,1.02,0.11c0.37,0.04,0.73,0.11,1.1,0.2c0.04,0,0.07,0,0.11,0.01c0.03,0.01,0.07,0.02,0.11,0.03
		c0.17,0.04,0.34,0.09,0.51,0.14c0.17,0.05,0.34,0.1,0.51,0.16c0.19,0.06,0.36,0.12,0.53,0.2c0.34,0.12,0.68,0.27,1.01,0.42
		c0.16,0.06,0.31,0.14,0.47,0.24c0.31,0.13,0.62,0.31,0.91,0.49c0.15,0.08,0.28,0.17,0.43,0.26c0.14,0.09,0.28,0.19,0.41,0.28
		c0.08,0.05,0.16,0.11,0.22,0.16c0.11,0.06,0.2,0.13,0.3,0.21c0.2,0.16,0.4,0.33,0.6,0.49c0.03,0.02,0.05,0.04,0.08,0.07
		c0.09,0.09,0.2,0.18,0.31,0.29c0.12,0.11,0.24,0.24,0.35,0.36c0.13,0.13,0.24,0.23,0.35,0.35c0.06,0.09,0.14,0.15,0.18,0.22
		c0.14,0.14,0.25,0.3,0.37,0.44c0.02,0.02,0.03,0.06,0.06,0.07c0.11,0.16,0.23,0.31,0.34,0.49c0.08,0.08,0.16,0.19,0.22,0.29
		c0.17,0.26,0.34,0.52,0.48,0.79c0.04,0.03,0.05,0.07,0.08,0.11c0.09,0.17,0.18,0.32,0.27,0.49c0.04,0.09,0.1,0.19,0.15,0.3
		c0.06,0.14,0.13,0.29,0.2,0.45c0.02,0.03,0.04,0.07,0.05,0.11c0.02,0.04,0.04,0.08,0.06,0.12c0.03,0.07,0.06,0.14,0.09,0.21
		c0.06,0.16,0.14,0.31,0.19,0.49c0.1,0.26,0.2,0.52,0.27,0.8c0.1,0.26,0.19,0.54,0.25,0.82c0.09,0.28,0.16,0.56,0.22,0.83
		c0.04,0.13,0.06,0.24,0.09,0.35c0.05,0.25,0.1,0.47,0.14,0.71c0.3,1.58,0.37,3.22,0.57,5.06c0.74-0.9,1.46-1.79,2.17-2.66
		c0.47-0.57,0.93-1.15,1.4-1.71c0.7-0.86,1.39-1.7,2.1-2.53c0.68-0.79,1.38-1.59,2.12-2.34c0.36-0.39,0.73-0.76,1.12-1.13
		c0.31-0.3,0.62-0.61,0.94-0.9c0.03-0.03,0.08-0.08,0.13-0.11c0.02-0.03,0.03-0.04,0.06-0.07V14.5c0.05-0.05,0.11-0.09,0.15-0.13
		c0.06-0.05,0.1-0.09,0.16-0.13c0.28-0.26,0.57-0.52,0.88-0.77c0.4-0.35,0.81-0.67,1.24-0.99c0.2-0.16,0.4-0.31,0.6-0.47
		c0.02,0,0.04,0,0.04-0.02c0.21-0.15,0.43-0.31,0.64-0.44c0.23-0.16,0.44-0.31,0.66-0.44c0.23-0.15,0.45-0.31,0.68-0.45
		c0.64-0.38,1.28-0.71,1.93-0.97c0.22-0.09,0.42-0.19,0.64-0.27h0.01c0.18-0.06,0.36-0.13,0.55-0.18c0.12-0.05,0.26-0.08,0.4-0.13
		c0.26-0.07,0.54-0.13,0.8-0.19c0.14-0.04,0.28-0.07,0.42-0.08c0.36-0.08,0.71-0.13,1.07-0.16c0.96-0.07,1.89-0.06,2.8,0.08
		c0.28,0.04,0.57,0.09,0.85,0.17c0.01,0,0.03,0.01,0.04,0.01c0.07,0.01,0.13,0.03,0.19,0.04s0.12,0.03,0.18,0.04
		c0.06,0.03,0.12,0.05,0.19,0.07c0.07,0.02,0.14,0.04,0.21,0.06c0.29,0.09,0.58,0.18,0.86,0.31c0.11,0.03,0.24,0.09,0.35,0.14
		c0.26,0.1,0.52,0.23,0.77,0.37c0.2,0.1,0.39,0.2,0.58,0.32c0.1,0.06,0.21,0.13,0.32,0.2c0.08,0.05,0.14,0.1,0.21,0.16
		c0.03,0.02,0.07,0.03,0.09,0.05c0.03,0.01,0.05,0.03,0.07,0.05c0.02,0,0.03,0,0.05,0.02c0.04,0.04,0.08,0.07,0.13,0.1
		c0.05,0.03,0.09,0.06,0.13,0.1c0.12,0.08,0.23,0.17,0.34,0.26c0.06,0.04,0.11,0.09,0.16,0.14c0.06,0.04,0.11,0.09,0.16,0.14
		c0.12,0.1,0.23,0.19,0.33,0.28c0.11,0.11,0.22,0.2,0.31,0.31c0.22,0.22,0.44,0.44,0.64,0.67c0.08,0.09,0.15,0.19,0.23,0.29
		c0.2,0.23,0.4,0.48,0.59,0.74c0.07,0.13,0.17,0.25,0.25,0.38c0.17,0.26,0.33,0.53,0.49,0.8c0.15,0.27,0.31,0.55,0.45,0.84
		C364.04,19.99,364.43,24.41,364.17,29z M451.89,71.18c-0.43,0.37-0.86,0.72-1.32,1.02c-2.39,1.58-5.15,2.28-7.95,2.79
		c-2.21,0.41-4.46,0.56-6.69,0.85c-0.22,0.03-0.42,0.07-0.63,0.09c-0.12,0.02-0.24,0.05-0.36,0.1c-0.25,0.1-0.49,0.25-0.69,0.44
		c-0.1,0.09-0.18,0.19-0.25,0.29c-1.07,1.5-2.14,2.97-3.3,4.37h-0.02c-1.95,2.37-4.14,4.5-6.8,6.17c-0.08,0.05-0.14,0.09-0.22,0.14
		c-8.27,5.04-17.15,8.5-26.72,10.15c-0.38,0.06-0.73,0.12-1.1,0.17c-3.16,0.41-6.34,0.26-9.42-0.78c-0.1-0.04-0.2-0.07-0.3-0.11
		s-0.2-0.08-0.3-0.12c-0.88-0.34-1.68-0.78-2.4-1.29c-0.43-0.3-0.83-0.63-1.19-0.99c-0.98-0.95-1.71-2.06-2.16-3.27
		c-0.01-0.04-0.02-0.07-0.03-0.11c-0.02-0.03-0.03-0.07-0.03-0.1c-0.05-0.18-0.1-0.35-0.15-0.52c-0.05-0.18-0.09-0.35-0.12-0.53
		c-0.11-0.6-0.15-1.21-0.1-1.83c0.08-1.36,0.5-2.53,1.15-3.55c0.91-1.49,2.29-2.69,3.69-3.84c0.41-0.34,0.83-0.67,1.26-0.96
		c4.63-3.36,9.99-5.09,15.55-6.21c1.61-0.32,3.2-0.62,4.81-0.89c2.73-0.47,5.46-0.91,8.18-1.34c1.89-0.31,3.76-0.6,5.64-0.91
		c0.11-0.02,0.21-0.02,0.31-0.02c0.54-0.06,1.06-0.16,1.53-0.29c0.32-0.09,0.62-0.2,0.9-0.32c0.57-0.26,1.08-0.59,1.51-1.01
		c0.75-0.73,1.27-1.74,1.55-3.1c0.49-2.34,1.4-4.57,1.85-6.98c-2.31,2.47-4.54,5.01-6.97,7.37c-0.09,0.09-0.18,0.18-0.27,0.26
		c-0.15,0.13-0.29,0.26-0.44,0.39c-0.09,0.07-0.18,0.15-0.27,0.21c-0.35,0.29-0.71,0.54-1.09,0.76c-0.42,0.25-0.86,0.46-1.31,0.61
		c-0.08,0.03-0.16,0.06-0.24,0.08c-0.64,0.19-1.29,0.27-1.96,0.21c-0.27-0.02-0.55-0.07-0.83-0.15c-0.28-0.08-0.56-0.19-0.84-0.33
		c-1.72-0.84-3.25-1.87-4.55-3.15c-1.91-1.86-3.26-4.2-3.77-7.12c-0.44-2.61-0.33-5.31-0.49-8.03c-2.09,0.94-4.13,1.93-5.63,3.65
		c-0.45,0.49-0.85,1.04-1.19,1.68c-0.11,0.21-0.21,0.43-0.31,0.66c-0.82,1.88-1.73,3.7-2.74,5.46c-1.18,2.05-2.51,4.02-4.02,5.86
		c-0.43,0.53-0.87,1.05-1.34,1.56c-0.23,0.25-0.46,0.5-0.7,0.75c-0.14,0.15-0.29,0.29-0.43,0.43c-1.35,1.29-2.79,2.18-4.34,2.67
		c-0.28,0.09-0.56,0.16-0.84,0.22c-1.09,0.24-2.24,0.29-3.45,0.15c-0.28-0.04-0.57-0.09-0.86-0.14c-0.29-0.06-0.59-0.12-0.88-0.19
		c-1.78-0.46-3.46-1.1-5.01-2c-0.47-0.26-0.92-0.56-1.37-0.87c-0.86-0.63-1.68-1.34-2.44-2.18c-0.22-0.25-0.42-0.5-0.62-0.76
		c-0.21-0.26-0.41-0.54-0.58-0.82c-1.73-2.74-2.06-5.9-1.69-9.1c0.87-7.48,3.18-14.42,6.6-20.89v-0.02c0.16-0.29,0.31-0.6,0.48-0.91
		c0.06-0.11,0.13-0.23,0.2-0.36c1.38-2.49,2.93-4.92,4.62-7.28c3.27-4.55,7.85-5.85,13.22-4.83c1.85,0.35,3.7,0.73,5.56,1.1
		c1.78,0.37,3.33,1.17,4.5,2.28c0.17,0.16,0.33,0.33,0.49,0.5c0.3,0.35,0.58,0.72,0.81,1.11c0.24,0.4,0.45,0.81,0.61,1.25
		c0.39,1.01,0.56,2.13,0.5,3.33c-0.02,0.24-0.03,0.48-0.06,0.73c-0.22,2.69-0.78,5.36-1.29,8.04c-0.11,0.56-0.2,1.11-0.31,1.69
		c-0.13,0.74-0.29,1.48-0.48,2.29c-0.11,0.48-0.23,0.98-0.35,1.53c0.74-0.54,1.47-1.07,2.18-1.6c1.18-0.9,2.31-1.82,3.27-2.88
		c1.25-1.38,2.24-2.95,2.75-5c0.79-3.22,2.12-6.29,2.99-9.49c0.52-1.96,0.22-3.82-0.55-5.57c-0.08-0.17-0.16-0.34-0.24-0.52
		c-0.26-0.51-0.55-1.02-0.87-1.51c-0.03-0.05-0.07-0.1-0.1-0.16c-0.11-0.17-0.21-0.37-0.37-0.64c-0.02-0.04-0.05-0.11-0.1-0.15
		c0.1,0,0.19-0.02,0.28-0.02c5.19-0.38,10.02-0.14,13.69,4.06c0.11,0.13,0.22,0.26,0.32,0.39c0.21,0.26,0.39,0.52,0.56,0.79
		c0.09,0.13,0.17,0.26,0.24,0.4c0.18,0.33,0.33,0.66,0.46,0.99c0.06,0.17,0.12,0.34,0.18,0.51c0.11,0.34,0.19,0.68,0.25,1.02
		c0.03,0.17,0.06,0.35,0.08,0.52c0.04,0.34,0.06,0.69,0.06,1.04c0,0.83-0.11,1.67-0.31,2.52c-0.12,0.56-0.29,1.12-0.48,1.69
		c-1.56,4.32-3.39,8.55-5.17,12.8c-1.61,3.87-3.24,7.75-3.71,11.97c-0.08,0.56-0.14,1.15-0.04,1.69c0.16,0.78,0.54,1.34,1.05,1.63
		c0.62,0.35,1.42,0.29,2.16-0.29c1.13-0.91,2.2-1.92,3.2-3c0.33-0.36,0.65-0.73,0.96-1.1c1.92-2.27,3.67-4.64,5.25-7.09
		c4.72-7.35,7.93-15.45,9.92-24.14c0.75-3.33,0.08-6.3-2.06-9.1c2.18-0.8,4.19-0.47,6.19-0.18c0.42,0.07,0.84,0.14,1.25,0.24
		c2.31,0.52,4.41,1.56,6.14,3.25c0.04,0.03,0.07,0.07,0.1,0.11h0.01c0.1,0.1,0.2,0.2,0.29,0.31c0.19,0.2,0.37,0.41,0.53,0.63
		c0.08,0.1,0.16,0.21,0.24,0.32c0.31,0.44,0.57,0.89,0.77,1.35c0.11,0.23,0.2,0.47,0.27,0.71c0.12,0.35,0.21,0.72,0.26,1.09
		c0.02,0.12,0.04,0.25,0.05,0.37c0,0,0,0.01,0,0.02c0.03,0.24,0.04,0.49,0.04,0.74c0,0.45-0.04,0.92-0.12,1.39s-0.21,0.95-0.37,1.43
		c-2.93,8.5-5.93,17-8.89,25.49c-1.41,4.07-2.82,8.13-4.35,12.58c5.02-1.23,9.51-2.61,13.1-6c0.54,0.5,0.96,1.08,1.29,1.72
		C455.33,64.68,454.61,68.8,451.89,71.18z"/>
	<path class="st0" d="M385.71,42.9c0-0.01,0.01-0.02,0.02-0.04v-0.01C385.72,42.87,385.71,42.89,385.71,42.9z"/>
	<path class="st0" d="M381.54,50.25L381.54,50.25c0.14,0.21,0.28,0.4,0.44,0.56 M387.49,47.01c-0.11-0.11-0.18-0.2-0.28-0.31
		 M391.75,30.73l-0.01,0.01c0,0.01-0.01,0.01-0.02,0.02 M403.6,88.92c-0.04,0.02-0.09,0.03-0.14,0.05 M402.55,89.25
		c0.05-0.01,0.1-0.03,0.15-0.05c0.02,0,0.03,0,0.05-0.01 M425.98,79.84c0-0.03-0.01-0.06-0.01-0.09 M427.14,81.34
		c-0.01-0.01-0.01-0.01-0.02-0.01"/>
	<path class="st0" d="M294.45,88.69c0.26,0.88,0.57,1.76,0.93,2.62C295.01,90.45,294.7,89.57,294.45,88.69z"/>
	<path class="st0" d="M303.17,11.08c0.03-0.01,0.06-0.03,0.09-0.05c-0.03,0.02-0.06,0.04-0.09,0.06c-0.13,0.08-0.25,0.16-0.36,0.24
		C302.92,11.25,303.04,11.17,303.17,11.08z"/>
	<path class="st0" d="M303.95,101.11c0.18,0.11,0.37,0.21,0.57,0.3c-0.2-0.09-0.39-0.19-0.57-0.29c-0.13-0.07-0.25-0.13-0.37-0.2
		C303.7,100.99,303.82,101.05,303.95,101.11z"/>
	<path class="st0" d="M304.28,10.44c0.09-0.05,0.17-0.09,0.25-0.12c-0.08,0.04-0.16,0.08-0.25,0.13c-0.01,0.02-0.04,0.02-0.06,0.03
		C304.24,10.46,304.27,10.46,304.28,10.44z"/>
	<path class="st0" d="M306.27,102.12c0.22,0.06,0.43,0.14,0.65,0.2c-0.22-0.06-0.43-0.13-0.65-0.19c-0.01-0.01-0.01-0.02-0.02-0.02
		C306.26,102.11,306.26,102.11,306.27,102.12z"/>
	<path class="st0" d="M308.59,8.87c0.33-0.08,0.65-0.16,0.99-0.2C309.24,8.72,308.92,8.79,308.59,8.87z"/>
	<path class="st0" d="M313.19,28.7c0.01-0.6,0-1.17-0.08-1.76C313.19,27.53,313.21,28.1,313.19,28.7z"/>
	<path class="st0" d="M313.53,103.02c-0.9,0.05-1.78,0.05-2.64-0.01C311.74,103.06,312.63,103.07,313.53,103.02z"/>
	<path class="st0" d="M317.82,8.69c0.17,0.04,0.34,0.09,0.51,0.14c-0.17-0.04-0.34-0.09-0.51-0.13c-0.04-0.01-0.08-0.03-0.11-0.04
		C317.74,8.67,317.78,8.68,317.82,8.69z"/>
	<path class="st0" d="M330.72,51.2c0.31-0.15,0.62-0.31,0.93-0.46c-0.31,0.16-0.62,0.31-0.93,0.47c-0.08,0.03-0.15,0.06-0.23,0.1
		C330.57,51.27,330.64,51.23,330.72,51.2z"/>
	<path class="st0" d="M332.07,50.52c0.07-0.04,0.13-0.08,0.21-0.11c-0.08,0.04-0.14,0.08-0.21,0.12c-0.07,0.04-0.14,0.07-0.21,0.11
		C331.93,50.6,332,50.56,332.07,50.52z"/>
	<path class="st0" d="M335.52,94.64c0.13-0.12,0.27-0.24,0.4-0.37c-0.13,0.13-0.27,0.25-0.4,0.38c-0.15,0.13-0.31,0.26-0.46,0.38
		C335.21,94.91,335.37,94.78,335.52,94.64z"/>
	<path class="st0" d="M339.28,14.37c-0.04,0.04-0.1,0.09-0.15,0.14V14.5C339.18,14.45,339.24,14.41,339.28,14.37z"/>
	<path class="st0" d="M338.47,46.3c0.53-0.44,1.08-0.91,1.59-1.37C339.55,45.4,339,45.86,338.47,46.3z"/>
	<path class="st0" d="M347.87,59.77c0.02,0.03,0.04,0.06,0.05,0.1c-0.01-0.04-0.03-0.07-0.06-0.1c0-0.01,0-0.02-0.01-0.04
		C347.86,59.74,347.87,59.75,347.87,59.77z"/>
	<path class="st0" d="M348.15,74.4c0.05-0.18,0.1-0.37,0.15-0.57C348.25,74.03,348.2,74.22,348.15,74.4
		c-0.03,0.12-0.06,0.23-0.09,0.35C348.09,74.63,348.12,74.51,348.15,74.4z"/>
	<path class="st0" d="M354.06,9.02c0.06,0.03,0.12,0.05,0.19,0.07c-0.07-0.02-0.13-0.04-0.19-0.06c-0.06-0.02-0.12-0.04-0.18-0.05
		C353.94,8.99,354,9.01,354.06,9.02z"/>
	<path class="st0" d="M357.89,10.87c-0.05-0.03-0.09-0.06-0.13-0.09c-0.02-0.02-0.03-0.02-0.05-0.02c-0.02-0.03-0.04-0.05-0.07-0.06
		c0.03,0.01,0.05,0.03,0.07,0.05c0.02,0,0.03,0,0.05,0.02C357.8,10.81,357.84,10.84,357.89,10.87z"/>
	<path class="st0" d="M41.42,45.6c-0.29,0-0.59,0.01-0.88,0.03h-0.06c0.29-0.02,0.57-0.03,0.86-0.03H41.42z"/>
	<path class="st0" d="M266.22,64.78c-0.24-0.08-0.48-0.15-0.72-0.21C265.74,64.64,265.98,64.71,266.22,64.78
		c1.22,0.42,2.25,1,3.09,1.72C268.47,65.77,267.44,65.19,266.22,64.78z M243.28,66.34c0.56,0.31,1.11,0.65,1.64,1.02
		C244.39,66.99,243.84,66.64,243.28,66.34z M203.06,95.01v0.01c0.07-0.02,0.14-0.05,0.21-0.07
		C203.2,94.97,203.13,94.99,203.06,95.01z M199.06,106.68c-0.02,0.11-0.04,0.21-0.05,0.32c0.01-0.11,0.03-0.21,0.06-0.32
		c0.11-0.51,0.22-1.02,0.34-1.54C199.29,105.66,199.17,106.17,199.06,106.68z M188.41,42.46c0.35,0.29,0.69,0.59,1.02,0.9v-0.01
		C189.1,43.04,188.76,42.74,188.41,42.46z M186.26,40.94c0.74,0.45,1.46,0.96,2.15,1.52C187.72,41.89,187,41.38,186.26,40.94z
		 M179.57,56.23c-0.67,0.16-1.34,0.32-2.02,0.48c0.68-0.15,1.35-0.31,2.02-0.47c0.08-0.02,0.16-0.07,0.24-0.14
		C179.73,56.17,179.65,56.21,179.57,56.23z M157.23,102.99c4.08-11.79,8.25-23.55,12.43-35.29
		C165.47,79.44,161.31,91.2,157.23,102.99z M142.88,60.8c0.29-0.29,0.63-0.57,1.02-0.81v-0.01C143.51,60.23,143.17,60.5,142.88,60.8
		z"/>
	<path class="st0" d="M176.83,65.86c-1.26,3.68-2.37,6.98-3.48,10.24c-3.07,9.11-6.27,18.19-9.18,27.34
		c-0.8,2.49-0.8,5.23-1.25,7.85c-0.12,0.77-0.31,1.61-0.73,2.25c-0.8,1.19-1.69,2.35-2.73,3.32c-0.74,0.73-1.73,1.32-2.72,1.66
		c-2.56,0.87-3.96-0.42-3.26-3.06c1.16-4.19,2.35-8.37,3.75-12.47c4.08-11.79,8.24-23.55,12.43-35.29c0.16-0.48,0.82-1.01,1.33-1.1
		C172.78,66.27,174.61,66.12,176.83,65.86z"/>
	<path class="st0" d="M219.67,79.65c-0.91,1.97-2.1,3.85-3.38,5.62c-2.61,3.66-5.92,6.54-9.91,8.61c-0.25,0.13-0.52,0.25-0.79,0.35
		c-0.13,0.06-0.27,0.1-0.41,0.15c-0.63,0.21-1.28,0.37-1.91,0.57c-0.07,0.02-0.14,0.05-0.21,0.07v-0.01
		c-0.08-0.16-0.17-0.3-0.25-0.46c3.05-6.52,6.02-13.1,11.63-18.01c0.15-0.14,0.31-0.28,0.48-0.39c1.25-0.77,2.59-1.11,3.9-0.24
		C220.21,76.84,220.25,78.41,219.67,79.65z"/>
	<path class="st0" d="M427.14,81.34c-0.01-0.01-0.01-0.01-0.02-0.01 M426.25,80.66c0.01,0,0.01,0,0.02,0.01v-0.01H426.25z
		 M425.98,79.84c0-0.03-0.01-0.06-0.01-0.09 M418.38,76.22c0.61-0.08,1.23-0.17,1.85-0.25c0.17-0.04,0.36-0.02,0.56-0.02
		 M391.64,30.86c0.02-0.02,0.04-0.04,0.06-0.06c0.01-0.01,0.02-0.02,0.02-0.03v-0.01c0.01-0.01,0.02-0.01,0.02-0.02l0.01-0.01
		 M388.19,85.58c-0.31,0.36-0.53,0.73-0.67,1.1c0.08-0.18,0.17-0.37,0.28-0.54v-0.01c0.12-0.19,0.27-0.38,0.4-0.55H388.19z
		 M387.18,38.71h0.02c0.02-0.08,0.06-0.16,0.09-0.24"/>
	<path class="st0" d="M378.67,61.12h-0.01v0.04l0.02-0.01v-0.02L378.67,61.12z M387.32,87.47c0,0.01-0.01,0.02-0.01,0.03
		s0,0.02,0,0.03v0.01c0,0.01,0,0.01,0,0.02c0,0.04-0.01,0.07,0,0.1 M387.31,87.54v-0.01 M426.25,80.66c0.01,0,0.01,0,0.02,0.01
		v-0.01H426.25z M426.25,80.66c0.01,0,0.01,0,0.02,0.01v-0.01H426.25z"/>
	<path class="st0" d="M421.25,75.95c-0.09,0.29-0.2,0.58-0.31,0.85c-0.01,0.02-0.02,0.03-0.02,0.05c-0.01,0.02-0.02,0.04-0.02,0.06
		c-0.01,0.03-0.03,0.07-0.05,0.1c-0.03,0.09-0.08,0.18-0.13,0.27c-0.06,0.14-0.13,0.28-0.2,0.41c-0.22,0.4-0.47,0.78-0.73,1.14
		c-0.09,0.11-0.17,0.24-0.26,0.36c-0.18,0.23-0.37,0.45-0.57,0.66c-0.21,0.22-0.41,0.43-0.61,0.64c-0.43,0.4-0.88,0.79-1.33,1.16
		c-0.22,0.17-0.43,0.32-0.65,0.49c-0.22,0.18-0.43,0.33-0.65,0.5c-0.34,0.24-0.66,0.48-1.01,0.71c-0.32,0.22-0.66,0.46-0.99,0.67
		c-0.23,0.16-0.45,0.29-0.68,0.43c-0.23,0.16-0.46,0.28-0.68,0.42c-0.31,0.2-0.62,0.39-0.94,0.56c-0.25,0.15-0.52,0.29-0.78,0.43
		c-0.1,0.05-0.19,0.11-0.28,0.15c-0.1,0.05-0.19,0.1-0.29,0.15c-0.05,0.03-0.11,0.07-0.17,0.1c-0.05,0.03-0.11,0.06-0.17,0.08
		c-0.11,0.06-0.23,0.13-0.34,0.17c-0.18,0.1-0.34,0.19-0.53,0.26c-0.17,0.1-0.35,0.17-0.53,0.27c-0.06,0.02-0.12,0.04-0.18,0.08
		c-0.15,0.07-0.31,0.15-0.47,0.22c-0.16,0.07-0.32,0.13-0.48,0.2c-0.13,0.06-0.26,0.11-0.39,0.17c-0.13,0.05-0.27,0.1-0.4,0.16
		c-0.04,0.04-0.1,0.05-0.17,0.07c-0.08,0.03-0.17,0.07-0.25,0.1c-0.01,0-0.01,0.01-0.02,0.01c-0.1,0.04-0.2,0.08-0.3,0.12
		c-0.03,0.01-0.06,0.03-0.1,0.04l-0.01,0.01c-0.12,0.04-0.26,0.09-0.39,0.14c-0.31,0.12-0.6,0.23-0.91,0.33h-0.02
		c-0.08,0.04-0.17,0.07-0.26,0.1c-0.06,0.02-0.13,0.04-0.2,0.06c-0.03,0.02-0.05,0.03-0.09,0.04c-0.03,0.01-0.06,0.02-0.09,0.03
		c-0.14,0.04-0.28,0.09-0.43,0.13c-0.02,0.02-0.06,0.03-0.08,0.05c-0.02,0-0.04,0-0.06,0.01c-0.03,0.01-0.06,0.02-0.1,0.03
		c-0.02,0-0.03,0.01-0.04,0.01c-0.04,0.01-0.08,0.03-0.12,0.04c-0.01,0-0.02,0-0.02,0c-0.02,0.01-0.03,0.01-0.05,0.02
		c-0.05,0.02-0.1,0.03-0.15,0.04c-0.05,0.02-0.11,0.04-0.15,0.05c-0.04,0.01-0.11,0.03-0.17,0.06c-0.51,0.14-1.02,0.28-1.53,0.42
		c-0.48,0.13-0.97,0.25-1.46,0.35c-0.13,0.04-0.27,0.07-0.43,0.1c-0.32,0.08-0.68,0.14-1.02,0.21h-0.04
		c-0.28,0.05-0.57,0.11-0.86,0.16c-0.03,0.02-0.08,0.02-0.12,0.02c-1.06,0.18-2.14,0.32-3.22,0.44c-0.13,0-0.24,0.02-0.36,0.04
		c-0.36,0.01-0.73,0-1.1-0.04c-0.39-0.01-0.76-0.07-1.13-0.13c-0.19-0.04-0.36-0.07-0.53-0.12c-0.18-0.02-0.37-0.07-0.54-0.12
		c-0.09-0.01-0.19-0.04-0.26-0.07c-0.08-0.02-0.16-0.05-0.24-0.08c-0.12-0.05-0.24-0.1-0.35-0.16c-0.45-0.21-0.82-0.51-1.12-0.85
		c-0.03-0.03-0.06-0.08-0.09-0.12c-0.05-0.06-0.09-0.12-0.14-0.18c-0.08-0.13-0.14-0.25-0.18-0.4c-0.04-0.04-0.05-0.09-0.06-0.14
		c-0.02-0.07-0.05-0.16-0.08-0.26c-0.04-0.12-0.05-0.23-0.06-0.36v-0.41c-0.01-0.03,0-0.06,0-0.1c0-0.01,0-0.01,0-0.02V87.5
		c0-0.01,0.01-0.02,0.01-0.03v-0.03l0.01-0.01c-0.01-0.04,0-0.08,0-0.11c0.02-0.02,0.02-0.03,0.02-0.05c0-0.03,0-0.06,0.02-0.1
		c0.01-0.07,0.03-0.15,0.04-0.21c0.04-0.09,0.08-0.19,0.11-0.26c0-0.02-0.01-0.02-0.01-0.02h0.01c0.08-0.18,0.17-0.37,0.28-0.54
		v-0.01c0.12-0.19,0.27-0.38,0.4-0.55c0.03-0.01,0.05-0.04,0.06-0.07l0.16-0.16v-0.02c0.08-0.07,0.15-0.15,0.23-0.25
		c0.12-0.12,0.25-0.24,0.37-0.38c0.13-0.11,0.26-0.23,0.41-0.36c0.1-0.1,0.22-0.22,0.37-0.32c0.04-0.05,0.09-0.09,0.15-0.13
		c0.11-0.1,0.24-0.2,0.36-0.29c0.27-0.22,0.57-0.41,0.87-0.62c0.2-0.14,0.4-0.26,0.62-0.39c0.18-0.12,0.37-0.23,0.57-0.33
		c0.36-0.19,0.73-0.38,1.08-0.55c0.31-0.15,0.61-0.31,0.92-0.45c0.13-0.05,0.27-0.11,0.4-0.17c0.04-0.03,0.09-0.04,0.15-0.06
		c0.19-0.09,0.38-0.17,0.58-0.25c0.2-0.07,0.4-0.17,0.6-0.23c0.23-0.09,0.45-0.18,0.68-0.27c0.12-0.03,0.23-0.07,0.34-0.11
		c0.12-0.04,0.23-0.08,0.35-0.11c0.26-0.1,0.51-0.17,0.77-0.27c0.21-0.06,0.43-0.14,0.65-0.2c0.12-0.03,0.26-0.08,0.39-0.11
		c0.03,0,0.06-0.01,0.09-0.02c0.05-0.01,0.09-0.02,0.14-0.04c0.02,0,0.04-0.01,0.07-0.02c0.01,0,0.02,0,0.03-0.01
		c0.02,0,0.04-0.01,0.06-0.01c0.07-0.03,0.13-0.05,0.19-0.06c0.07-0.02,0.13-0.04,0.2-0.06c0.17-0.05,0.33-0.09,0.5-0.13
		c0.78-0.21,1.57-0.39,2.36-0.55h0.01c0.4-0.09,0.8-0.17,1.21-0.24h0.04c0.22-0.05,0.43-0.08,0.66-0.13
		c0.19-0.03,0.41-0.07,0.63-0.11h0.01c0.68-0.12,1.38-0.23,2.06-0.33c0.05,0,0.1-0.02,0.15-0.04c0.06,0,0.12-0.01,0.18-0.02
		c0.03,0,0.07,0,0.1-0.01c0.03-0.01,0.07-0.01,0.1-0.01c0.03-0.01,0.05-0.02,0.08-0.02c0.03,0,0.06-0.01,0.09-0.02
		c0.45-0.06,0.91-0.13,1.38-0.19c0.45-0.08,0.91-0.15,1.38-0.21c0.93-0.14,1.86-0.26,2.79-0.4c0.91-0.13,1.82-0.25,2.74-0.37
		c0.61-0.09,1.23-0.17,1.85-0.26c0.61-0.08,1.23-0.17,1.85-0.25c0.17-0.04,0.36-0.02,0.56-0.02H421.25z"/>
	<path class="st0" d="M387.32,87.47c0,0.01-0.01,0.02-0.01,0.03s0,0.02,0,0.03v0.01c0,0.01,0,0.01,0,0.02c0,0.04-0.01,0.07,0,0.1"/>
	<path class="st0" d="M387.32,87.47c0,0.01-0.01,0.02-0.01,0.03s0,0.02,0,0.03v0.01c0,0.01,0,0.01,0,0.02c0,0.04-0.01,0.07,0,0.1"/>
	<path class="st0" d="M388.2,85.58c-0.13,0.17-0.28,0.36-0.4,0.55v0.01c-0.11,0.17-0.2,0.36-0.28,0.54c0.14-0.37,0.36-0.74,0.67-1.1
		H388.2z"/>
	<path class="st0" d="M399.67,79.37c0.06-0.02,0.13-0.04,0.19-0.05c0.07-0.02,0.13-0.04,0.2-0.06"/>
	<path class="st0" d="M403.6,88.92c-0.04,0.02-0.09,0.03-0.14,0.05"/>
	<path class="st0" d="M405.67,88.17c0.1-0.04,0.2-0.08,0.3-0.12c0.01,0,0.01-0.01,0.02-0.01"/>
	<path class="st0" d="M420.79,75.95c-0.2,0-0.39-0.02-0.56,0.02c-0.62,0.08-1.24,0.17-1.85,0.25c0.61-0.09,1.23-0.17,1.85-0.27
		C420.4,75.93,420.56,75.93,420.79,75.95z"/>
	<path class="st0" d="M399.28,33.54c-0.02,0.13-0.02,0.29-0.04,0.43c-0.01,0.14-0.03,0.28-0.04,0.42v0.03
		c-0.03,0.28-0.07,0.54-0.09,0.82c-0.02,0.06-0.04,0.12-0.04,0.17c-0.06,0.53-0.15,1.07-0.25,1.6c-0.06,0.29-0.12,0.58-0.16,0.89
		c-0.06,0.24-0.11,0.49-0.17,0.72c-0.14,0.61-0.28,1.23-0.45,1.87c-0.1,0.39-0.2,0.77-0.31,1.15c-0.05,0.18-0.11,0.35-0.16,0.54
		c-0.25,0.85-0.51,1.69-0.77,2.52c-0.26,0.84-0.55,1.67-0.81,2.51c-0.06,0.18-0.12,0.35-0.18,0.49c-0.08,0.16-0.14,0.3-0.22,0.42
		c-0.04,0.06-0.08,0.11-0.11,0.16c-0.09,0.12-0.18,0.23-0.29,0.33c-0.05,0.04-0.1,0.07-0.14,0.12c-0.06,0.03-0.11,0.07-0.17,0.11
		c-0.05,0.03-0.11,0.06-0.18,0.09c-0.06,0.01-0.12,0.05-0.18,0.06c-0.06,0.03-0.13,0.05-0.19,0.06c-0.15,0.03-0.31,0.08-0.47,0.08
		c-0.08,0.01-0.15,0.01-0.21,0.03c-0.66,0.03-1.5-0.06-2.6-0.23c-0.14-0.03-0.28-0.06-0.42-0.09c-0.07-0.02-0.17-0.04-0.24-0.07
		c-0.05,0-0.1-0.03-0.14-0.04c-0.02,0-0.05,0-0.08-0.02c-0.06-0.02-0.11-0.03-0.16-0.04c-0.13-0.06-0.29-0.11-0.43-0.18
		c-0.05-0.02-0.08-0.04-0.12-0.06c-0.11-0.06-0.24-0.11-0.33-0.17c-0.11-0.06-0.23-0.12-0.32-0.19c-0.11-0.06-0.22-0.13-0.31-0.2
		c-0.22-0.15-0.41-0.31-0.59-0.48c-0.03-0.01-0.05-0.02-0.07-0.04c-0.07-0.06-0.13-0.14-0.21-0.2c-0.05-0.05-0.1-0.09-0.14-0.14
		c-0.11-0.11-0.18-0.2-0.28-0.31c-0.09-0.11-0.19-0.2-0.26-0.31c-0.02-0.03-0.04-0.05-0.06-0.07c0-0.01,0-0.01,0-0.02
		c-0.04-0.03-0.07-0.06-0.1-0.1v-0.01c0-0.01-0.01-0.01-0.01-0.01v-0.01l-0.01-0.01h-0.01c-0.01-0.02-0.03-0.04-0.04-0.07
		c-0.01-0.01-0.02-0.02-0.03-0.04c-0.02-0.03-0.04-0.06-0.06-0.1c-0.01,0-0.01,0-0.01,0c-0.03-0.05-0.06-0.09-0.09-0.13
		c-0.01-0.02-0.03-0.03-0.04-0.05v-0.01c-0.01-0.01-0.01-0.02-0.02-0.03c-0.01,0-0.01,0-0.01-0.01c0-0.01-0.02-0.02-0.02-0.02
		c0-0.01,0-0.02-0.01-0.03c-0.01-0.02-0.02-0.03-0.03-0.05c0,0-0.01,0-0.01-0.01c-0.06-0.09-0.12-0.18-0.17-0.28
		c-0.01-0.02-0.03-0.04-0.05-0.07c-0.01-0.02-0.03-0.05-0.06-0.08c-0.02-0.03-0.02-0.05-0.03-0.07c-0.01,0-0.01-0.02-0.03-0.04
		c0,0,0-0.01-0.02-0.04v-0.01c-0.01-0.01-0.01-0.02-0.02-0.02c0-0.01,0-0.02,0-0.02c-0.01-0.02-0.02-0.02-0.02-0.03
		c-0.01-0.01-0.01-0.02-0.02-0.03h-0.01c0-0.01,0-0.02-0.01-0.04c-0.01,0-0.01-0.01-0.01-0.02c-0.03-0.04-0.04-0.08-0.06-0.12
		c-0.02-0.04-0.03-0.09-0.05-0.13c-0.01-0.03-0.03-0.06-0.03-0.11c0-0.01,0-0.01-0.01-0.02v-0.01c-0.01-0.01-0.01-0.03-0.02-0.04
		v-0.01c0,0,0,0,0-0.01c-0.01-0.03-0.01-0.06-0.02-0.09c0-0.02-0.01-0.04-0.02-0.07c0,0,0,0,0-0.01c0-0.02-0.01-0.04-0.01-0.06
		c-0.01,0-0.01-0.01-0.01-0.02c-0.01-0.03-0.01-0.06-0.01-0.09c-0.02-0.03-0.02-0.07-0.02-0.1c-0.02-0.09-0.03-0.18-0.03-0.28
		c-0.02-0.12-0.02-0.24,0-0.37v-0.05c0-0.07,0.01-0.16,0.05-0.24c-0.02-0.02,0-0.03,0-0.05c0-0.02,0-0.04,0.01-0.04
		c-0.01-0.02-0.01-0.02,0-0.04c0-0.01,0.01-0.03,0.02-0.05c0.01-0.01,0.01-0.02,0.01-0.03v-0.01c0.02-0.04,0.04-0.1,0.05-0.15
		c0.01-0.05,0.03-0.1,0.05-0.15c0.03-0.1,0.06-0.2,0.1-0.3c0.02-0.08,0.07-0.17,0.08-0.26c0.17-0.51,0.34-1.03,0.52-1.54
		c0.1-0.26,0.19-0.52,0.3-0.79c0.11-0.3,0.23-0.6,0.34-0.91h0.02c0.02-0.08,0.06-0.16,0.09-0.24c0.01-0.07,0.04-0.15,0.09-0.23
		c0-0.01,0-0.03,0.02-0.04c0.06-0.16,0.12-0.3,0.18-0.43c0.08-0.19,0.16-0.39,0.25-0.58c0.01-0.04,0.03-0.08,0.05-0.11
		c0.02-0.06,0.05-0.11,0.08-0.17c0.01-0.02,0.02-0.04,0.02-0.05v-0.01c0.01-0.01,0.02-0.03,0.03-0.04s0.01-0.02,0.01-0.03
		c0.03-0.05,0.05-0.09,0.07-0.14v-0.01c0.05-0.11,0.1-0.2,0.14-0.29c0.05-0.14,0.13-0.26,0.19-0.37c0-0.03,0.02-0.05,0.02-0.06
		c0.2-0.43,0.41-0.82,0.64-1.23c0.14-0.28,0.3-0.56,0.47-0.82c0.08-0.15,0.17-0.29,0.26-0.43c0.19-0.31,0.39-0.61,0.59-0.91
		c0.2-0.29,0.41-0.58,0.61-0.86c0.01-0.01,0.01-0.01,0.03-0.03c0.09-0.12,0.18-0.25,0.28-0.37c0.03-0.04,0.06-0.08,0.09-0.11
		c0.04-0.06,0.09-0.12,0.14-0.18c0.03-0.04,0.06-0.08,0.09-0.11l0.06-0.06c0.01-0.01,0.02-0.02,0.02-0.03
		c0.01-0.01,0.02-0.02,0.02-0.03l0.01-0.01c0.01-0.02,0.03-0.04,0.05-0.06c0.06-0.07,0.14-0.15,0.2-0.23
		c0.09-0.11,0.2-0.22,0.31-0.34c0.43-0.45,0.91-0.87,1.4-1.24c0.09-0.07,0.17-0.16,0.27-0.22c0.14-0.1,0.29-0.2,0.45-0.31
		c0.12-0.08,0.25-0.15,0.37-0.21c0.08-0.05,0.17-0.08,0.25-0.13c0.09-0.03,0.15-0.06,0.23-0.07c0.02-0.02,0.02-0.02,0.03-0.02
		c0.09-0.03,0.19-0.06,0.28-0.08c0.03-0.01,0.06-0.01,0.09-0.03c0.08-0.01,0.18-0.03,0.26-0.05h0.05c0.02,0,0.05,0,0.06-0.01
		c0.07,0,0.12-0.02,0.18-0.02c0.1,0,0.21,0,0.31,0.02c0.04,0,0.1,0.01,0.16,0.01h0.05c0.05,0.02,0.11,0.04,0.16,0.04
		c0.06,0.01,0.12,0.03,0.18,0.04c0.11,0.05,0.22,0.08,0.33,0.14c0.04,0.02,0.09,0.05,0.14,0.06c0.09,0.06,0.18,0.11,0.26,0.17
		c0.05,0.04,0.09,0.08,0.14,0.11c0.02,0.02,0.02,0.02,0.03,0.02c0.05,0.04,0.11,0.11,0.15,0.17c0.31,0.31,0.56,0.71,0.73,1.18
		c0.06,0.13,0.1,0.29,0.14,0.44c0.02,0.07,0.02,0.11,0.03,0.18c0.02,0.1,0.03,0.21,0.05,0.32c0.02,0.12,0.03,0.25,0.04,0.37
		c0.01,0.07,0.01,0.13,0.02,0.18c0.01,0.06,0.01,0.12,0.02,0.18c0.01,0.17,0.01,0.34,0.03,0.51c0.01,0.38,0.03,0.76,0.04,1.13
		C399.26,33.16,399.26,33.35,399.28,33.54z"/>
	<path class="st0" d="M385.73,42.83c0,0.01,0,0.01,0,0.02v0.01"/>
	<path class="st0" d="M385.72,42.91c0-0.02,0-0.03,0.01-0.05c0.01-0.01,0.01-0.03,0.01-0.04"/>
	<path class="st0" d="M385.73,44.24c0-0.02-0.01-0.04-0.01-0.06c0-0.01,0-0.01,0-0.02"/>
	<path class="st0" d="M385.73,44.25c0.01,0.03,0.02,0.05,0.02,0.07"/>
	<path class="st0" d="M385.77,44.43v-0.01c0,0,0,0,0-0.01c-0.01-0.03-0.01-0.06-0.02-0.09"/>
	<path class="st0" d="M385.81,42.58c-0.01,0.03-0.02,0.06-0.02,0.08"/>
	<path class="st0" d="M385.74,42.81c0.02-0.04,0.04-0.1,0.05-0.15c0.01-0.05,0.03-0.1,0.05-0.15"/>
	<path class="st0" d="M385.73,44.25c0.01,0.03,0.02,0.05,0.02,0.07c0.01,0.03,0.01,0.06,0.02,0.09c0,0.01,0,0.01,0,0.01v0.01"/>
	<path class="st0" d="M385.73,44.24c0-0.02-0.01-0.04-0.01-0.06c0-0.01,0-0.01,0-0.02"/>
	<path class="st0" d="M385.84,42.51c-0.02,0.05-0.04,0.1-0.05,0.15c-0.01,0.05-0.03,0.11-0.05,0.15c0.02-0.04,0.04-0.1,0.05-0.15
		c0-0.02,0.01-0.05,0.02-0.08"/>
	<path class="st0" d="M385.73,42.83c0,0.01,0,0.01,0,0.02v0.01"/>
	<path class="st0" d="M385.72,42.91c0-0.02,0-0.03,0.01-0.05c0.01-0.01,0.01-0.03,0.01-0.04"/>
	<path class="st0" d="M385.99,44.95c0,0.01,0.01,0.01,0.02,0.03c0,0,0,0.01,0,0.02"/>
	<path class="st0" d="M386.44,45.7c0-0.01,0-0.02-0.01-0.03c-0.01-0.02-0.02-0.03-0.03-0.05"/>
	<path class="st0" d="M387.18,38.71h0.02c0.02-0.08,0.06-0.16,0.09-0.24"/>
	<path class="st0" d="M387.99,36.85c0.01-0.01,0.01-0.02,0.02-0.04c0.01-0.01,0.01-0.02,0.01-0.03"/>
	<path class="st0" d="M391.75,30.73l-0.01,0.01c0,0.01-0.01,0.02-0.02,0.03c0,0.01-0.01,0.02-0.02,0.03
		c-0.02,0.02-0.04,0.04-0.06,0.06"/>
	<path class="st0" d="M393.02,54.6c-0.05,0.06-0.08,0.11-0.11,0.17c-0.04,0.06-0.08,0.1-0.11,0.16c-0.03,0.04-0.06,0.09-0.06,0.11
		c-0.05,0.06-0.09,0.11-0.12,0.17v0.01c-0.01,0-0.02,0.02-0.03,0.03c-0.03,0.05-0.05,0.09-0.08,0.14c-0.05,0.07-0.09,0.14-0.13,0.2
		c-0.27,0.45-0.54,0.88-0.8,1.31c-0.08,0.11-0.14,0.22-0.2,0.33c-0.57,0.99-1.13,1.97-1.7,2.91c-0.33,0.5-0.64,1.01-0.97,1.5
		c-0.33,0.5-0.66,0.98-1.02,1.44c-0.14,0.17-0.26,0.35-0.4,0.5c-0.14,0.17-0.28,0.34-0.42,0.49c-0.08,0.1-0.16,0.19-0.24,0.28
		c-0.07,0.06-0.13,0.16-0.21,0.22c-0.15,0.17-0.33,0.34-0.49,0.51l-0.65,0.61h-0.02c-0.22,0.19-0.45,0.37-0.69,0.57
		c-0.22,0.15-0.44,0.31-0.64,0.46c-0.11,0.07-0.22,0.14-0.33,0.21c-0.1,0.07-0.21,0.12-0.32,0.18c-0.06,0.03-0.13,0.06-0.17,0.09
		c-0.07,0.02-0.13,0.05-0.17,0.06l-0.23,0.09v0.01h-0.04c-0.01,0-0.02,0.01-0.03,0.01c-0.01,0.01-0.01,0.01-0.02,0.01
		s-0.02,0-0.03,0.01h-0.01c-0.01,0.01-0.05,0.01-0.07,0.01c-0.04,0.02-0.07,0.02-0.1,0.03c-0.06,0.02-0.12,0.02-0.2,0.03
		c-0.03,0-0.08,0.02-0.11,0.02c-0.07,0.02-0.15,0.02-0.23,0.02h-0.2c-0.05-0.02-0.09-0.02-0.14-0.04h-0.05
		c-0.05-0.01-0.11-0.01-0.15-0.03c-0.1-0.03-0.19-0.04-0.28-0.07c-0.09-0.05-0.19-0.08-0.3-0.12c-0.16-0.1-0.34-0.19-0.49-0.3
		c-0.14-0.11-0.28-0.24-0.4-0.36c-0.08-0.06-0.14-0.12-0.19-0.19c-0.04-0.04-0.08-0.09-0.11-0.14c-0.04-0.05-0.07-0.1-0.1-0.15
		c-0.08-0.09-0.15-0.2-0.19-0.3c-0.06-0.1-0.11-0.23-0.17-0.33c-0.05-0.11-0.08-0.22-0.13-0.34c-0.03-0.11-0.06-0.24-0.09-0.36
		c-0.03-0.08-0.04-0.17-0.06-0.26c-0.02-0.06-0.03-0.13-0.03-0.19c-0.04-0.12-0.05-0.25-0.06-0.37c-0.02-0.09-0.02-0.2-0.04-0.3
		c-0.01-0.32-0.03-0.64-0.03-0.97c-0.01-0.17-0.01-0.36-0.01-0.53v-0.06c0-0.26,0-0.52,0.01-0.79c0-0.06,0-0.1,0.02-0.15v-0.02
		l-0.01-0.01c0,0,0-0.01,0.01-0.02c0,0-0.02,0,0-0.02v-0.01c-0.02-0.03-0.02-0.05,0-0.08c0-0.06,0-0.11,0.01-0.16v-0.06
		c0-0.07,0-0.15,0.01-0.22c0-0.03,0.01-0.05,0.01-0.07v-0.05c0-0.04,0.01-0.07,0.01-0.11c0-0.05,0.01-0.1,0.02-0.15h-0.01v-0.01
		c0-0.01,0.01-0.01,0.01-0.01l0.01-0.29c0.01-0.06,0.02-0.13,0.03-0.19c-0.01,0.06-0.01,0.13-0.02,0.19
		c0.01-0.07,0.02-0.15,0.03-0.22c0-0.03,0.01-0.06,0.01-0.09c0.01-0.05,0.01-0.09,0.02-0.14c0.01-0.06,0.02-0.13,0.02-0.19v-0.03
		c0.01-0.01,0.01-0.03,0.01-0.04v-0.01c0.01,0,0.01-0.01,0.01-0.02c0.03-0.23,0.06-0.46,0.09-0.69c0-0.01,0-0.01,0.01-0.02v-0.03
		c0.03-0.2,0.06-0.37,0.1-0.56c0-0.06,0.02-0.12,0.04-0.17c0.06-0.31,0.12-0.62,0.2-0.93c0.05-0.24,0.11-0.47,0.17-0.68v-0.01
		l0.06-0.21c0.08-0.29,0.16-0.58,0.25-0.87v-0.03c0.02-0.04,0.03-0.08,0.04-0.12c0.05-0.15,0.1-0.3,0.14-0.45
		c0.02-0.06,0.04-0.12,0.06-0.18c-0.02,0.05-0.03,0.09-0.05,0.13c0.03-0.08,0.06-0.16,0.08-0.25v-0.01
		c0.03-0.06,0.05-0.12,0.07-0.18c0.02-0.05,0.04-0.09,0.05-0.13c0,0,0-0.01,0.01-0.01c0.03-0.1,0.07-0.21,0.11-0.31
		c0.07-0.23,0.15-0.45,0.23-0.67c0.08-0.2,0.15-0.4,0.23-0.62c0.05-0.13,0.11-0.25,0.16-0.38c0.1-0.25,0.21-0.5,0.32-0.76
		c0.07-0.17,0.15-0.34,0.22-0.52c0.03-0.07,0.06-0.13,0.09-0.2c0.14,0.2,0.29,0.39,0.44,0.55c0.12,0.16,0.24,0.31,0.37,0.46
		c0.2,0.23,0.42,0.45,0.63,0.66c0.1,0.08,0.17,0.16,0.27,0.24c0.08,0.07,0.17,0.15,0.26,0.21c0.26,0.22,0.53,0.42,0.81,0.59v0.01
		c0.16,0.12,0.32,0.2,0.49,0.3c0.14,0.08,0.29,0.17,0.45,0.25c0.06,0.03,0.13,0.06,0.2,0.09c0.28,0.14,0.59,0.26,0.9,0.37
		c0.02,0,0.04,0.02,0.09,0.04c0.18,0.04,0.33,0.1,0.5,0.15h0.03c0.2,0.06,0.4,0.12,0.6,0.16l0.02,0.01c0.2,0.05,0.42,0.07,0.62,0.11
		c0.06,0.01,0.11,0.01,0.17,0.03c0.05,0,0.09,0.01,0.14,0.01c0.12,0.03,0.24,0.05,0.37,0.06c0.11,0.02,0.23,0.02,0.34,0.04
		c0.11,0.01,0.23,0.01,0.34,0.03c0.11,0.02,0.22,0.02,0.32,0.02c0.06,0.01,0.13,0.01,0.21,0.01
		C391.04,54.71,392.01,54.67,393.02,54.6z"/>
	<path class="st0" d="M378.78,59.67c-0.01,0.06-0.01,0.13-0.02,0.19c0.01-0.07,0.02-0.15,0.03-0.22"/>
	<path class="st0" d="M378.82,59.41c-0.01,0.05-0.01,0.09-0.02,0.14"/>
	<path class="st0" d="M378.85,59.14c0.01,0,0.01-0.01,0.01-0.02c0.03-0.23,0.06-0.46,0.09-0.69c-0.02,0.1-0.03,0.22-0.05,0.32"/>
	<path class="st0" d="M380.02,54.17c-0.02,0.05-0.03,0.09-0.05,0.13"/>
	<path class="st0" d="M379.82,54.8c0.05-0.15,0.1-0.3,0.14-0.45"/>
	<path class="st0" d="M379.53,55.82c0.08-0.29,0.16-0.58,0.25-0.87"/>
	<path class="st0" d="M379.82,54.8c0.05-0.15,0.1-0.3,0.14-0.45c0.02-0.06,0.04-0.12,0.06-0.18c0.01-0.04,0.03-0.08,0.04-0.12"/>
	<path class="st0" d="M378.66,61.3c-0.01,0.27-0.01,0.53-0.01,0.79"/>
	<polygon class="st0" points="378.68,61.13 378.68,61.15 378.66,61.16 378.66,61.12 378.67,61.12 	"/>
	<path class="st0" d="M378.78,59.67c-0.01,0.06-0.01,0.13-0.02,0.19c0.01-0.07,0.02-0.15,0.03-0.22"/>
	<path class="st0" d="M378.82,59.41c-0.01,0.05-0.01,0.09-0.02,0.14"/>
	<path class="st0" d="M378.85,59.14c0.01,0,0.01-0.01,0.01-0.02c0.03-0.23,0.06-0.46,0.09-0.69c-0.02,0.1-0.03,0.22-0.05,0.32"/>
	<path class="st0" d="M380.02,54.17c-0.02,0.05-0.03,0.09-0.05,0.13"/>
	<path class="st0" d="M379.53,55.82c0.08-0.29,0.16-0.58,0.25-0.87"/>
	<path class="st0" d="M379.82,54.8c0.05-0.15,0.1-0.3,0.14-0.45c0.02-0.06,0.04-0.12,0.06-0.18c0.01-0.04,0.03-0.08,0.04-0.12"/>
	<line class="st0" x1="380.18" y1="53.72" x2="380.17" y2="53.72"/>
	<path class="st0" d="M380.21,53.61c-0.01,0.02-0.01,0.04-0.02,0.06"/>
	<line class="st0" x1="381.54" y1="50.26" x2="381.54" y2="50.25"/>
	<path class="st0" d="M380.91,51.74c0.1-0.25,0.21-0.5,0.32-0.76c0.07-0.17,0.15-0.34,0.22-0.52"/>
</g>
</svg>
