<?xml version="1.0" encoding="utf-8"?>
<!-- Generator: Adobe Illustrator 26.1.0, SVG Export Plug-In . SVG Version: 6.00 Build 0)  -->
<svg version="1.1" id="Layer_1" xmlns="http://www.w3.org/2000/svg" xmlns:xlink="http://www.w3.org/1999/xlink" x="0px" y="0px"
	 viewBox="0 0 1024 1280" style="enable-background:new 0 0 1024 1280;" xml:space="preserve">
<style type="text/css">
	.st0{fill:none;stroke:#C9463B;stroke-width:11;stroke-miterlimit:10;}
	.st1{fill:#C9463B;stroke:#C9463B;stroke-miterlimit:10;}
	.st2{font-family:'Biko';}
	.st3{font-size:25.0093px;}
	.st4{fill:#F7F0E6;stroke:#C9463B;stroke-miterlimit:10;}
	.st5{fill:#F7F0E6;}
	.st6{fill:none;stroke:#C9463B;stroke-miterlimit:10;}
	.st7{fill:#D4BDDF;stroke:#C9463B;stroke-miterlimit:10;}
	.st8{fill:none;stroke:#D4BDDF;stroke-miterlimit:10;}
	.st9{fill:#C9463B;}
	.st10{fill:#D4BDDF;}
	.st11{font-family:'Humanist521BT-UltraBold';}
	.st12{fill:none;}
</style>
<path class="st0" d="M0.5,784.97l35.55,15.1c21.87,9.3,32.07,34.57,22.77,56.45l-24.99,58.83c-0.04,0.08-0.07,0.17-0.11,0.25"/>
<path class="st0" d="M528.94,1279.5c-5.99-26.42-13.18-51.3-21.44-71c-31-74-98-159-116-182s-48-7-48-7l17,21l-8,6c0,0-9-13-13-18
	s-36-17-45-19s-14,4-12,16s-3,16-11,19s-25-4-25-4l-13,42l19,8l-39,16l5-14l-17-7l10-27l19,7l18-58l-16-7l-17-22l-58-21l-67,184
	l-76-27l65-179l-45.78-19.9l-0.22-0.1"/>
<path class="st0" d="M938.5,0.5c0,0,32,23,32,50s54,147,54,147"/>
<line class="st0" x1="1024.5" y1="764.5" x2="761.73" y2="950.17"/>
<line class="st0" x1="733.2" y1="970.33" x2="539.09" y2="1107.49"/>
<line class="st0" x1="712.5" y1="1279.5" x2="1024.5" y2="1062.5"/>
<line class="st0" x1="388.44" y1="915.5" x2="969.42" y2="506.52"/>
<polyline class="st0" points="179.87,764.5 219.5,592.5 0.5,521.5 "/>
<polyline class="st0" points="0.5,180.5 414.5,259.5 740.5,320.5 855.84,257.33 "/>
<line class="st0" x1="885.68" y1="1159.05" x2="757.89" y2="975.43"/>
<path class="st0" d="M436.5,0.5l-119,614c0,0-16,57,29,40l105-77c0,0,20-17,32,3l122.95,181.53l131.32,184.78"/>
<polyline class="st0" points="202.83,779.11 333.5,680.5 328.98,657.47 "/>
<line class="st0" x1="219.5" y1="592.5" x2="328.5" y2="0.5"/>
<line class="st0" x1="187.28" y1="216.14" x2="119.67" y2="560.14"/>
<polyline class="st0" points="468,269.51 468.5,267.5 522.5,0.5 "/>
<polyline class="st0" points="555.11,285.81 555.5,283.5 606.5,0.5 "/>
<polyline class="st0" points="683.5,0.5 737.5,307.5 740.5,320.5 "/>
<line class="st0" x1="824.5" y1="464.5" x2="890.97" y2="561.74"/>
<line class="st0" x1="790.19" y1="632.69" x2="665.54" y2="445.57"/>
<line class="st0" x1="473.93" y1="571.77" x2="875.74" y2="307.12"/>
<circle class="st0" cx="748" cy="961" r="17.5"/>
<line class="st0" x1="33.72" y1="915.6" x2="33.5" y2="915.5"/>
<path class="st0" d="M1024.5,197.5c0,0-0.35-0.78-1-2.23"/>
<line class="st0" x1="1024.5" y1="764.5" x2="761.73" y2="950.17"/>
<line class="st0" x1="733.2" y1="970.33" x2="539.09" y2="1107.49"/>
<line class="st0" x1="712.5" y1="1279.5" x2="1024.5" y2="1062.5"/>
<line class="st0" x1="388.44" y1="915.5" x2="969.42" y2="506.52"/>
<polyline class="st0" points="179.87,764.5 219.5,592.5 0.5,521.5 "/>
<polyline class="st0" points="0.5,180.5 414.5,259.5 671.46,307.58 740.5,320.5 855.84,257.33 "/>
<line class="st0" x1="885.68" y1="1159.05" x2="757.89" y2="975.43"/>
<path class="st0" d="M436.5,0.5l-119,614c0,0-16,57,29,40l105-77c0,0,20-17,32,3l122.95,181.53l131.32,184.78"/>
<polyline class="st0" points="202.83,779.11 333.5,680.5 328.98,657.47 "/>
<line class="st0" x1="219.5" y1="592.5" x2="328.5" y2="0.5"/>
<line class="st0" x1="187.28" y1="216.14" x2="119.67" y2="560.14"/>
<polyline class="st0" points="468,269.51 468.5,267.5 522.5,0.5 "/>
<polyline class="st0" points="555.11,285.81 555.5,283.5 606.5,0.5 "/>
<polyline class="st0" points="683.5,0.5 737.5,307.5 740.5,320.5 "/>
<polyline class="st0" points="890.97,561.74 824.5,464.5 724.07,533.43 "/>
<line class="st0" x1="790.19" y1="632.69" x2="665.54" y2="445.57"/>
<line class="st0" x1="473.93" y1="571.77" x2="875.74" y2="307.12"/>
<circle class="st0" cx="748" cy="961" r="17.5"/>
<path class="st0" d="M671,307L431,474c0,0-59.7,48.24-90.85,23.62"/>
<polyline class="st0" points="369.47,346.33 505.58,368.56 567.9,378.74 506,369 519.32,412.54 "/>
<text transform="matrix(0.9523 0.3051 -0.3051 0.9523 102.4777 890.4662)" class="st1 st2 st3">MANLY WHARF</text>
<text transform="matrix(0.8323 -0.5543 0.5543 0.8323 495.5138 500.8841)" class="st1 st2 st3">THE CORSO</text>
<text transform="matrix(0.8763 -0.4818 0.4818 0.8763 749.3171 264.656)"><tspan x="0" y="0" class="st1 st2 st3">HOTEL</tspan><tspan x="-5.84" y="24" class="st1 st2 st3">STYENE</tspan></text>
<text transform="matrix(1 0 0 1 136.8472 1234.8947)" class="st4 st2 st3">EAST COVE</text>
<g>
	<text transform="matrix(0.5291 0.8486 -0.8486 0.5291 458.6912 1049.1628)" class="st1 st2 st3">&quot;THE OFFICE&quot;</text>
</g>
<text transform="matrix(1 0 0 1 87.8472 106.8947)" class="st1 st2 st3">MANLY OVAL</text>
<text transform="matrix(0.3759 0.9267 -0.9266 0.3759 911.8977 50.5201)" class="st4 st2 st3">MANLY BEACH</text>
<rect x="0.5" y="0.5" class="st5" width="1023" height="1279"/>
<path class="st6" d="M0.5,784.97l35.55,15.1c21.87,9.3,32.07,34.57,22.77,56.45l-24.99,58.83c-0.04,0.08-0.07,0.17-0.11,0.25"/>
<path class="st6" d="M528.94,1279.5c-5.99-26.42-13.18-51.3-21.44-71c-31-74-98-159-116-182s-48-7-48-7l17,21l-8,6c0,0-9-13-13-18
	s-36-17-45-19s-14,4-12,16s-3,16-11,19s-25-4-25-4l-13,42l19,8l-39,16l5-14l-17-7l10-27l19,7l18-58l-16-7l-17-22l-58-21l-67,184
	l-76-27l65-179l-45.78-19.9l-0.22-0.1"/>
<path class="st6" d="M938.5,0.5c0,0,32,23,32,50s54,147,54,147"/>
<path class="st6" d="M0.5,717.5c0,0,392,135,566,562h67c0,0-35.42-78.69-94.46-172.09c-54.49-86.21-129.1-184.95-214.54-245.91
	c-178-127-324-201-324-201"/>
<line class="st6" x1="1024.5" y1="764.5" x2="761.73" y2="950.17"/>
<line class="st6" x1="733.2" y1="970.33" x2="539.09" y2="1107.49"/>
<line class="st6" x1="712.5" y1="1279.5" x2="1024.5" y2="1062.5"/>
<line class="st6" x1="388.44" y1="915.5" x2="969.42" y2="506.52"/>
<polyline class="st6" points="179.87,764.5 219.5,592.5 0.5,521.5 "/>
<polyline class="st6" points="0.5,180.5 414.5,259.5 740.5,320.5 855.84,257.33 "/>
<line class="st6" x1="885.68" y1="1159.05" x2="757.89" y2="975.43"/>
<path class="st6" d="M436.5,0.5l-119,614c0,0-16,57,29,40l105-77c0,0,20-17,32,3l122.95,181.53l131.32,184.78"/>
<polyline class="st6" points="202.83,779.11 333.5,680.5 328.98,657.47 "/>
<line class="st6" x1="219.5" y1="592.5" x2="328.5" y2="0.5"/>
<line class="st6" x1="187.28" y1="216.14" x2="119.67" y2="560.14"/>
<polyline class="st6" points="468,269.51 468.5,267.5 522.5,0.5 "/>
<polyline class="st6" points="555.11,285.81 555.5,283.5 606.5,0.5 "/>
<polyline class="st6" points="683.5,0.5 737.5,307.5 740.5,320.5 "/>
<line class="st6" x1="824.5" y1="464.5" x2="890.97" y2="561.74"/>
<line class="st6" x1="790.19" y1="632.69" x2="665.54" y2="445.57"/>
<line class="st6" x1="473.93" y1="571.77" x2="875.74" y2="307.12"/>
<circle class="st6" cx="748" cy="961" r="17.5"/>
<line class="st6" x1="33.72" y1="915.6" x2="33.5" y2="915.5"/>
<path class="st6" d="M1024.5,197.5c0,0-0.35-0.78-1-2.23"/>
<path class="st6" d="M769.5,0.5c0,0,96,355,255,599"/>
<path class="st6" d="M0.5,717.5c0,0,392,135,566,562h67c0,0-35.42-78.69-94.46-172.09c-54.49-86.21-129.1-184.95-214.54-245.91
	c-178-127-324-201-324-201"/>
<line class="st6" x1="1024.5" y1="764.5" x2="761.73" y2="950.17"/>
<line class="st6" x1="733.2" y1="970.33" x2="539.09" y2="1107.49"/>
<line class="st6" x1="712.5" y1="1279.5" x2="1024.5" y2="1062.5"/>
<line class="st6" x1="388.44" y1="915.5" x2="969.42" y2="506.52"/>
<polyline class="st6" points="179.87,764.5 219.5,592.5 0.5,521.5 "/>
<polyline class="st6" points="0.5,180.5 414.5,259.5 671.46,307.58 740.5,320.5 855.84,257.33 "/>
<line class="st6" x1="885.68" y1="1159.05" x2="757.89" y2="975.43"/>
<path class="st6" d="M436.5,0.5l-119,614c0,0-16,57,29,40l105-77c0,0,20-17,32,3l122.95,181.53l131.32,184.78"/>
<polyline class="st6" points="202.83,779.11 333.5,680.5 328.98,657.47 "/>
<line class="st6" x1="219.5" y1="592.5" x2="328.5" y2="0.5"/>
<line class="st6" x1="187.28" y1="216.14" x2="119.67" y2="560.14"/>
<line class="st6" x1="0.5" y1="500.5" x2="59.97" y2="191.85"/>
<polyline class="st6" points="468,269.51 468.5,267.5 522.5,0.5 "/>
<polyline class="st6" points="555.11,285.81 555.5,283.5 606.5,0.5 "/>
<polyline class="st6" points="683.5,0.5 737.5,307.5 740.5,320.5 "/>
<polyline class="st6" points="890.97,561.74 824.5,464.5 724.07,533.43 "/>
<line class="st6" x1="790.19" y1="632.69" x2="665.54" y2="445.57"/>
<line class="st6" x1="473.93" y1="571.77" x2="875.74" y2="307.12"/>
<circle class="st6" cx="748" cy="961" r="17.5"/>
<path class="st7" d="M528.94,1279.5H0.5V784.97l35.55,15.1c21.87,9.3,32.07,34.57,22.77,56.45l-24.99,58.83
	c-0.04,0.08-0.07,0.17-0.11,0.25l45.78,19.9l-65,179l76,27l67-184l58,21l17,22l16,7l-18,58l-19-7l-10,27l17,7l-5,14l39-16l-19-8
	l13-42c0,0,17,7,25,4s13-7,11-19s3-18,12-16s41,14,45,19s13,18,13,18l8-6l-17-21c0,0,30-16,48,7s85,108,116,182
	C515.76,1228.2,522.95,1253.08,528.94,1279.5z"/>
<path class="st7" d="M1023.5,0.5v477.4c-88.77-141.94-190-477.4-190-477.4H1023.5z"/>
<path class="st6" d="M671,307L431,474c0,0-59.7,48.24-90.85,23.62"/>
<polyline class="st6" points="369.47,346.33 505.58,368.56 567.9,378.74 506,369 519.32,412.54 "/>
<g>
	<line class="st8" x1="914" y1="1208" x2="976" y2="1208"/>
	<g>
		<text transform="matrix(0.9523 0.3051 -0.3051 0.9523 102.4777 890.4662)" class="st9 st2 st3">MANLY WHARF</text>
		<text transform="matrix(0.8323 -0.5543 0.5543 0.8323 458.5138 526.8841)" class="st9 st2 st3">THE CORSO</text>
		<text transform="matrix(0.8763 -0.4818 0.4818 0.8763 749.3171 264.656)"><tspan x="0" y="0" class="st9 st2 st3">HOTEL</tspan><tspan x="-5.84" y="24" class="st9 st2 st3">STYENE</tspan></text>
		<text transform="matrix(1 0 0 1 136.8472 1234.8947)" class="st5 st2 st3">EAST COVE</text>
		<g>
			<text transform="matrix(0.5291 0.8486 -0.8486 0.5291 458.6912 1049.1628)" class="st9 st2 st3">&quot;THE OFFICE&quot;</text>
		</g>
		<text transform="matrix(1 0 0 1 87.8472 106.8947)" class="st9 st2 st3">MANLY OVAL</text>
		<text transform="matrix(0.3759 0.9267 -0.9266 0.3759 911.8977 50.5201)" class="st5 st2 st3">MANLY BEACH</text>
		<circle class="st8" cx="944.68" cy="1208" r="31"/>
		<text transform="matrix(1 0 0 1 935.3243 1167.0665)" class="st10 st2 st3">N</text>
		<text transform="matrix(1 0 0 1 937.1622 1266.0665)" class="st10 st2 st3">S</text>
		<text transform="matrix(1 0 0 1 879.082 1214.0665)" class="st10 st2 st3">W</text>
		<text transform="matrix(1 0 0 1 987.082 1214.0665)" class="st10 st2 st3">E</text>
		<line class="st8" x1="945" y1="1239" x2="945" y2="1177"/>
	</g>
</g>
<text transform="matrix(1 0 0 1 615.8564 417.7651)" class="st9 st11 st3">BUTTERBOY</text>
<path class="st9" d="M726,492"/>
<g>
	<path class="st9" d="M708,427c-7.18,0-13,5.82-13,13c0,2.67,0.81,5.15,2.19,7.22c0.01,0.03,6.35,13.72,6.35,13.72
		c1.76,3.8,7.16,3.8,8.92,0l6.31-13.62c0.02-0.03,0.03-0.07,0.04-0.1c1.38-2.07,2.19-4.55,2.19-7.22C721,432.82,715.18,427,708,427z
		 M708,447.5c-4.14,0-7.5-3.36-7.5-7.5s3.36-7.5,7.5-7.5s7.5,3.36,7.5,7.5S712.14,447.5,708,447.5z"/>
	<circle class="st12" cx="708" cy="440" r="7.5"/>
	<circle class="st12" cx="708" cy="440" r="7.5"/>
</g>
<g id="J8aNu7_00000072256906972775240690000008046271464519750789_">
	<g>
		<path class="st9" d="M369,468.47c0-6.31,0-12.62,0-18.94c0-0.02,0.01-0.04,0.01-0.06c0.02-0.29,0.08-0.56,0.19-0.83
			c0.4-0.9,1.08-1.44,2.05-1.61c0.1-0.02,0.19-0.02,0.29-0.04c6.3,0,12.61,0,18.91,0c0.02,0,0.05,0.01,0.07,0.01
			c0.17,0.03,0.35,0.04,0.51,0.09c1.08,0.33,1.72,1.05,1.93,2.16c0.02,0.09,0.02,0.18,0.04,0.27c0,6.31,0,12.62,0,18.94
			c-0.01,0.04-0.01,0.09-0.02,0.13c-0.05,0.48-0.21,0.92-0.5,1.31c-0.44,0.58-1.02,0.94-1.74,1.05c-0.09,0.01-0.19,0.02-0.28,0.04
			c-6.3,0-12.61,0-18.91,0c-0.05-0.01-0.1-0.01-0.15-0.02c-0.48-0.05-0.91-0.21-1.3-0.5c-0.59-0.44-0.94-1.02-1.06-1.74
			C369.02,468.65,369.01,468.56,369,468.47z M378.49,462.02c0.04,0,0.06,0,0.09,0c1.07,0,2.15,0,3.22,0c0.46,0,0.92-0.02,1.38-0.06
			c0.56-0.05,1.11-0.14,1.66-0.27c0.83-0.21,1.62-0.52,2.33-1.01c0.75-0.51,1.35-1.16,1.77-1.97c0.42-0.82,0.62-1.7,0.67-2.61
			c0.02-0.38,0.02-0.76-0.01-1.14c-0.03-0.48-0.11-0.94-0.24-1.4c-0.22-0.78-0.58-1.48-1.11-2.09c-0.67-0.76-1.49-1.3-2.43-1.66
			c-0.69-0.27-1.41-0.43-2.15-0.53c-0.54-0.07-1.08-0.11-1.62-0.11c-2.86,0-5.72,0-8.58,0c-0.07,0-0.07,0-0.07,0.08
			c0,6.51,0,13.02,0,19.52c0,0.08,0,0.08,0.09,0.08c1.64,0,3.28,0,4.92,0c0.02,0,0.03,0,0.05,0c0.02-0.01,0.03-0.02,0.04-0.04
			c0.01-0.02,0-0.04,0-0.06c0-2.21,0-4.42,0-6.63C378.49,462.08,378.49,462.05,378.49,462.02z"/>
		<path class="st9" d="M378.5,458.33c0-1.83,0-3.66,0-5.49c0.02,0,0.03,0,0.04,0c0.95,0,1.9,0,2.85,0c0.46,0,0.91,0.06,1.34,0.22
			c0.88,0.33,1.42,0.95,1.58,1.88c0.1,0.57,0.08,1.13-0.1,1.68c-0.24,0.72-0.74,1.2-1.44,1.47c-0.32,0.12-0.65,0.19-1,0.21
			c-0.23,0.01-0.46,0.02-0.69,0.02c-0.84,0-1.67,0-2.51,0C378.55,458.33,378.53,458.33,378.5,458.33z"/>
	</g>
</g>
<g id="J8aNu7_00000074427522719285714990000012711679679434979989_">
	<g>
		<path class="st9" d="M812,531.47c0-6.31,0-12.62,0-18.94c0-0.02,0.01-0.04,0.01-0.06c0.02-0.29,0.08-0.56,0.19-0.83
			c0.4-0.9,1.08-1.44,2.05-1.61c0.1-0.02,0.19-0.02,0.29-0.04c6.3,0,12.61,0,18.91,0c0.02,0,0.05,0.01,0.07,0.01
			c0.17,0.03,0.35,0.04,0.51,0.09c1.08,0.33,1.72,1.05,1.93,2.16c0.02,0.09,0.02,0.18,0.04,0.27c0,6.31,0,12.62,0,18.94
			c-0.01,0.04-0.01,0.09-0.02,0.13c-0.05,0.48-0.21,0.92-0.5,1.31c-0.44,0.58-1.02,0.94-1.74,1.05c-0.09,0.01-0.19,0.02-0.28,0.04
			c-6.3,0-12.61,0-18.91,0c-0.05-0.01-0.1-0.01-0.15-0.02c-0.48-0.05-0.91-0.21-1.3-0.5c-0.59-0.44-0.94-1.02-1.06-1.74
			C812.02,531.65,812.01,531.56,812,531.47z M821.49,525.02c0.04,0,0.06,0,0.09,0c1.07,0,2.15,0,3.22,0c0.46,0,0.92-0.02,1.38-0.06
			c0.56-0.05,1.11-0.14,1.66-0.27c0.83-0.21,1.62-0.52,2.33-1.01c0.75-0.51,1.35-1.16,1.77-1.97c0.42-0.82,0.62-1.7,0.67-2.61
			c0.02-0.38,0.02-0.76-0.01-1.14c-0.03-0.48-0.11-0.94-0.24-1.4c-0.22-0.78-0.58-1.48-1.11-2.09c-0.67-0.76-1.49-1.3-2.43-1.66
			c-0.69-0.27-1.41-0.43-2.15-0.53c-0.54-0.07-1.08-0.11-1.62-0.11c-2.86,0-5.72,0-8.58,0c-0.07,0-0.07,0-0.07,0.08
			c0,6.51,0,13.02,0,19.52c0,0.08,0,0.08,0.09,0.08c1.64,0,3.28,0,4.92,0c0.02,0,0.03,0,0.05,0c0.02-0.01,0.03-0.02,0.04-0.04
			c0.01-0.02,0-0.04,0-0.06c0-2.21,0-4.42,0-6.63C821.49,525.08,821.49,525.05,821.49,525.02z"/>
		<path class="st9" d="M821.5,521.33c0-1.83,0-3.66,0-5.49c0.02,0,0.03,0,0.04,0c0.95,0,1.9,0,2.85,0c0.46,0,0.91,0.06,1.34,0.22
			c0.88,0.33,1.42,0.95,1.58,1.88c0.1,0.57,0.08,1.13-0.1,1.68c-0.24,0.72-0.74,1.2-1.44,1.47c-0.32,0.12-0.65,0.19-1,0.21
			c-0.23,0.01-0.46,0.02-0.69,0.02c-0.84,0-1.67,0-2.51,0C821.55,521.33,821.53,521.33,821.5,521.33z"/>
	</g>
</g>
<g id="J8aNu7_00000013170821569058228690000001226929872083476142_">
	<g>
		<path class="st9" d="M531,198.47c0-6.31,0-12.62,0-18.94c0-0.02,0.01-0.04,0.01-0.06c0.02-0.29,0.08-0.56,0.19-0.83
			c0.4-0.9,1.08-1.44,2.05-1.61c0.1-0.02,0.19-0.02,0.29-0.04c6.3,0,12.61,0,18.91,0c0.02,0,0.05,0.01,0.07,0.01
			c0.17,0.03,0.35,0.04,0.51,0.09c1.08,0.33,1.72,1.05,1.93,2.16c0.02,0.09,0.02,0.18,0.04,0.27c0,6.31,0,12.62,0,18.94
			c-0.01,0.04-0.01,0.09-0.02,0.13c-0.05,0.48-0.21,0.92-0.5,1.31c-0.44,0.58-1.02,0.94-1.74,1.05c-0.09,0.01-0.19,0.02-0.28,0.04
			c-6.3,0-12.61,0-18.91,0c-0.05-0.01-0.1-0.01-0.15-0.02c-0.48-0.05-0.91-0.21-1.3-0.5c-0.59-0.44-0.94-1.02-1.06-1.74
			C531.02,198.65,531.01,198.56,531,198.47z M540.49,192.02c0.04,0,0.06,0,0.09,0c1.07,0,2.15,0,3.22,0c0.46,0,0.92-0.02,1.38-0.06
			c0.56-0.05,1.11-0.14,1.66-0.27c0.83-0.21,1.62-0.52,2.33-1.01c0.75-0.51,1.35-1.16,1.77-1.97c0.42-0.82,0.62-1.7,0.67-2.61
			c0.02-0.38,0.02-0.76-0.01-1.14c-0.03-0.48-0.11-0.94-0.24-1.4c-0.22-0.78-0.58-1.48-1.11-2.09c-0.67-0.76-1.49-1.3-2.43-1.66
			c-0.69-0.27-1.41-0.43-2.15-0.53c-0.54-0.07-1.08-0.11-1.62-0.11c-2.86,0-5.72,0-8.58,0c-0.07,0-0.07,0-0.07,0.08
			c0,6.51,0,13.02,0,19.52c0,0.08,0,0.08,0.09,0.08c1.64,0,3.28,0,4.92,0c0.02,0,0.03,0,0.05,0c0.02-0.01,0.03-0.02,0.04-0.04
			c0.01-0.02,0-0.04,0-0.06c0-2.21,0-4.42,0-6.63C540.49,192.08,540.49,192.05,540.49,192.02z"/>
		<path class="st9" d="M540.5,188.33c0-1.83,0-3.66,0-5.49c0.02,0,0.03,0,0.04,0c0.95,0,1.9,0,2.85,0c0.46,0,0.91,0.06,1.34,0.22
			c0.88,0.33,1.42,0.95,1.58,1.88c0.1,0.57,0.08,1.13-0.1,1.68c-0.24,0.72-0.74,1.2-1.44,1.47c-0.32,0.12-0.65,0.19-1,0.21
			c-0.23,0.01-0.46,0.02-0.69,0.02c-0.84,0-1.67,0-2.51,0C540.55,188.33,540.53,188.33,540.5,188.33z"/>
	</g>
</g>
<g id="J8aNu7_00000072269575979002713600000004942569266526626958_">
	<g>
		<path class="st9" d="M601,144.47c0-6.31,0-12.62,0-18.94c0-0.02,0.01-0.04,0.01-0.06c0.02-0.29,0.08-0.56,0.19-0.83
			c0.4-0.9,1.08-1.44,2.05-1.61c0.1-0.02,0.19-0.02,0.29-0.04c6.3,0,12.61,0,18.91,0c0.02,0,0.05,0.01,0.07,0.01
			c0.17,0.03,0.35,0.04,0.51,0.09c1.08,0.33,1.72,1.05,1.93,2.16c0.02,0.09,0.02,0.18,0.04,0.27c0,6.31,0,12.62,0,18.94
			c-0.01,0.04-0.01,0.09-0.02,0.13c-0.05,0.48-0.21,0.92-0.5,1.31c-0.44,0.58-1.02,0.94-1.74,1.05c-0.09,0.01-0.19,0.02-0.28,0.04
			c-6.3,0-12.61,0-18.91,0c-0.05-0.01-0.1-0.01-0.15-0.02c-0.48-0.05-0.91-0.21-1.3-0.5c-0.59-0.44-0.94-1.02-1.06-1.74
			C601.02,144.65,601.01,144.56,601,144.47z M610.49,138.02c0.04,0,0.06,0,0.09,0c1.07,0,2.15,0,3.22,0c0.46,0,0.92-0.02,1.38-0.06
			c0.56-0.05,1.11-0.14,1.66-0.27c0.83-0.21,1.62-0.52,2.33-1.01c0.75-0.51,1.35-1.16,1.77-1.97c0.42-0.82,0.62-1.7,0.67-2.61
			c0.02-0.38,0.02-0.76-0.01-1.14c-0.03-0.48-0.11-0.94-0.24-1.4c-0.22-0.78-0.58-1.48-1.11-2.09c-0.67-0.76-1.49-1.3-2.43-1.66
			c-0.69-0.27-1.41-0.43-2.15-0.53c-0.54-0.07-1.08-0.11-1.62-0.11c-2.86,0-5.72,0-8.58,0c-0.07,0-0.07,0-0.07,0.08
			c0,6.51,0,13.02,0,19.52c0,0.08,0,0.08,0.09,0.08c1.64,0,3.28,0,4.92,0c0.02,0,0.03,0,0.05,0c0.02-0.01,0.03-0.02,0.04-0.04
			c0.01-0.02,0-0.04,0-0.06c0-2.21,0-4.42,0-6.63C610.49,138.08,610.49,138.05,610.49,138.02z"/>
		<path class="st9" d="M610.5,134.33c0-1.83,0-3.66,0-5.49c0.02,0,0.03,0,0.04,0c0.95,0,1.9,0,2.85,0c0.46,0,0.91,0.06,1.34,0.22
			c0.88,0.33,1.42,0.95,1.58,1.88c0.1,0.57,0.08,1.13-0.1,1.68c-0.24,0.72-0.74,1.2-1.44,1.47c-0.32,0.12-0.65,0.19-1,0.21
			c-0.23,0.01-0.46,0.02-0.69,0.02c-0.84,0-1.67,0-2.51,0C610.55,134.33,610.53,134.33,610.5,134.33z"/>
	</g>
</g>
</svg>
