<?xml version="1.0" encoding="utf-8"?>
<!-- Generator: Adobe Illustrator 26.1.0, SVG Export Plug-In . SVG Version: 6.00 Build 0)  -->
<svg version="1.1" id="Layer_1" xmlns="http://www.w3.org/2000/svg" xmlns:xlink="http://www.w3.org/1999/xlink" x="0px" y="0px"
	 viewBox="0 0 202.41 211.33" style="enable-background:new 0 0 202.41 211.33;" xml:space="preserve">
<style type="text/css">
	.st0{fill:#DA3832;}
</style>
<g>
	<path class="st0" d="M202.02,97.57c-0.31-6.31-2.15-12.45-4.09-18.5c-2.98-9.31-6.97-18.15-12.67-26.11
		c-2.86-4.01-6.17-7.69-9.25-11.55c-0.46-0.58-0.98-1.31-1.02-2c-0.43-6.78-3.01-12.87-6.43-18.52c-5.34-8.79-13-14.95-22.58-18.84
		c-6.11-2.48-12.42-2.07-18.73-1.93c-0.51,0-1.02,0.26-1.5,0.43c-4.48,1.58-7.83,4.41-9.89,9.09c-2.04-0.38-3.9-1.05-5.75-1.01
		c-6.84,0.12-13.68-0.46-20.53,0.45c-9.09,1.21-17.89,3.47-26.42,6.69c-7.83,2.97-14.93,7.36-21.72,12.25
		c-4.72,3.41-9.21,7.09-13.07,11.48c-3.04,3.46-6.39,6.68-9.01,10.42c-6.21,8.84-11.4,18.25-14.67,28.64
		c-1.96,6.21-3.74,12.47-4.24,18.98c-0.3,3.89-0.3,7.81-0.34,11.71c-0.04,3.91-0.28,7.86,0.11,11.74c0.94,9.35,3.23,18.4,6.89,27.1
		c5.39,12.77,12.59,24.3,22.65,33.97c5.66,5.42,11.52,10.51,18.32,14.49c7.15,4.19,14.49,7.86,22.4,10.37
		c8.99,2.85,18.09,4.8,27.62,4.34c4.34-0.2,8.69-0.02,13.04-0.03c0.87-0.01,1.75-0.04,2.6-0.16c9.17-1.23,18.01-3.62,26.54-7.2
		c6.1-2.57,11.95-5.66,17.44-9.29c4.25-2.82,8.14-6.23,11.96-9.62c10.16-8.97,17.91-19.71,23.59-32.04
		c4.38-9.54,7.74-19.42,8.66-29.82C202.68,114.65,202.42,106.07,202.02,97.57z M123.99,5.33c3.98-2.38,8.31-2.55,12.64-1.66
		c14.59,2.97,24.74,11.54,30.17,25.31c7.92,20.12-0.75,42.67-19.94,51.71c-14.64,6.89-28.56,4.83-41.45-4.72
		c-2.16-1.6-4.16-3.42-6.25-5.12c-0.78-0.63-1.59-1.21-2.54-1.55c7.09,12.11,17.63,18.98,31.58,20.34
		c13.23,1.28,24.43-3.03,33.83-12.26c0.55-0.55,1.1-1.1,1.64-1.68l0.01-0.01c0.2,0.36,0.38,0.68,0.55,0.98
		c0.17,0.3,0.32,0.58,0.44,0.88c4.23,10.63,4.79,21.48,1.53,32.42c-2.42,8.11-4.09,16.33-4.49,24.79c-0.12,2.57-0.31,5.15-0.49,7.95
		c-0.88-0.43-1.62-0.8-2.59-1.28c0.34-1.2,0.66-2.34,1.02-3.47c1.91-6.07,2.45-12.25,1.33-18.52c-0.82-4.54-2.57-8.66-5.88-11.99
		c-4.12-4.16-9.98-4.97-15.06-2.04c-4.97,2.87-8.02,7.35-10.05,12.58c-2.71,6.98-3.19,14.16-1.45,21.56
		c0.15-0.97,0.41-1.94,0.44-2.91c0.04-1.2,0.11-2.39,0.21-3.57c0.1-1.19,0.24-2.36,0.42-3.53c0.18-1.17,0.4-2.32,0.67-3.47
		c0.63-2.68,1.54-5.29,2.82-7.83c1.47-2.91,3.32-5.51,5.81-7.61c0.98-0.84,2.11-1.56,3.27-2.11c3.54-1.7,7.28-1.08,10.16,1.58
		c1.75,1.63,3.02,3.61,3.81,5.86c2.83,8.06,1.94,16.03-0.64,24.14c-0.68-0.16-1.21-0.27-1.93-0.44c1.51-5.11,2.17-10.13,0.89-15.51
		v-0.01c-0.29,0.24-0.59,0.47-0.88,0.69c-0.07,0.06-0.15,0.11-0.22,0.16c-0.15,0.1-0.3,0.2-0.44,0.3c-0.08,0.05-0.15,0.09-0.23,0.13
		c-0.15,0.09-0.29,0.17-0.44,0.24c-1.04,0.48-2.14,0.52-3.38-0.44c-1.19-0.93-1.36-2.2-1.04-3.53c0.53-2.25,2.49-2.34,4.32-2.55
		c-2.13-3.81-5.68-5.16-9.49-3.71c-2.8,1.08-4.78,3.15-6.33,5.61c-3.46,5.5-4.65,11.54-4.02,17.97c0.04,0.42,0.08,0.86,0.11,1.29
		c0,0.08-0.05,0.15-0.13,0.42c-0.62,0.3-1.37,0.66-2.12,1.02c0.05,0.15,0.08,0.31,0.12,0.48c2.18-0.27,4.36-0.52,6.55-0.78
		c5.74-0.69,11.47-0.75,16.99,1.29c1.93,0.72,3.86,1.62,5.55,2.79c1.59,1.1,2.9,2.36,3.91,3.75c2.34,3.22,3.08,7.11,2.14,11.16
		c-0.13,0.57-0.3,1.15-0.5,1.72c-0.2,0.58-0.43,1.15-0.7,1.73c-2.5,5.41-6.5,9.59-11.57,12.39c-5.35,2.95-10.77,5.78-16.43,8.03
		c-1.25,0.5-2.52,0.97-3.8,1.41c-3.21,1.1-6.49,1.98-9.88,2.59c-7.22,1.28-14.48,1.42-21.81,1c-8-0.45-15.57-2.55-23.06-5.12
		c-4.92-1.69-9.96-3.11-14.74-5.12c-1.77-0.74-3.47-1.59-5.1-2.55c-0.65-0.39-1.29-0.79-1.91-1.21c-1.87-1.26-3.63-2.7-5.25-4.35
		c-0.6-0.61-1.18-1.25-1.75-1.92c-0.18-0.22-0.37-0.45-0.55-0.68c-0.47-0.59-0.89-1.18-1.28-1.78c-0.13-0.2-0.25-0.4-0.37-0.6
		c-0.16-0.26-0.31-0.52-0.45-0.79c-0.22-0.43-0.43-0.85-0.62-1.27c-0.09-0.22-0.18-0.44-0.26-0.65c-0.25-0.64-0.45-1.27-0.6-1.91
		c-0.05-0.21-0.1-0.42-0.14-0.63c-1.04-5.38,1.23-10.56,6.72-14.55c1-0.73,2.03-1.38,3.09-1.97c0.7-0.39,1.42-0.76,2.14-1.09
		c0.73-0.34,1.46-0.65,2.21-0.93c0.37-0.14,0.74-0.28,1.12-0.41c0.75-0.26,1.51-0.5,2.28-0.72c0.39-0.1,0.77-0.21,1.16-0.31
		c0.78-0.2,1.56-0.38,2.35-0.54c0.79-0.17,1.58-0.31,2.38-0.44c0.4-0.07,0.8-0.13,1.2-0.19c9.69-1.43,19.23-0.35,28.71,1.8
		c2.35,0.53,4.73,0.94,7.16,1.22c-2.81-2.07-6.31-2.41-9.61-3.9c2.12-5.71,2.47-11.44,0.12-17.56c-1.74,2.09-3.57,3.5-6.1,2.08
		c-0.33-0.18-0.62-0.39-0.86-0.63c-0.8-0.77-1.18-1.82-1.11-3.07c0.14-2.59,2.02-3.43,4.46-4c-0.54-0.66-0.87-1.22-1.34-1.63
		c-6.25-5.5-15.08-4.52-20.12,2.34c-4.06,5.52-4.99,11.71-3.49,18.32c0.15,0.67,0.32,1.34,0.55,2.32c-0.82,0.18-1.59,0.34-2.46,0.52
		c-1.63-4.19-2.03-8.32-1.78-12.5c0.4-6.94,2.86-12.98,8-17.86c6.68-6.33,16.03-6.91,23.29-1.26c5.53,4.31,8.58,10.17,10.19,16.85
		c1.03,4.34,1.37,8.74,0.75,13.19c-0.04,0.29,0.08,0.62,0.15,1.11c0.35-0.28,0.63-0.39,0.69-0.57c3.46-10.47,1.45-23.75-8.06-31.96
		c-10.94-9.45-28.66-7.56-36.7,7.13c-4.21,7.67-4.25,15.78-2.07,24.04c0.22,0.84,0.53,1.65,0.79,2.48c0.02,0.06-0.03,0.15-0.09,0.36
		c-8.98,2.87-17.45,6.53-20.46,16.86c-2.19-0.21-3.84-1.38-5.23-2.79c-3.8-3.84-5.71-8.49-4.84-13.93c1.13-7.11,7.16-9.7,12.71-6.71
		c0.66,0.36,1.37,0.63,2.06,0.94c0.1-0.13,0.21-0.27,0.32-0.4c-0.25-0.21-0.49-0.42-0.74-0.63c-0.49-0.42-0.98-0.84-1.46-1.27
		c-0.24-0.22-0.48-0.44-0.71-0.66c-0.17-0.16-0.35-0.32-0.54-0.48c-0.18-0.16-0.36-0.33-0.53-0.5c-0.34-0.34-0.63-0.7-0.77-1.11
		c-2.62-7.52-6.01-14.8-7.32-22.77c-3.05-18.6,2.18-34.5,15.41-47.85c6.47-6.52,14.23-11.06,22.64-14.6
		c1.04-0.43,2.03-0.96,3.04-1.47c0.09-0.05,0.09-0.3,0.18-0.65c-3.63,0.41-6.88,1.88-10.5,3c0.52-2.49,1.9-4.36,3.44-6.02
		c6.77-7.34,15.2-10.05,25.01-8.61c4.96,0.72,9.51,2.64,13.96,4.86c6.01,2.99,12.06,4.03,18.14,3.54c0.64-0.05,1.27-0.12,1.9-0.2
		c0.64-0.09,1.27-0.19,1.91-0.3c1.27-0.24,2.54-0.53,3.81-0.88c1.59-0.45,3.18-0.98,4.77-1.6c1.55-0.61,2.99-1.4,4.33-2.37
		c1.32-0.96,2.54-2.1,3.63-3.37c2.21-2.59,3.68-5.49,3.66-9.29c0.57,0.68,1.19,1.32,1.68,2.06c8.02,11.55,5.21,26.87-6.4,35.01
		c-6.24,4.37-13.14,5.97-20.51,5.54c-0.76-0.05-1.54-0.11-2.31-0.2c-2.43-0.28-4.82-0.7-7.17-1.29c-0.52-0.13-1.04-0.28-1.56-0.43
		c-0.4-0.11-0.8-0.23-1.19-0.36c-0.54-0.17-1.07-0.35-1.6-0.54c-0.58-0.21-1.15-0.43-1.71-0.66c-0.29-0.12-0.57-0.24-0.85-0.36
		c-0.05-0.02-0.11-0.04-0.16-0.06c-0.32-0.11-0.7-0.13-1.2,0.02c0.4,0.37,0.76,0.79,1.19,1.09c12.7,8.95,30.63,8.09,42.4-2.02
		c12.01-10.32,12.77-28.09,1.71-39.42c-2.33-2.39-4.86-4.48-7.9-5.87c-4.21-1.95-8.53-2.36-12.88-0.58
		c-3.17,1.29-4.83,3.84-5.39,7.14c-0.2,1.16-0.03,2.15,0.37,3.05c0.15,0.32,0.32,0.63,0.51,0.92c0.12,0.2,0.27,0.4,0.42,0.59
		c0.22,0.29,0.46,0.56,0.71,0.84c0.17,0.18,0.34,0.36,0.52,0.54h0.03l0.11,0.07l-0.13-0.06c0-0.01,0-0.01-0.01-0.01
		c-0.48-0.1-0.95-0.25-1.41-0.43c-0.92-0.36-1.79-0.87-2.58-1.49c-0.2-0.15-0.39-0.32-0.58-0.49c-0.18-0.17-0.36-0.35-0.53-0.53
		c-1.4-1.46-2.38-3.28-2.67-5.18C118.43,11.52,120.25,7.57,123.99,5.33z M141.41,16.44c-2.72-0.9-5.2-1.73-8.15-2.72
		C137,12.85,139.49,13.73,141.41,16.44z M185.29,155.76c-23.93,42.62-75.5,60.58-120.54,41.99C19.37,179.04-4.48,129.69,8.64,82.84
		C22.22,34.32,69.39,6.52,115.05,13.46c0.54,7.07,4.65,11.55,11.31,13.5c4.42,1.31,8.87,0.86,13.2-1.79c-1.24-0.94-2.35-0.6-3.4-0.5
		c-2.63,0.24-5.02-0.31-7.04-2.07c-2.01-1.75-2.24-3.9-0.5-6.46c4.59,1.76,9.27,3.55,13.95,5.34c-0.21,2.41-1.38,3.96-2.8,5.18
		c-3.89,3.29-8.43,5.11-13.58,5.17c-2.52,0.03-5.07,0.12-7.54-0.26c-2.36-0.36-4.75-1.05-6.93-2.04c-5.56-2.51-11.23-4.69-17.3-5.48
		c-10.79-1.42-20.38,1.24-28.09,9.16c-3.07,3.13-5.1,7-6.04,11.55c-1.33,0.77-2.69,1.71-4.18,2.38c-3.54,1.61-6.46,4.08-9.37,6.55
		c-9.53,8.09-16.41,17.92-19.18,30.24c-1.14,5.06-1.7,10.2-1,15.49c0.61,4.46,0.63,8.99,2.07,13.31c1.12,3.37,2.38,6.69,3.53,10.05
		c0.45,1.29,0.76,2.65,1.13,3.96c-0.28,0.24-0.46,0.48-0.67,0.54c-5.21,1.27-7.43,6.56-7.7,10.88c-0.55,9.18,5.82,18.59,14.51,21.54
		c0.84,4.35,3.02,8.16,6.07,11.48c3.06,3.35,6.56,6.09,10.62,8.23c5.97,3.16,12.39,4.96,18.71,7.14c5.48,1.89,10.89,4,16.4,5.83
		c4.46,1.49,9.08,2.25,13.83,1.96c1.38-0.07,2.79-0.08,4.17,0c10.15,0.64,19.34-2.45,28.2-7.01c5.47-2.82,11.1-5.34,16.49-8.32
		c7.16-3.95,12.59-9.68,15.1-17.55c1.95-6.09,0.44-11.65-4.39-16.24c-0.52-4.68,0.18-9.4,0.77-14.12
		c0.91-7.17,2.96-14.06,5.05-20.95c1.48-4.91,2.3-10,2.35-15.12c0.09-7.5-1.88-14.56-5.4-21.19c-0.24-0.46-0.5-0.91-0.73-1.34
		c5-7.61,8.76-15.59,8.29-25.19C196.53,70.77,207.78,115.7,185.29,155.76z"/>
	<path class="st0" d="M153.59,124.83c0.29-0.21,0.59-0.44,0.88-0.68v-0.01C154.18,124.38,153.88,124.61,153.59,124.83z
		 M127.51,156.72c-0.07,0.09-0.15,0.18-0.22,0.26c0.08-0.08,0.16-0.17,0.23-0.26c0.13-0.17,0.26-0.34,0.37-0.5
		C127.77,156.38,127.64,156.55,127.51,156.72z M106.59,57.9c-0.05-0.02-0.11-0.04-0.16-0.06c0.05,0.02,0.11,0.05,0.16,0.07
		c0.28,0.12,0.56,0.24,0.85,0.35C107.15,58.14,106.87,58.02,106.59,57.9z M48.39,168.35c-0.47-0.59-0.89-1.18-1.28-1.78
		c0.38,0.6,0.81,1.19,1.27,1.78c0.18,0.23,0.37,0.46,0.56,0.68C48.76,168.81,48.57,168.58,48.39,168.35z M42.04,129.8
		c-0.17-0.16-0.35-0.32-0.54-0.48c0.19,0.17,0.37,0.33,0.54,0.49c0.23,0.22,0.47,0.44,0.71,0.65
		C42.51,130.24,42.27,130.02,42.04,129.8z"/>
	<path class="st0" d="M145.69,164.57c-0.92,0.44-1.84,0.92-2.79,1.32c-3.19,1.33-6.31,2.91-9.61,3.9
		c-8.23,2.49-16.73,2.93-25.28,2.72c-1.45-0.03-2.92,0-4.41,0c-0.27-0.95-0.48-1.61-0.64-2.28c-0.89-3.79-2.62-7.17-5.16-10.1
		c-2.05-2.36-4.59-3.99-7.74-4.47c-3.59-0.52-6.2,1.12-6.97,4.64c-0.39,1.74-0.25,3.59-0.26,5.39c-0.01,0.75,0.21,1.51,0.4,2.83
		c-3.22-1.65-6.04-3.09-8.86-4.53c3.27,3.99,7.05,7.22,11.43,9.78c10.66,6.25,22.05,7.86,33.9,4.85c7.41-1.89,14.3-5.35,20.71-9.58
		c1.91-1.27,3.6-2.9,5.39-4.36L145.69,164.57z M91.74,173.78c-2.96-0.38-4.75-1.91-5.35-4.65c-0.37-1.66-0.75-3.43-0.58-5.1
		c0.33-3.39,3.1-4.72,6.03-2.96c3.62,2.16,6.1,5.32,7.48,9.33c0.56,1.63,1.11,3.26,1.72,5.05c-4.76-0.73-4.57,0.46-9.66-4.1
		C91.52,172.28,91.63,172.99,91.74,173.78z"/>
	<path class="st0" d="M109.57,92.41c-0.14,0.12-0.28,0.23-0.42,0.35c-0.46-0.71-0.93-1.42-1.38-2.13
		c-3.01-4.69-6.83-8.54-11.85-11.06c-9.76-4.91-19.72-2.44-26.89,3.8c-2.57,2.24-4.77,4.81-6.5,7.76c-0.3,0.52-0.66,1-1.31,1.39
		c0.15-0.6,0.25-1.23,0.46-1.8c3.45-9.37,9.82-15.62,19.59-18.1c2.99-0.76,6.07-0.77,9.02,0.13
		C100.29,75.81,106.56,82.54,109.57,92.41z"/>
	<path class="st0" d="M163.74,106.66c-4.03-10.75-11.59-15.53-22.8-14.68c3.85-2.87,11.18-2.96,15.75-0.33
		C161.29,94.29,164.49,100.81,163.74,106.66z"/>
	<path class="st0" d="M127.89,156.22c-0.11,0.16-0.24,0.33-0.37,0.5c-0.07,0.09-0.15,0.18-0.23,0.26c-0.07,0.08-0.15,0.17-0.24,0.25
		c-0.25,0.24-0.53,0.46-0.84,0.66s-0.66,0.38-1.04,0.54c0.03-0.09,0.05-0.18,0.07-0.28c0.04-0.15,0.07-0.29,0.11-0.44
		c0.04-0.13,0.08-0.26,0.12-0.38c1-2.99,0.21-5.07-2.67-6.4c-3.73-1.74-7.44-1.15-11.1,0.3c-0.7,0.28-1.37,0.68-2.06,1.02
		c2.02-3.51,5.43-4.79,9.19-5.34c2.16-0.32,4.32-0.15,6.37,0.75C129.11,149.36,130.2,152.86,127.89,156.22z"/>
	<path class="st0" d="M39.71,148.36c0.01,0.01,0.03,0.03,0.05,0.05l-0.04,0.06C39.72,148.43,39.72,148.39,39.71,148.36"/>
	<path class="st0" d="M44.85,142.42c-0.41,0.08-0.67,0.2-0.9,0.15c-3.07-0.62-4.76,0.99-4.32,4.11c0.07,0.56,0.06,1.12,0.08,1.68
		c-2.86-3.05-1.75-6.55,2.69-8.47c-0.41-0.96-0.89-1.72-1.45-2.27c-0.15-0.16-0.32-0.3-0.49-0.42c-2.01-1.45-4.75-0.43-7.9,3.1
		c-0.2-2.77,1.15-4.56,3.28-5.74c2.16-1.2,4.41-1.05,6.36,0.5C44.58,136.93,45.41,139.43,44.85,142.42z"/>
	<path class="st0" d="M77.2,158.6c-0.51,2.42-1.66,3.7-3.85,4.32c-1.45,0.42-2.71,1.52-4.03,2.3c-1.19-2.94-0.43-4.54,2.67-5.19
		c0.84-0.17,1.71-0.23,2.54-0.45c0.51-0.14,1-0.33,1.56-0.55c0.23-0.09,0.47-0.18,0.72-0.28C76.93,158.7,77.06,158.65,77.2,158.6z"
		/>
	<path class="st0" d="M149.74,165.29c-1.07-1.81-2.51-2.5-4.18-2.74c-1.96-0.29-2.91-1.6-3.59-3.49c2.3,0.36,4.48,0.55,6.57,1.07
		C150.61,160.64,151.03,162.38,149.74,165.29z"/>
	<path class="st0" d="M145.99,164.21c-0.06,0.16-0.12,0.32-0.19,0.47l-0.11-0.11C145.8,164.46,145.89,164.33,145.99,164.21z"/>
	<path class="st0" d="M39.76,148.41c0.06,0.02,0.12,0.03,0.18,0.05c-0.08,0-0.15,0-0.22,0.01L39.76,148.41"/>
</g>
</svg>
