<?xml version="1.0" standalone="no"?>
<!DOCTYPE svg PUBLIC "-//W3C//DTD SVG 20010904//EN"
 "http://www.w3.org/TR/2001/REC-SVG-20010904/DTD/svg10.dtd">
<svg version="1.0" xmlns="http://www.w3.org/2000/svg"
 width="844.000000pt" height="844.000000pt" viewBox="0 0 844.000000 844.000000"
 preserveAspectRatio="xMidYMid meet">
<metadata>
Created by potrace 1.14, written by Peter Selinger 2001-2017
</metadata>
<g transform="translate(0.000000,844.000000) scale(0.100000,-0.100000)"
fill="#000000" stroke="none">
<path d="M5240 8433 c-8 -3 -22 -7 -30 -10 -8 -4 -17 -7 -20 -7 -19 -5 -122
-58 -155 -80 -84 -57 -177 -165 -216 -249 -14 -32 -25 -33 -104 -11 -92 26
-846 25 -970 0 -11 -2 -42 -7 -70 -10 -45 -7 -262 -46 -325 -60 -302 -67 -687
-198 -915 -313 -237 -119 -526 -308 -786 -512 -95 -76 -295 -270 -426 -416
-40 -44 -93 -102 -118 -130 -130 -141 -343 -460 -468 -698 -25 -49 -50 -94
-56 -100 -5 -7 -10 -16 -11 -22 0 -5 -15 -39 -32 -75 -17 -36 -33 -69 -34 -75
-2 -5 -23 -57 -47 -115 -38 -91 -133 -370 -142 -418 -2 -9 -4 -17 -6 -17 -1 0
-3 -9 -5 -20 -2 -11 -15 -63 -29 -115 -14 -52 -27 -106 -30 -120 -4 -27 -10
-55 -25 -135 -9 -47 -17 -119 -26 -230 -8 -113 -12 -835 -4 -900 5 -38 11 -88
14 -110 2 -22 6 -53 9 -70 3 -16 9 -50 12 -75 11 -67 13 -79 30 -155 20 -86
27 -120 25 -120 0 0 9 -27 20 -60 11 -33 20 -61 20 -63 -1 -1 7 -28 16 -60 10
-31 18 -59 19 -62 4 -17 17 -58 25 -75 4 -11 18 -49 31 -85 65 -185 319 -706
351 -718 4 -2 8 -8 8 -13 0 -21 271 -414 310 -449 3 -3 34 -39 69 -80 118
-137 355 -366 531 -511 121 -101 315 -242 360 -263 8 -3 56 -31 105 -61 50
-30 107 -62 128 -71 20 -9 37 -20 37 -25 0 -5 5 -9 10 -9 6 0 79 -33 163 -74
166 -81 199 -96 267 -121 25 -9 54 -21 65 -26 54 -25 401 -133 460 -144 11 -2
29 -6 40 -9 40 -11 220 -46 264 -52 24 -3 48 -7 51 -9 30 -19 965 -28 1100
-12 87 11 103 14 135 21 17 4 46 8 65 10 19 3 67 12 105 21 39 9 79 18 90 20
11 1 27 5 35 7 34 11 246 71 260 73 8 1 22 5 30 8 8 4 60 23 114 42 340 122
700 304 956 484 36 25 67 49 68 53 2 5 7 8 12 8 5 0 19 9 32 20 12 11 52 43
88 72 36 29 70 57 76 63 6 5 37 33 69 60 145 124 294 269 400 390 33 37 75 84
92 104 18 20 33 39 33 42 0 3 13 20 30 39 24 27 115 152 163 223 6 11 22 33
35 50 12 17 22 37 22 44 0 7 4 13 8 13 5 0 14 10 20 23 6 12 26 47 43 77 18
30 45 80 62 110 16 30 34 59 38 65 5 5 9 15 9 23 0 7 7 20 15 29 8 8 13 19 10
24 -4 5 -2 9 3 9 5 0 15 18 22 40 7 22 17 40 22 40 4 0 8 6 8 14 0 12 23 66
81 193 10 24 19 46 19 49 0 3 7 20 15 37 54 119 171 519 190 652 5 36 13 81
20 115 5 29 13 109 23 235 15 188 5 920 -14 1050 -14 99 -38 221 -58 298 -48
186 -171 556 -216 652 -5 11 -23 54 -40 95 -94 227 -319 605 -445 747 -5 6
-21 26 -35 44 -14 18 -62 77 -107 131 -46 53 -83 100 -83 104 0 4 -8 14 -18
23 -36 32 -62 79 -67 122 -17 140 -26 188 -56 289 -49 163 -177 420 -272 545
-109 144 -136 175 -243 275 -83 78 -243 200 -261 200 -3 0 -14 6 -22 14 -63
56 -392 196 -496 211 -23 3 -52 8 -65 11 -29 8 -488 13 -510 7z m385 -138 c22
-3 54 -11 72 -16 17 -6 42 -12 56 -14 135 -25 406 -152 546 -257 87 -65 194
-166 251 -237 19 -24 40 -48 46 -55 24 -26 115 -168 151 -236 84 -161 158
-369 179 -505 20 -127 29 -237 28 -315 -1 -74 -14 -231 -19 -240 -2 -3 -6 -26
-9 -51 -6 -52 -54 -221 -84 -294 -104 -261 -289 -510 -492 -665 -25 -19 -47
-37 -50 -40 -3 -3 -30 -21 -60 -40 -30 -19 -57 -37 -60 -40 -7 -7 -187 -96
-225 -111 -89 -34 -185 -67 -185 -64 0 3 -12 0 -27 -6 -68 -26 -260 -53 -378
-53 -62 0 -205 11 -240 18 -168 35 -298 78 -435 147 -95 47 -207 113 -220 128
-3 4 -24 18 -47 33 -47 31 -190 146 -243 195 -19 18 -42 36 -52 39 -10 3 -18
9 -18 14 0 5 -13 15 -30 24 -36 17 -40 4 -10 -34 11 -14 20 -28 20 -32 0 -4 6
-16 14 -25 8 -10 36 -47 63 -83 97 -132 250 -282 343 -336 16 -10 30 -22 30
-26 0 -4 5 -8 11 -8 6 0 23 -8 37 -19 53 -37 229 -119 321 -150 91 -30 205
-57 286 -68 22 -2 56 -8 75 -12 41 -9 377 -7 435 3 22 4 51 9 65 12 14 3 36 8
49 10 100 19 296 89 386 137 55 30 257 160 275 178 8 8 31 27 50 43 19 15 67
59 107 97 40 38 74 69 77 69 12 0 86 -176 101 -240 2 -8 13 -53 25 -99 12 -47
23 -99 26 -115 2 -17 6 -41 8 -53 13 -61 20 -172 20 -298 0 -170 -12 -286 -45
-420 -5 -22 -11 -48 -14 -57 -2 -9 -13 -51 -25 -93 -12 -42 -23 -84 -26 -93
-2 -9 -19 -79 -39 -156 -19 -76 -37 -150 -39 -165 -2 -14 -5 -26 -6 -26 -1 0
-3 -13 -5 -30 -1 -16 -5 -43 -9 -60 -11 -58 -14 -70 -21 -130 -4 -32 -8 -66
-10 -75 -7 -34 -19 -213 -30 -420 -4 -69 -9 -128 -13 -131 -4 -3 -28 6 -53 20
l-46 26 24 80 c35 112 63 222 69 275 4 25 10 65 15 90 4 25 6 113 4 195 -3
140 -6 169 -21 235 -3 14 -7 36 -9 50 -10 72 -96 285 -125 310 -3 3 -19 23
-36 45 -39 54 -134 145 -151 145 -3 0 -14 7 -24 16 -9 8 -23 17 -31 18 -7 2
-26 8 -42 15 -104 42 -267 36 -363 -14 -15 -8 -31 -15 -35 -15 -17 0 -130 -86
-183 -138 -143 -142 -250 -355 -306 -612 -18 -85 -23 -136 -23 -270 0 -91 3
-178 7 -195 3 -16 9 -52 12 -80 7 -49 24 -86 24 -49 0 10 2 33 5 49 2 17 7 75
11 131 3 55 7 109 9 120 2 10 7 42 10 69 41 312 205 635 396 776 108 81 222
115 322 97 99 -18 188 -80 265 -183 86 -117 146 -347 145 -565 0 -70 -9 -190
-17 -230 -3 -14 -8 -38 -11 -55 -4 -16 -7 -38 -8 -47 0 -10 -4 -18 -9 -18 -4
0 -6 -4 -3 -8 3 -5 -2 -31 -10 -58 -8 -27 -17 -62 -20 -78 -8 -49 -19 -55 -67
-37 -24 9 -24 10 -11 63 8 29 17 64 19 78 3 14 7 36 10 49 23 115 23 273 1
386 -3 11 -5 26 -5 34 -1 11 -6 10 -23 -3 -45 -32 -98 -56 -122 -56 -70 0
-141 76 -129 138 3 15 6 32 7 37 9 46 53 80 115 89 24 3 46 8 49 10 6 6 -37
65 -68 94 -14 13 -49 35 -79 49 -46 22 -63 25 -127 21 -180 -12 -324 -146
-437 -408 -67 -157 -92 -346 -75 -580 3 -31 -1 -37 -39 -58 -53 -29 -55 -45
-5 -38 244 32 334 40 487 40 176 0 259 -12 390 -56 131 -45 244 -108 322 -182
50 -46 119 -134 116 -146 -1 -3 3 -10 9 -17 5 -7 20 -41 32 -77 20 -55 23 -84
22 -175 -2 -67 -7 -115 -14 -124 -7 -7 -9 -17 -6 -20 3 -3 2 -12 -2 -19 -5 -7
-9 -16 -10 -20 -1 -5 -3 -10 -4 -13 -1 -3 -3 -8 -4 -12 -1 -5 -14 -35 -30 -68
-94 -192 -270 -377 -456 -476 -25 -13 -47 -26 -50 -30 -7 -8 -416 -211 -480
-238 -30 -13 -70 -30 -89 -38 -122 -53 -437 -149 -548 -168 -69 -11 -89 -14
-133 -20 -25 -3 -56 -8 -70 -10 -132 -25 -703 -25 -867 0 -18 3 -50 7 -70 10
-21 3 -58 10 -83 15 -25 5 -56 12 -70 15 -14 2 -45 9 -70 15 -25 5 -55 12 -68
14 -30 6 -40 10 -342 107 -140 46 -257 83 -260 84 -72 19 -268 89 -355 126
-16 7 -32 13 -35 14 -21 5 -132 62 -186 95 -36 22 -68 40 -71 40 -2 0 -10 6
-18 13 -29 27 -56 47 -64 47 -15 0 -205 192 -247 250 -155 214 -181 424 -77
624 81 156 283 312 518 399 68 25 200 65 240 72 11 2 45 8 75 14 155 30 238
36 470 36 118 0 242 -4 275 -7 78 -9 144 -18 175 -23 123 -20 215 -37 221 -40
3 -3 25 -7 49 -10 23 -3 45 -7 49 -10 4 -2 23 -7 42 -10 19 -3 59 -10 89 -16
30 -6 78 -12 105 -15 l50 -5 -30 19 c-37 23 -80 40 -220 86 -60 21 -114 41
-118 45 -5 5 1 39 12 76 57 182 60 369 9 540 -11 39 -22 73 -24 77 -3 4 -25
-13 -51 -37 -28 -27 -59 -47 -80 -51 -41 -8 -107 2 -111 16 -2 5 -10 10 -17
10 -20 0 -53 51 -63 97 -19 81 27 152 115 180 29 9 53 21 53 25 0 21 -104 108
-167 140 -66 34 -83 40 -158 54 -184 37 -395 -54 -524 -226 -14 -19 -28 -37
-31 -40 -19 -16 -93 -188 -111 -255 -21 -81 -30 -286 -15 -345 3 -14 9 -45 12
-70 3 -25 8 -48 10 -51 2 -3 6 -19 8 -36 5 -28 4 -30 -40 -40 l-46 -11 -19 45
c-10 25 -19 54 -19 64 0 11 -4 28 -9 37 -23 44 -37 354 -21 444 5 24 11 59 14
78 3 19 12 58 20 85 9 28 16 55 17 60 4 24 71 160 99 201 16 25 30 47 30 50 0
12 140 159 190 199 79 63 200 122 292 142 45 9 245 9 288 0 92 -21 241 -96
310 -156 178 -157 284 -318 353 -538 61 -192 72 -267 71 -500 0 -101 3 -183 7
-183 17 0 45 72 56 145 2 17 8 44 12 60 21 85 19 315 -4 440 -23 120 -106 345
-127 345 -4 0 -8 7 -8 15 0 16 -24 53 -91 140 -149 192 -372 327 -604 364 -78
13 -209 16 -270 7 -22 -3 -53 -8 -70 -11 -16 -2 -55 -12 -85 -21 -30 -9 -57
-16 -60 -16 -15 0 -182 -95 -230 -130 -118 -88 -225 -218 -295 -358 -21 -41
-42 -83 -47 -93 -31 -62 -67 -216 -76 -322 -13 -177 -2 -302 44 -482 43 -166
50 -144 -62 -182 -53 -18 -118 -43 -143 -54 -25 -12 -50 -22 -56 -23 -16 -3
-179 -97 -193 -111 -7 -7 -17 -13 -21 -13 -17 0 -161 -149 -198 -205 -42 -64
-103 -195 -103 -221 0 -20 -46 -12 -109 19 -47 23 -138 107 -182 167 -133 181
-162 413 -74 595 59 123 151 185 277 186 66 1 106 -9 191 -47 43 -20 82 -33
85 -29 4 4 -13 25 -38 47 -122 109 -137 127 -160 190 -12 35 -26 72 -30 83 -4
11 -13 36 -20 55 -7 19 -18 49 -26 66 -83 189 -189 552 -209 714 -3 25 -9 65
-12 90 -9 61 -9 441 0 510 13 103 48 275 66 321 5 13 10 29 11 34 3 12 5 19
24 75 34 106 135 320 150 320 5 0 6 3 3 6 -4 4 2 19 13 34 11 16 20 33 20 38
0 6 3 12 8 14 10 5 52 66 52 77 0 5 3 11 8 13 4 2 25 28 47 58 103 141 310
357 430 445 22 17 42 33 45 36 12 13 171 119 240 160 41 24 77 46 80 49 10 10
304 150 375 178 22 8 47 21 56 29 8 7 21 13 27 13 14 0 16 16 4 24 -4 3 -26 0
-48 -5 -21 -5 -52 -12 -67 -15 -16 -3 -85 -25 -155 -49 -69 -24 -129 -42 -133
-39 -11 6 21 83 58 140 58 90 198 222 308 292 96 60 219 110 339 137 53 12
142 19 236 18 91 -1 195 -8 195 -13 0 -1 9 -3 20 -4 118 -16 294 -77 490 -168
134 -63 224 -100 280 -115 146 -38 222 -47 380 -46 72 0 146 3 165 6 95 14
121 20 195 38 44 12 85 22 90 23 28 6 122 40 133 49 6 5 12 7 12 4 0 -5 97 42
135 65 35 22 138 112 169 146 105 120 143 201 162 357 1 11 3 22 3 24 4 16 98
-123 141 -208 73 -143 105 -289 102 -466 -3 -252 -106 -489 -291 -674 -88 -88
-101 -98 -190 -156 -91 -58 -204 -110 -303 -139 -73 -21 -103 -27 -188 -39 -8
-2 -19 -5 -25 -8 -13 -7 -306 -3 -370 5 -27 4 -72 11 -100 16 -27 5 -65 12
-84 15 -19 3 -37 8 -41 10 -3 2 -17 6 -31 9 -57 12 -72 16 -161 46 -51 18 -97
36 -103 41 -10 10 -65 13 -65 3 0 -11 45 -45 128 -94 45 -28 85 -50 87 -50 2
0 30 -12 62 -26 83 -37 110 -47 198 -70 170 -45 404 -57 563 -30 17 3 47 8 65
11 132 23 318 94 441 168 278 168 461 407 536 697 19 73 25 129 25 255 0 134
-5 182 -30 270 -9 33 -18 65 -20 70 -19 72 -100 225 -159 302 -197 260 -465
417 -706 416 -89 -1 -220 -34 -257 -65 -7 -6 -13 -8 -13 -4 0 3 -10 -2 -21
-12 -92 -75 -137 -161 -144 -276 -4 -65 11 -107 61 -165 14 -18 24 -34 21 -37
-13 -13 -126 54 -177 106 -49 48 -97 125 -107 170 -11 49 -13 161 -4 200 7 25
14 53 16 64 12 52 96 151 167 197 133 86 290 109 503 74z m-1149 -359 c44 -3
99 -8 122 -11 23 -3 61 -7 85 -10 92 -11 93 -12 96 -58 3 -60 46 -180 85 -242
125 -195 401 -310 652 -271 79 12 224 72 224 92 0 17 -6 17 -135 20 -55 0
-113 4 -128 8 -42 10 -117 47 -117 57 0 5 -6 9 -14 9 -25 0 -76 89 -76 132 0
63 41 147 64 130 6 -5 67 -30 136 -56 69 -26 134 -51 145 -56 11 -5 58 -23
105 -40 148 -54 153 -58 146 -92 -11 -56 -40 -103 -99 -160 -116 -113 -281
-189 -459 -212 -100 -13 -341 -8 -428 9 -14 3 -34 7 -45 9 -42 8 -175 56 -234
85 -34 16 -61 28 -61 26 0 -2 -26 8 -57 22 -146 64 -382 134 -503 149 -14 1
-45 5 -70 9 -59 8 -274 8 -330 0 -25 -3 -61 -8 -80 -11 -19 -2 -60 -11 -90
-20 -30 -8 -62 -17 -70 -19 -79 -20 -209 -83 -309 -151 -73 -49 -209 -174
-277 -254 -56 -66 -132 -228 -155 -328 -11 -45 -17 -52 -68 -83 -31 -18 -93
-52 -139 -76 -96 -49 -145 -83 -292 -202 -127 -103 -400 -374 -400 -397 0 -3
-7 -12 -15 -20 -8 -9 -36 -46 -62 -82 -26 -37 -50 -69 -53 -72 -5 -5 -17 -26
-44 -75 -6 -11 -14 -22 -18 -25 -8 -6 -123 -242 -133 -273 -12 -38 -13 -41
-34 -95 -11 -29 -20 -54 -20 -55 0 -1 -2 -9 -5 -17 -11 -31 -37 -136 -41 -165
-3 -16 -9 -52 -15 -80 -6 -27 -13 -70 -17 -95 -8 -59 -9 -379 -1 -450 4 -30 9
-75 12 -100 3 -25 8 -63 10 -85 3 -22 8 -65 11 -95 11 -95 52 -255 86 -335 13
-31 100 -276 109 -310 33 -117 39 -139 37 -141 -1 -1 -36 -18 -77 -38 -92 -44
-138 -86 -183 -168 -52 -93 -69 -164 -70 -288 -1 -95 9 -165 35 -243 25 -77
98 -228 119 -247 3 -3 18 -23 35 -45 38 -51 107 -118 169 -165 56 -43 179
-110 201 -110 8 0 20 -23 29 -57 61 -218 221 -435 440 -598 44 -33 82 -62 85
-65 19 -19 195 -109 310 -158 124 -53 137 -58 465 -168 121 -41 229 -79 240
-84 16 -7 49 -18 75 -25 3 -1 12 -5 20 -8 8 -3 42 -16 75 -27 33 -12 67 -24
75 -27 8 -4 17 -7 20 -8 3 -1 12 -4 20 -8 69 -28 280 -96 317 -103 15 -3 31
-8 37 -12 6 -3 20 -8 31 -9 11 -2 43 -8 70 -13 98 -19 134 -21 425 -22 288 -1
339 2 464 22 87 14 95 16 200 44 156 43 244 78 465 183 84 40 157 73 162 73 5
0 9 5 9 10 0 6 4 10 10 10 14 0 264 123 268 132 2 5 9 8 15 8 14 0 124 55 144
71 7 6 13 9 13 6 0 -8 145 76 239 138 76 50 233 198 289 271 64 84 160 268
177 339 1 6 5 17 8 25 30 81 31 262 3 345 -35 100 -121 240 -163 263 -7 4 -17
21 -21 37 -13 50 -5 312 12 401 4 19 15 109 21 170 3 25 32 184 49 269 13 64
64 254 112 415 30 102 57 194 59 205 2 11 4 20 5 20 3 0 16 59 24 106 3 19 8
45 11 59 2 13 7 42 10 65 4 22 9 54 11 70 10 56 12 340 3 405 -5 36 -11 79
-14 95 -2 17 -4 30 -5 30 -1 0 -3 9 -5 20 -5 39 -16 88 -20 95 -2 3 -6 17 -9
31 -10 53 -71 210 -122 315 -30 61 -54 114 -54 118 0 4 20 40 43 79 89 146
190 351 202 407 2 8 8 28 15 45 34 89 62 253 64 382 0 46 3 83 6 83 10 0 186
-218 235 -290 17 -25 36 -51 43 -58 6 -7 12 -20 12 -28 0 -8 3 -14 8 -14 6 0
30 -38 116 -183 33 -56 159 -312 171 -347 1 -3 6 -16 12 -30 6 -14 18 -45 28
-70 9 -25 23 -56 30 -70 7 -14 13 -28 13 -33 0 -4 14 -49 30 -100 53 -163 93
-308 118 -432 2 -11 7 -31 9 -45 3 -14 8 -41 10 -60 3 -19 7 -42 10 -50 2 -8
7 -37 10 -65 6 -52 13 -103 20 -145 25 -167 26 -662 0 -855 -10 -72 -27 -192
-31 -210 -2 -11 -6 -33 -9 -50 -36 -239 -154 -616 -275 -880 -46 -100 -120
-248 -132 -262 -6 -7 -7 -13 -2 -13 5 0 4 -4 -2 -8 -5 -4 -31 -43 -56 -87 -43
-75 -134 -218 -175 -275 -57 -79 -124 -167 -135 -180 -7 -8 -26 -30 -41 -50
-99 -124 -304 -334 -442 -453 -49 -43 -97 -84 -105 -91 -73 -63 -332 -246
-349 -246 -5 0 -11 -4 -13 -8 -4 -11 -173 -112 -186 -112 -6 0 -12 -3 -14 -8
-5 -12 -265 -141 -272 -135 -3 4 -6 1 -6 -5 0 -7 -7 -12 -15 -12 -8 0 -23 -4
-33 -10 -25 -14 -101 -45 -147 -61 -22 -8 -43 -18 -46 -22 -3 -5 -9 -8 -13 -7
-3 0 -66 -18 -139 -42 -72 -23 -136 -43 -142 -44 -5 -1 -65 -16 -133 -33 -128
-31 -322 -69 -401 -76 -25 -3 -61 -7 -79 -10 -190 -26 -619 -27 -842 0 -19 2
-56 6 -82 9 -26 3 -86 12 -135 21 -48 9 -101 19 -118 21 -16 3 -66 14 -110 25
-44 10 -89 21 -100 23 -11 3 -58 16 -105 31 -47 14 -92 27 -100 29 -38 10
-281 101 -362 137 -108 47 -292 139 -345 172 -21 12 -59 34 -86 47 -26 14 -47
28 -47 32 0 5 -6 8 -13 8 -7 0 -22 7 -32 15 -11 8 -58 41 -105 72 -69 45 -211
150 -264 194 -6 5 -22 19 -36 30 -142 116 -349 320 -465 459 -44 52 -82 97
-85 100 -3 3 -17 21 -30 40 -13 19 -27 37 -30 40 -14 12 -132 183 -186 270
-32 53 -65 104 -71 115 -38 61 -143 267 -193 380 -66 150 -167 428 -185 510
-2 11 -18 74 -34 140 -17 66 -34 140 -37 165 -3 25 -8 48 -10 51 -1 3 -6 28
-10 55 -3 27 -8 58 -11 69 -2 11 -6 38 -8 60 -3 22 -7 58 -10 80 -23 178 -27
765 -5 765 3 0 5 21 6 48 1 47 9 124 18 172 3 14 7 41 10 60 3 19 8 46 11 60
3 14 10 50 16 80 5 30 12 66 15 80 14 73 64 253 89 320 7 19 13 37 13 40 1 7
8 30 18 55 4 11 8 25 9 31 10 42 119 299 180 421 78 158 155 296 167 301 5 2
8 8 8 13 0 11 121 193 132 197 4 2 8 8 8 13 0 18 167 229 275 348 157 173 422
413 565 511 19 14 44 32 54 42 11 10 23 18 27 18 4 0 14 6 21 13 8 6 23 17 33
24 11 7 70 44 132 82 61 38 135 82 165 97 29 16 55 31 58 34 9 10 241 117 355
163 115 47 318 117 395 137 25 6 52 14 60 17 8 3 20 7 25 7 24 3 131 28 145
33 8 3 22 7 30 8 8 2 69 12 135 23 182 31 229 36 410 48 61 3 111 7 112 8 4 3
301 -3 379 -8z m1188 -41 c22 -3 53 -14 70 -25 35 -22 92 -80 79 -80 -9 0
-253 82 -288 96 -17 8 -15 10 15 15 35 6 51 5 124 -6z"/>
<path d="M3566 5563 c-1 -2 -25 -5 -52 -8 -27 -2 -80 -14 -119 -25 -38 -11
-77 -22 -85 -24 -57 -16 -241 -113 -290 -155 -95 -81 -128 -113 -174 -170 -61
-78 -106 -147 -142 -221 -26 -55 -45 -101 -46 -110 0 -3 -3 -9 -8 -15 -4 -5
-11 -28 -16 -50 l-7 -40 22 19 c11 11 21 25 21 33 0 7 3 13 8 13 4 0 16 16 26
35 11 19 23 35 28 35 4 0 8 5 8 11 0 33 176 211 280 284 265 186 548 236 840
147 82 -24 236 -105 312 -162 79 -60 196 -176 235 -234 15 -22 33 -47 40 -54
7 -7 29 -39 49 -72 58 -94 72 -77 29 35 -57 152 -144 294 -244 399 -68 70
-172 156 -189 156 -6 0 -12 4 -14 9 -4 11 -148 83 -213 107 -27 9 -56 22 -62
27 -7 5 -13 7 -13 3 0 -3 -11 -1 -24 4 -32 12 -192 31 -200 23z"/>
<path d="M6068 4855 c-2 -2 -23 -6 -48 -9 -25 -3 -56 -8 -70 -11 -39 -11 -136
-57 -125 -61 6 -1 60 -5 120 -7 61 -3 121 -8 135 -11 14 -3 48 -11 75 -17 58
-13 221 -90 253 -119 12 -11 23 -20 26 -20 11 0 110 -108 150 -164 24 -34 64
-104 89 -156 l47 -95 1 45 c1 25 0 50 -1 55 -1 6 -3 26 -5 45 -17 160 -123
342 -250 427 -70 46 -93 57 -175 78 -52 13 -214 28 -222 20z"/>
<path d="M1670 3090 c-107 -30 -190 -126 -190 -218 l0 -35 23 24 c44 47 113
97 152 110 58 19 63 19 107 3 41 -14 67 -39 94 -88 15 -28 15 -30 -2 -43 -10
-7 -23 -13 -28 -13 -19 0 -84 -66 -104 -107 -14 -27 -19 -52 -16 -82 4 -43 41
-124 53 -116 4 2 6 34 5 71 -4 113 26 148 130 151 41 1 72 7 77 14 4 7 5 41 3
76 -6 103 -64 191 -155 238 -34 18 -111 26 -149 15z"/>
<path d="M4928 2575 c-2 -2 -23 -6 -47 -10 -57 -8 -163 -48 -204 -77 -42 -28
-119 -112 -108 -116 5 -2 27 5 48 16 85 43 205 70 293 66 30 -2 66 -6 80 -10
14 -4 31 -8 38 -10 34 -7 110 -51 132 -78 45 -53 55 -104 34 -176 -17 -56 -17
-59 -1 -56 27 4 59 33 93 82 69 99 54 224 -34 292 -65 50 -138 74 -234 77 -47
2 -88 2 -90 0z"/>
<path d="M3618 2201 c-61 -31 -101 -83 -119 -156 -12 -49 -19 -242 -10 -260 3
-5 6 -24 8 -41 l2 -32 -165 85 c-92 46 -168 82 -170 80 -3 -2 40 -49 93 -103
97 -98 175 -163 263 -220 25 -16 47 -31 50 -34 13 -13 263 -140 275 -140 4 0
21 -6 38 -14 47 -21 165 -58 227 -71 8 -2 37 -8 63 -14 148 -34 419 -42 572
-16 17 2 48 7 70 11 22 3 76 15 120 26 44 11 85 21 90 22 26 5 155 50 192 67
24 10 46 19 51 19 5 0 32 11 60 25 29 14 56 25 61 25 5 0 11 3 13 8 2 4 46 29
98 55 151 76 261 145 370 231 69 55 144 124 120 110 -8 -5 -17 -9 -20 -9 -3
-1 -19 -8 -37 -18 -17 -9 -53 -25 -80 -36 -26 -10 -73 -30 -103 -44 -112 -52
-283 -113 -340 -124 -14 -2 -50 -10 -80 -18 -30 -7 -89 -19 -130 -25 -41 -6
-86 -13 -98 -15 -82 -13 -234 -19 -492 -20 l-294 0 -31 105 c-51 174 -121 301
-222 405 -61 62 -79 76 -129 102 -85 44 -122 55 -206 58 -45 2 -68 -3 -110
-24z m240 -203 c95 -58 179 -147 237 -252 23 -41 114 -287 115 -308 0 -4 -10
-5 -22 -2 -13 2 -51 7 -85 9 -80 7 -118 24 -190 81 -32 26 -64 52 -72 58 -11
8 -12 2 -7 -37 l7 -47 -33 6 c-39 7 -107 45 -128 71 -25 30 -47 84 -60 148
-14 65 -20 174 -11 190 3 6 6 16 7 23 4 25 35 63 67 82 44 27 106 19 175 -22z"/>
<path d="M3182 2078 c-30 -10 -70 -21 -90 -24 -118 -17 -165 -53 -164 -125 1
-47 10 -79 22 -79 6 0 35 16 66 36 31 20 61 37 68 39 6 1 24 7 39 13 16 7 32
12 36 12 23 0 101 111 101 145 0 8 -21 4 -78 -17z"/>
<path d="M5855 2081 c-9 -16 42 -90 77 -111 17 -10 50 -22 72 -26 55 -9 88
-27 121 -66 26 -31 28 -31 41 -13 8 11 12 25 10 32 -3 7 -1 15 4 18 12 7 10
56 -3 73 -5 6 -6 12 -2 12 4 0 -4 9 -18 20 -26 21 -125 45 -224 56 -32 3 -61
8 -65 10 -4 2 -9 0 -13 -5z"/>
</g>
</svg>
